<svg width="60" height="60" viewBox="0 0 60 60" fill="none" xmlns="http://www.w3.org/2000/svg">
<path fill-rule="evenodd" clip-rule="evenodd" d="M30 54.375C34.2791 54.3813 38.4838 53.2557 42.1875 51.1125V43.125C42.1875 40.8872 41.2985 38.7411 39.7162 37.1588C38.1339 35.5765 35.9878 34.6875 33.75 34.6875H26.25C24.0122 34.6875 21.8661 35.5765 20.2838 37.1588C18.7014 38.7411 17.8125 40.8872 17.8125 43.125V51.1125C21.5162 53.2557 25.7209 54.3813 30 54.375ZM47.8125 43.125V46.6388C51.0551 43.1674 53.2128 38.8242 54.0203 34.1431C54.8277 29.462 54.2498 24.6469 52.3575 20.2898C50.4652 15.9328 47.341 12.2235 43.369 9.61816C39.397 7.01278 34.7503 5.62478 30 5.62478C25.2497 5.62478 20.603 7.01278 16.631 9.61816C12.659 12.2235 9.53479 15.9328 7.6425 20.2898C5.75021 24.6469 5.17227 29.462 5.97973 34.1431C6.78719 38.8242 8.94486 43.1674 12.1875 46.6388V43.125C12.1875 40.2258 13.0831 37.3974 14.7518 35.0265C16.4205 32.6557 18.7808 30.8582 21.51 29.88C20.094 28.2512 19.1763 26.2495 18.8665 24.1136C18.5567 21.9777 18.8678 19.7978 19.7628 17.8338C20.6577 15.8699 22.0987 14.2048 23.9139 13.0372C25.729 11.8696 27.8417 11.2488 30 11.2488C32.1583 11.2488 34.271 11.8696 36.0861 13.0372C37.9013 14.2048 39.3423 15.8699 40.2372 17.8338C41.1322 19.7978 41.4433 21.9777 41.1335 24.1136C40.8237 26.2495 39.906 28.2512 38.49 29.88C41.2192 30.8582 43.5795 32.6557 45.2482 35.0265C46.9169 37.3974 47.8125 40.2258 47.8125 43.125ZM30 60C37.9565 60 45.5871 56.8393 51.2132 51.2132C56.8393 45.5871 60 37.9565 60 30C60 22.0435 56.8393 14.4129 51.2132 8.7868C45.5871 3.16071 37.9565 0 30 0C22.0435 0 14.4129 3.16071 8.7868 8.7868C3.16071 14.4129 0 22.0435 0 30C0 37.9565 3.16071 45.5871 8.7868 51.2132C14.4129 56.8393 22.0435 60 30 60ZM35.625 22.5C35.625 23.9918 35.0324 25.4226 33.9775 26.4775C32.9226 27.5324 31.4918 28.125 30 28.125C28.5082 28.125 27.0774 27.5324 26.0225 26.4775C24.9676 25.4226 24.375 23.9918 24.375 22.5C24.375 21.0082 24.9676 19.5774 26.0225 18.5225C27.0774 17.4676 28.5082 16.875 30 16.875C31.4918 16.875 32.9226 17.4676 33.9775 18.5225C35.0324 19.5774 35.625 21.0082 35.625 22.5Z" fill="black"/>
</svg>
