<svg width="52" height="51" viewBox="0 0 52 51" fill="none" xmlns="http://www.w3.org/2000/svg">
<path d="M26.0001 16.4241L17.8183 0.85622C18.0899 0.558009 18.4025 0.362409 18.715 0.23094C16.3023 1.08709 15.1952 4.00827 15.1952 4.00827L0.248338 32.4409C0.0380246 33.3323 -0.0204008 34.1371 0.0058884 34.8458H16.3198L26.0001 16.4241Z" fill="#34A853"/>
<path d="M26 16.4241L35.6803 34.8458H51.9942C52.0205 34.1371 51.962 33.3323 51.7517 32.4409L36.8049 4.00827C36.8049 4.00827 35.6949 1.08709 33.285 0.23094C33.5947 0.362409 33.9101 0.558009 34.1818 0.85622L26 16.4241Z" fill="#FBBC05"/>
<path d="M26.0001 16.424L34.1819 0.856152C33.9102 0.557942 33.5948 0.362341 33.2851 0.230872C32.9288 0.105816 32.5461 0.0224459 32.1313 0H31.699H20.3012H19.8689C19.457 0.0192394 19.0715 0.10261 18.7151 0.230872C18.4055 0.362341 18.09 0.557942 17.8183 0.856152L26.0001 16.424Z" fill="#188038"/>
<path d="M16.3228 34.8457L8.23448 50.2372C8.23448 50.2372 7.96574 50.0961 7.60061 49.8043C8.74857 50.7567 9.8644 50.9587 9.8644 50.9587H41.6305C43.3831 50.9587 43.7483 50.2372 43.7483 50.2372C43.7541 50.234 43.757 50.2308 43.7629 50.2276L35.6804 34.8457H16.3228Z" fill="#4285F4"/>
<path d="M16.3227 34.8457H0.00877769C0.0905663 36.9364 0.931822 38.1581 0.931822 38.1581L1.54524 39.306C1.58905 39.3734 1.61534 39.4118 1.61534 39.4118L2.95025 41.9386L5.94721 47.5629C6.03484 47.7906 6.13708 47.999 6.24516 48.1978C6.28606 48.2651 6.32402 48.3389 6.36784 48.403C6.37952 48.4223 6.39121 48.4415 6.40289 48.4608C6.77386 49.0251 7.18865 49.4612 7.60344 49.8043C7.96856 50.0993 8.2373 50.2372 8.2373 50.2372L16.3227 34.8457Z" fill="#1967D2"/>
<path d="M35.6803 34.8457H51.9942C51.9124 36.9364 51.0712 38.1581 51.0712 38.1581L50.4577 39.306C50.4139 39.3734 50.3876 39.4118 50.3876 39.4118L49.0527 41.9386L46.0558 47.5629C45.9681 47.7906 45.8659 47.999 45.7578 48.1978C45.7169 48.2651 45.6789 48.3389 45.6351 48.403C45.6234 48.4223 45.6118 48.4415 45.6001 48.4608C45.2291 49.0251 44.8143 49.4612 44.3995 49.8043C44.0344 50.0993 43.7657 50.2372 43.7657 50.2372L35.6803 34.8457Z" fill="#EA4335"/>
</svg>
