<svg width="45" height="45" viewBox="0 0 45 45" fill="none" xmlns="http://www.w3.org/2000/svg">
<path d="M7.5 11.75V34.25H37.5V11.75H7.5ZM7.5 8H37.5C38.4946 8 39.4484 8.39509 40.1516 9.09835C40.8549 9.80161 41.25 10.7554 41.25 11.75V34.25C41.25 35.2446 40.8549 36.1984 40.1516 36.9016C39.4484 37.6049 38.4946 38 37.5 38H7.5C6.50544 38 5.55161 37.6049 4.84835 36.9016C4.14509 36.1984 3.75 35.2446 3.75 34.25V11.75C3.75 10.7554 4.14509 9.80161 4.84835 9.09835C5.55161 8.39509 6.50544 8 7.5 8ZM14.0625 21.125C14.8084 21.125 15.5238 20.8287 16.0512 20.3012C16.5787 19.7738 16.875 19.0584 16.875 18.3125C16.875 17.5666 16.5787 16.8512 16.0512 16.3238C15.5238 15.7963 14.8084 15.5 14.0625 15.5C13.3166 15.5 12.6012 15.7963 12.0738 16.3238C11.5463 16.8512 11.25 17.5666 11.25 18.3125C11.25 19.0584 11.5463 19.7738 12.0738 20.3012C12.6012 20.8287 13.3166 21.125 14.0625 21.125ZM13.125 26.75L16.875 23L20.625 26.75L28.125 19.25L33.75 24.875V30.5H13.125V26.75Z" fill="white"/>
</svg>
