<svg width="43" height="38" viewBox="0 0 43 38" fill="none" xmlns="http://www.w3.org/2000/svg">
<path d="M10.7497 13.4583C10.7497 12.5839 11.5518 11.875 12.5413 11.875H21.4997C22.4892 11.875 23.2913 12.5839 23.2913 13.4583C23.2913 14.3328 22.4892 15.0417 21.4997 15.0417H12.5413C11.5518 15.0417 10.7497 14.3328 10.7497 13.4583Z" fill="#667185"/>
<path d="M12.5413 18.2083C11.5518 18.2083 10.7497 18.9172 10.7497 19.7917C10.7497 20.6661 11.5518 21.375 12.5413 21.375H28.6663C29.6559 21.375 30.458 20.6661 30.458 19.7917C30.458 18.9172 29.6559 18.2083 28.6663 18.2083H12.5413Z" fill="#667185"/>
<path fill-rule="evenodd" clip-rule="evenodd" d="M27.5913 31.5875L30.0997 29.925C30.7199 29.5139 31.4743 29.2917 32.2497 29.2917C36.2077 29.2917 39.4163 26.4561 39.4163 22.9583V10.2917C39.4163 6.79386 36.2077 3.95833 32.2497 3.95833H10.7497C6.79163 3.95833 3.58301 6.79386 3.58301 10.2917V22.9583C3.58301 26.4561 6.79163 29.2917 10.7497 29.2917H14.333C15.1083 29.2917 15.8627 29.5139 16.483 29.925L18.9913 31.5875C21.5395 33.2764 25.0432 33.2764 27.5913 31.5875ZM32.2497 26.125C30.699 26.125 29.1902 26.5695 27.9497 27.3917L25.4413 29.0542C24.1673 29.8986 22.4154 29.8986 21.1413 29.0542L18.633 27.3917C17.3925 26.5695 15.8837 26.125 14.333 26.125H10.7497C8.77065 26.125 7.16634 24.7072 7.16634 22.9583V10.2917C7.16634 8.54276 8.77065 7.12499 10.7497 7.12499H32.2497C34.2287 7.12499 35.833 8.54276 35.833 10.2917V22.9583C35.833 24.7072 34.2287 26.125 32.2497 26.125Z" fill="#667185"/>
</svg>
