<svg width="232" height="108" viewBox="0 0 232 108" fill="none" xmlns="http://www.w3.org/2000/svg">
<g clip-path="url(#clip0_25_25818)">
<path d="M44.1547 42.5021L34.04 50.1181H40.6643L45.5841 46.4142L44.1547 42.5021Z" fill="#FFCA42" stroke="#FFCA42" stroke-miterlimit="10"/>
<path d="M31.3444 7.4082H28.4977L11.0546 20.544L8.53125 27.4331L32.1574 9.64023L31.3444 7.4082Z" fill="#FFCA42" stroke="#FFCA42" stroke-miterlimit="10"/>
<path d="M46.9375 50.1181L46.8408 49.8557L46.4902 50.1181H46.9375Z" fill="#FFCA42" stroke="#FFCA42" stroke-miterlimit="10"/>
<path d="M16.0475 7.4082L15.8027 7.59219L13.2793 14.4813L22.6687 7.4082H16.0475Z" fill="#FFCA42" stroke="#FFCA42" stroke-miterlimit="10"/>
<path d="M38.7845 27.7917L17.709 43.6633H24.3332L40.2139 31.7038L38.7845 27.7917Z" fill="#FFCA42" stroke="#FFCA42" stroke-miterlimit="10"/>
<path d="M41.4716 35.1454L30.1602 43.6633H30.6799L31.8857 47.3522L42.8979 39.0575L41.4716 35.1454Z" fill="#FFCA42" stroke="#FFCA42" stroke-miterlimit="10"/>
<path d="M19.6796 33.5894L20.0181 32.5488L1.56266 46.4477L0.214844 50.1185H3.31241L25.2583 33.5894H19.6796Z" fill="#FFCA42" stroke="#FFCA42" stroke-miterlimit="10"/>
<path d="M14.3003 50.1178L15.9896 44.96L9.13867 50.1178H14.3003Z" fill="#FFCA42" stroke="#FFCA42" stroke-miterlimit="10"/>
<path d="M23.5472 21.7045L24.5384 24.754L34.8435 16.9931L33.414 13.0811L6.30961 33.4951L3.7832 40.3842L21.9092 26.7356L23.5472 21.7045Z" fill="#FFCA42" stroke="#FFCA42" stroke-miterlimit="10"/>
<path d="M25.6875 28.2807L26.99 32.2863L37.5278 24.3506L36.1014 20.4385L25.6875 28.2807Z" fill="#FFCA42" stroke="#FFCA42" stroke-miterlimit="10"/>
<path d="M52.0721 27.2549V32.1472L71.0534 17.8562V16.0947H66.7652L51.9482 27.2549H52.0721Z" fill="#FFCA42" stroke="#FFCA42" stroke-miterlimit="10"/>
<path d="M47.8418 25.9579L65.4904 12.6652V7.8905H65.2093L47.8418 20.969V25.9579Z" fill="#FFCA42" stroke="#FFCA42" stroke-miterlimit="10"/>
<path d="M52.0723 13.3952L59.3795 7.8905H52.7583L52.0723 8.40628V13.3952Z" fill="#FFCA42" stroke="#FFCA42" stroke-miterlimit="10"/>
<path d="M52.616 41.1148L65.4898 31.4206V27.2702H71.0201L71.0534 27.2491V22.2451L52.0781 36.5331C52.0848 38.0756 52.2653 39.6125 52.616 41.1148Z" fill="#FFCA42" stroke="#FFCA42" stroke-miterlimit="10"/>
<path d="M71.1745 45.8954V40.9065L60.0596 49.2887C61.8471 49.8349 63.7053 50.1164 65.5747 50.1242L71.1745 45.8954Z" fill="#FFCA42" stroke="#FFCA42" stroke-miterlimit="10"/>
<path d="M67.9683 38.7317C67.0839 38.7317 66.4503 38.5507 66.0675 38.1887C65.6847 37.8268 65.4923 37.2436 65.4903 36.4393V35.8361L53.9492 44.5289C54.6153 45.7011 55.5116 46.727 56.5844 47.5452L68.2524 38.7317H67.9683Z" fill="#FFCA42" stroke="#FFCA42" stroke-miterlimit="10"/>
<path d="M47.8418 16.5803L48.4885 16.0947H47.8418V16.5803Z" fill="#FFCA42" stroke="#FFCA42" stroke-miterlimit="10"/>
<path d="M101.754 48.4287C105.094 46.7253 107.717 43.8908 109.155 40.4326L96.1055 50.2596C98.0735 49.9517 99.98 49.3338 101.754 48.4287Z" fill="#FFCA42" stroke="#FFCA42" stroke-miterlimit="10"/>
<path d="M92.5069 38.9584C91.8997 38.9723 91.2975 38.8462 90.7471 38.5898C90.1968 38.3335 89.7131 37.9538 89.3338 37.4804C89.1868 37.2991 89.0544 37.1065 88.9379 36.9043L78.5361 44.7466C79.4275 45.7751 80.4518 46.6809 81.5823 47.4401L92.8574 38.9493C92.7487 38.9493 92.6278 38.9584 92.5069 38.9584Z" fill="#FFCA42" stroke="#FFCA42" stroke-miterlimit="10"/>
<path d="M76.5357 41.8565L88.098 33.1486C88.098 33.1486 88.098 33.1214 88.098 33.1064C88.098 31.176 88.5211 29.7181 89.3672 28.7328C89.7454 28.2657 90.2245 27.89 90.7689 27.6341C91.3132 27.3781 91.9085 27.2484 92.5101 27.2548C93.3698 27.2436 94.209 27.5161 94.8975 28.03L105.266 20.2209C104.227 19.2724 103.067 18.4661 101.815 17.823L75.0459 37.9836C75.377 39.3321 75.8776 40.6334 76.5357 41.8565Z" fill="#FFCA42" stroke="#FFCA42" stroke-miterlimit="10"/>
<path d="M74.4964 33.1067C74.4964 33.4083 74.4964 33.71 74.5175 34.0116L97.9533 16.3574C96.1763 15.9019 94.3483 15.6749 92.5136 15.6818H92.2114L74.9497 28.6849C74.6405 30.1384 74.4886 31.6208 74.4964 33.1067Z" fill="#FFCA42" stroke="#FFCA42" stroke-miterlimit="10"/>
<path d="M110.518 33.1064C110.519 32.1259 110.454 31.1464 110.324 30.1746L85.0391 49.2192C86.6561 49.843 88.3492 50.2487 90.0737 50.4257L110.433 35.0941C110.491 34.4446 110.52 33.782 110.518 33.1064Z" fill="#FFCA42" stroke="#FFCA42" stroke-miterlimit="10"/>
<path d="M83.2597 17.7838C81.3251 18.7658 79.6167 20.1392 78.2432 21.8165L84.1663 17.3555C83.8611 17.4912 83.5589 17.633 83.2597 17.7838Z" fill="#FFCA42" stroke="#FFCA42" stroke-miterlimit="10"/>
<path d="M96.375 36.2977L109.43 26.4647C109.099 25.5568 108.686 24.6805 108.197 23.8466C108.001 23.5118 107.792 23.189 107.578 22.8723L96.7256 31.0464C96.865 31.7241 96.9318 32.4146 96.925 33.1065C96.9567 34.1962 96.7697 35.2812 96.375 36.2977Z" fill="#FFCA42" stroke="#FFCA42" stroke-miterlimit="10"/>
<path d="M115.366 50.1181L128.167 40.4782V35.4923L114.749 45.5968V50.1181H115.366Z" fill="#FFCA42" stroke="#FFCA42" stroke-miterlimit="10"/>
<path d="M114.749 22.453L123.193 16.0947H116.568L114.749 17.4671V22.453Z" fill="#FFCA42" stroke="#FFCA42" stroke-miterlimit="10"/>
<path d="M121.195 50.1185H127.82L128.167 49.8561V44.8672L121.195 50.1185Z" fill="#FFCA42" stroke="#FFCA42" stroke-miterlimit="10"/>
<path d="M151.073 36.9944L137.716 47.0536V50.1181H140.269L151.073 41.9802V36.9944Z" fill="#FFCA42" stroke="#FFCA42" stroke-miterlimit="10"/>
<path d="M173.98 30.3922C173.98 29.9699 173.98 29.5537 173.944 29.1465L160.623 39.1785V44.1614L173.98 34.1022V30.3922Z" fill="#FFCA42" stroke="#FFCA42" stroke-miterlimit="10"/>
<path d="M173.981 50.1181V47.874L170.998 50.1181H173.981Z" fill="#FFCA42" stroke="#FFCA42" stroke-miterlimit="10"/>
<path d="M165.171 50.1177L173.98 43.482V38.4961L160.623 48.5553V50.1177H165.171Z" fill="#FFCA42" stroke="#FFCA42" stroke-miterlimit="10"/>
<path d="M151.074 32.6052V32.0955C151.074 30.6477 151.497 29.5116 152.343 28.6871C153.19 27.8627 154.358 27.4505 155.849 27.4505C156.443 27.4455 157.035 27.5299 157.605 27.7008L169.391 18.827C168.276 17.8816 166.992 17.1559 165.607 16.6885L137.717 37.6756V42.6524L151.074 32.6052Z" fill="#FFCA42" stroke="#FFCA42" stroke-miterlimit="10"/>
<path d="M137.717 32.096V33.3025L160.85 15.8806C160.654 15.8806 160.46 15.8806 160.246 15.8806C157.993 15.8581 155.777 16.4528 153.839 17.5999C151.954 18.7019 150.326 20.193 149.064 21.9735C148.767 21.4663 148.436 20.9795 148.073 20.5166L136.731 29.0586C137.409 29.923 137.758 30.9991 137.717 32.096Z" fill="#FFCA42" stroke="#FFCA42" stroke-miterlimit="10"/>
<path d="M160.624 32.0964V34.811L173.316 25.2404C172.959 23.915 172.404 22.651 171.669 21.4912L160.252 30.0936C160.503 30.7313 160.629 31.4112 160.624 32.0964Z" fill="#FFCA42" stroke="#FFCA42" stroke-miterlimit="10"/>
<path d="M151.074 50.1181V46.3719L146.097 50.1181H151.074Z" fill="#FFCA42" stroke="#FFCA42" stroke-miterlimit="10"/>
<path d="M114.749 41.2077L128.248 31.0399C128.375 30.1427 128.792 29.3113 129.436 28.6721C130.282 27.8497 131.451 27.4375 132.942 27.4355H133.029L145.495 18.0489C145.193 17.8378 144.891 17.6357 144.546 17.4457C143.532 16.8804 142.442 16.4639 141.31 16.209L114.749 36.2188V41.2077Z" fill="#FFCA42" stroke="#FFCA42" stroke-miterlimit="10"/>
<path d="M114.748 31.8305L135.739 16.0223C134.474 16.2019 133.248 16.5935 132.113 17.1806C130.52 17.9966 129.158 19.1999 128.154 20.6794V16.7372L114.736 26.8447L114.748 31.8305Z" fill="#FFCA42" stroke="#FFCA42" stroke-miterlimit="10"/>
<path d="M179.782 20.3597L185.446 16.0947H179.782V20.3597Z" fill="#FFCA42" stroke="#FFCA42" stroke-miterlimit="10"/>
<path d="M179.782 39.1148L193.2 29.0074V24.0215L179.782 34.1259V39.1148Z" fill="#FFCA42" stroke="#FFCA42" stroke-miterlimit="10"/>
<path d="M193.201 38.3853V33.3994L179.783 43.5039V48.4928L193.201 38.3853Z" fill="#FFCA42" stroke="#FFCA42" stroke-miterlimit="10"/>
<path d="M178.816 6.80505C178.788 8.22044 179.264 9.59982 180.157 10.699L191.913 1.84935C190.667 0.842668 189.137 0.250894 187.537 0.157227L178.819 6.7206C178.819 6.75981 178.816 6.77791 178.816 6.80505Z" fill="#FFCA42" stroke="#FFCA42" stroke-miterlimit="10"/>
<path d="M186.551 13.3948C187.612 13.4091 188.667 13.2501 189.676 12.9242L193.224 10.2518C193.897 9.2345 194.247 8.03819 194.227 6.81933C194.236 6.11608 194.134 5.41582 193.925 4.74414L183.176 12.8398C184.259 13.2231 185.402 13.4111 186.551 13.3948Z" fill="#FFCA42" stroke="#FFCA42" stroke-miterlimit="10"/>
<path d="M190.073 50.118L193.2 47.7623V42.7734L183.448 50.118H190.073Z" fill="#FFCA42" stroke="#FFCA42" stroke-miterlimit="10"/>
<path d="M179.782 29.7372L193.2 19.6328V16.0947H191.272L179.782 24.7484V29.7372Z" fill="#FFCA42" stroke="#FFCA42" stroke-miterlimit="10"/>
<path d="M197.432 33.1064C197.432 33.8001 197.46 34.4767 197.516 35.1363L221.741 16.891C220.109 16.2645 218.395 15.8793 216.652 15.7478L197.643 30.063C197.505 31.0717 197.435 32.0883 197.432 33.1064Z" fill="#FFCA42" stroke="#FFCA42" stroke-miterlimit="10"/>
<path d="M229.516 29.7885L231.495 28.2985C231.16 26.9496 230.674 25.6425 230.048 24.4015L222.895 29.7885H229.516Z" fill="#FFCA42" stroke="#FFCA42" stroke-miterlimit="10"/>
<path d="M226.05 46.7997C226.921 46.0844 227.711 45.2752 228.404 44.3867L221.997 49.2127C223.461 48.6143 224.827 47.801 226.05 46.7997Z" fill="#FFCA42" stroke="#FFCA42" stroke-miterlimit="10"/>
<path d="M199.864 42.743L211.075 34.2975C211.045 33.9205 211.03 33.5253 211.03 33.091C211.03 31.1204 211.342 29.6324 211.967 28.627L198.217 38.9908C198.56 40.1649 199.033 41.297 199.628 42.366C199.707 42.4957 199.788 42.6163 199.864 42.743Z" fill="#FFCA42" stroke="#FFCA42" stroke-miterlimit="10"/>
<path d="M214.535 27.1339C215.965 27.1339 216.957 27.9081 217.509 29.4564L228.134 21.4634C227.51 20.7169 226.817 20.0302 226.064 19.4123C225.762 19.171 225.46 18.9418 225.157 18.7246L213.867 27.2093C214.086 27.1606 214.31 27.1353 214.535 27.1339Z" fill="#FFCA42" stroke="#FFCA42" stroke-miterlimit="10"/>
<path d="M214.536 39.0786C214.072 39.0879 213.614 38.9826 213.201 38.7721C212.788 38.5616 212.434 38.2524 212.17 37.8721L201.979 45.5455C202.935 46.5366 204.025 47.3903 205.216 48.0822L220.704 36.4153H217.618C217.093 38.1929 216.065 39.0806 214.536 39.0786Z" fill="#FFCA42" stroke="#FFCA42" stroke-miterlimit="10"/>
<path d="M214.427 50.5314L231.565 37.6218C231.658 37.2327 231.746 36.8345 231.822 36.4153H226.533L208.896 49.6868C210.692 50.2235 212.553 50.5077 214.427 50.5314Z" fill="#FFCA42" stroke="#FFCA42" stroke-miterlimit="10"/>
<path d="M205.802 17.784C203.196 19.158 201.053 21.2663 199.637 23.8467C199.541 24.0217 199.447 24.1966 199.356 24.3746L210.269 16.1553C208.712 16.4918 207.21 17.0398 205.802 17.784Z" fill="#FFCA42" stroke="#FFCA42" stroke-miterlimit="10"/>
<path d="M66.0037 72.9297L55.4629 80.8685C56.0456 82.2227 56.3646 83.6752 56.4027 85.1485L68.0254 76.4014C67.7413 75.7981 67.421 75.1949 67.0916 74.6128C66.7622 74.0306 66.3875 73.4696 66.0037 72.9297Z" fill="#FFCA42" stroke="#FFCA42" stroke-miterlimit="10"/>
<path d="M36.9925 66.7977C36.6903 66.9756 36.37 67.1596 36.0647 67.3466L32.9853 69.6691C31.4098 71.1111 30.0609 72.7818 28.9842 74.6248C28.1354 76.0629 27.4618 77.597 26.9775 79.1945L47.1162 64.0137C43.5673 64.1215 40.0959 65.0762 36.9925 66.7977Z" fill="#FFCA42" stroke="#FFCA42" stroke-miterlimit="10"/>
<path d="M41.8582 92.7981C41.567 92.4529 41.3042 92.0847 41.0725 91.6971L30.6133 99.5756C31.4393 100.63 32.3653 101.603 33.3784 102.48L43.9887 94.4902C43.172 94.0745 42.4475 93.499 41.8582 92.7981Z" fill="#FFCA42" stroke="#FFCA42" stroke-miterlimit="10"/>
<path d="M69.268 79.8496L55.811 89.9842C55.4739 91.0128 54.9437 91.9678 54.2486 92.7984C52.9129 94.3769 51.0614 95.2265 48.6942 95.3471L36.3613 104.634C36.5729 104.761 36.7784 104.894 36.9929 105.014C38.0864 105.629 39.231 106.149 40.4138 106.568L69.9752 84.3046C69.888 82.7999 69.6511 81.3076 69.268 79.8496Z" fill="#FFCA42" stroke="#FFCA42" stroke-miterlimit="10"/>
<path d="M52.45 64.385L26.0769 84.2471C26.0436 84.787 26.0225 85.3359 26.0225 85.8909C26.0222 86.9701 26.0919 88.0481 26.231 89.1183L57.1673 65.8208C55.6549 65.1642 54.0721 64.6825 52.45 64.385Z" fill="#FFCA42" stroke="#FFCA42" stroke-miterlimit="10"/>
<path d="M63.7377 70.2511C62.7659 69.284 61.6999 68.4161 60.5555 67.6602L48.957 76.4073C50.5687 76.479 52.1158 77.06 53.3752 78.0662L63.7377 70.2511Z" fill="#FFCA42" stroke="#FFCA42" stroke-miterlimit="10"/>
<path d="M39.6814 85.8904C39.6779 84.9799 39.7598 84.071 39.9261 83.1758L27.0645 92.864C27.4776 94.1738 28.0191 95.4397 28.6812 96.6434L39.8627 88.222C39.7384 87.4511 39.6778 86.6712 39.6814 85.8904Z" fill="#FFCA42" stroke="#FFCA42" stroke-miterlimit="10"/>
<path d="M69.8595 88.7804L44.8281 107.632C45.9068 107.778 46.9943 107.851 48.0828 107.849C49.2204 107.85 50.3566 107.77 51.4826 107.608L68.1853 95.0301C69.0536 93.0423 69.618 90.9355 69.8595 88.7804Z" fill="#FFCA42" stroke="#FFCA42" stroke-miterlimit="10"/>
<path d="M77.826 73.4033L74.8584 75.6384V80.6273L84.4472 73.4033H77.826Z" fill="#FFCA42" stroke="#FFCA42" stroke-miterlimit="10"/>
<path d="M88.2765 107.427V103.041L82.4531 107.427H88.2765Z" fill="#FFCA42" stroke="#FFCA42" stroke-miterlimit="10"/>
<path d="M111.182 107.427V104.543L107.354 107.427H111.182Z" fill="#FFCA42" stroke="#FFCA42" stroke-miterlimit="10"/>
<path d="M89.5454 85.5593C90.3916 84.6163 91.5601 84.1437 93.0509 84.1417C93.6255 84.1378 94.197 84.2264 94.7433 84.4041L106.402 75.6238C105.236 74.6842 103.884 74.0026 102.434 73.624L74.8584 94.3939V99.3798L88.2822 89.2724C88.3003 87.722 88.7214 86.4843 89.5454 85.5593Z" fill="#FFCA42" stroke="#FFCA42" stroke-miterlimit="10"/>
<path d="M88.2761 78.5918V74.927L74.8584 85.0315V90.0083L97.1095 73.25C95.4821 73.3939 93.9034 73.879 92.4767 74.6737C90.7828 75.6256 89.3423 76.9693 88.2761 78.5918Z" fill="#FFCA42" stroke="#FFCA42" stroke-miterlimit="10"/>
<path d="M97.3457 86.8354C97.6832 87.6494 97.8468 88.5246 97.8262 89.4053V91.4744L110.437 81.9792C110.068 80.6588 109.505 79.4004 108.766 78.2451L97.3457 86.8354Z" fill="#FFCA42" stroke="#FFCA42" stroke-miterlimit="10"/>
<path d="M111.183 87.7007C111.183 87.0612 111.16 86.4419 111.113 85.8427L97.8164 95.8506V100.836L111.183 90.7772V87.7007Z" fill="#FFCA42" stroke="#FFCA42" stroke-miterlimit="10"/>
<path d="M111.183 95.1659L97.8252 105.225V107.427H101.524L111.183 100.155V95.1659Z" fill="#FFCA42" stroke="#FFCA42" stroke-miterlimit="10"/>
<path d="M88.2761 93.6641L74.8584 103.769V107.427H76.6233L88.2761 98.6529V93.6641Z" fill="#FFCA42" stroke="#FFCA42" stroke-miterlimit="10"/>
<path d="M146.208 101.666C147.744 99.7872 148.792 97.5598 149.26 95.1807H148.517L131.732 107.828C132.016 107.828 132.298 107.849 132.588 107.849C135.268 107.88 137.921 107.313 140.354 106.19C140.533 106.109 140.702 106.018 140.877 105.931L145.634 102.35C145.821 102.127 146.017 101.901 146.208 101.666Z" fill="#FFCA42" stroke="#FFCA42" stroke-miterlimit="10"/>
<path d="M132.579 83.4778C132.808 83.4788 133.037 83.4939 133.265 83.5231L143.216 76.0337C142.703 75.6801 142.17 75.3559 141.621 75.0625C140.853 74.6638 140.057 74.323 139.239 74.043L115.232 92.1194C115.328 93.6062 115.591 95.0774 116.018 96.505L128.75 86.9163H128.408C128.811 84.624 130.201 83.4778 132.579 83.4778Z" fill="#FFCA42" stroke="#FFCA42" stroke-miterlimit="10"/>
<path d="M132.579 72.9817C130.807 72.9733 129.042 73.1923 127.326 73.6332L117.414 81.0984L117.378 81.1557C116.278 83.1673 115.584 85.3746 115.335 87.6527L134.676 73.0842C133.993 73.0209 133.298 72.9817 132.579 72.9817Z" fill="#FFCA42" stroke="#FFCA42" stroke-miterlimit="10"/>
<path d="M136.064 95.1807L122.697 105.249C122.972 105.418 123.253 105.584 123.543 105.738C124.611 106.303 125.735 106.754 126.898 107.083L142.7 95.1807H136.064Z" fill="#FFCA42" stroke="#FFCA42" stroke-miterlimit="10"/>
<path d="M139.27 92.7679H145.891L149.98 89.6883C149.963 88.1526 149.772 86.6238 149.411 85.1307L139.27 92.7679Z" fill="#FFCA42" stroke="#FFCA42" stroke-miterlimit="10"/>
<path d="M128.227 92.7679H133.44L148.148 81.6922C148.031 81.46 147.91 81.2308 147.78 81.0045C147.248 80.0713 146.62 79.1959 145.906 78.3925L136.208 85.6978C136.331 86.0883 136.391 86.4953 136.387 86.9043H134.589L117.463 99.8018C118.12 100.962 118.926 102.031 119.859 102.984L129.212 95.941C128.653 95.2232 128.324 94.1645 128.227 92.7679Z" fill="#FFCA42" stroke="#FFCA42" stroke-miterlimit="10"/>
<path d="M157.722 64.7168L157.655 65.1542L158.236 64.7168H157.722Z" fill="#FFCA42" stroke="#FFCA42" stroke-miterlimit="10"/>
<path d="M155.338 80.6667L155.062 82.5127H159.508L165.779 77.7892L168.643 70.6467L155.338 80.6667Z" fill="#FFCA42" stroke="#FFCA42" stroke-miterlimit="10"/>
<path d="M164.065 64.7168L156.918 70.1008L156.078 75.7201L170.687 64.7168H164.065Z" fill="#FFCA42" stroke="#FFCA42" stroke-miterlimit="10"/>
<path d="M190.178 85.3784C189.332 85.0366 188.909 84.5238 188.909 83.8401C188.909 83.7227 188.92 83.6056 188.942 83.4902L179.387 90.684C180.357 91.6078 181.511 92.3178 182.774 92.7682C182.877 92.8074 182.989 92.8436 183.098 92.8798L192.23 85.9998C191.532 85.8417 190.847 85.634 190.178 85.3784Z" fill="#FFCA42" stroke="#FFCA42" stroke-miterlimit="10"/>
<path d="M196.751 86.9922L187.383 94.0412C187.851 94.1437 188.335 94.2433 188.839 94.3428C190.395 94.6565 191.604 94.944 192.466 95.2054L201.402 88.4732C201.092 88.3225 200.774 88.1876 200.45 88.069C199.237 87.6462 198.002 87.2868 196.751 86.9922Z" fill="#FFCA42" stroke="#FFCA42" stroke-miterlimit="10"/>
<path d="M191.025 82.2714C191.952 82.2241 192.867 82.4897 193.624 83.0254C194.032 83.3474 194.36 83.7607 194.579 84.2319L203.379 77.5962C202.985 77.1548 202.563 76.7388 202.116 76.3505C201.523 75.8397 200.881 75.3881 200.2 75.0022L190.529 82.2925C190.694 82.2761 190.859 82.2691 191.025 82.2714Z" fill="#FFCA42" stroke="#FFCA42" stroke-miterlimit="10"/>
<path d="M205.786 85.1818L206.693 84.5061C206.443 83.1199 205.996 81.7763 205.366 80.5156L199.162 85.1818H205.786Z" fill="#FFCA42" stroke="#FFCA42" stroke-miterlimit="10"/>
<path d="M204.865 91.169C204.702 90.982 204.539 90.798 204.369 90.623L183.617 106.253L183.681 106.28C185.216 106.918 186.827 107.356 188.474 107.583L206.355 94.1159C206.084 93.035 205.575 92.0282 204.865 91.169Z" fill="#FFCA42" stroke="#FFCA42" stroke-miterlimit="10"/>
<path d="M188.184 95.6631H185.222L177.468 101.506C177.574 101.65 177.673 101.807 177.77 101.937C178.493 102.855 179.335 103.673 180.275 104.368L189.175 97.6659C188.619 97.1354 188.268 96.4263 188.184 95.6631Z" fill="#FFCA42" stroke="#FFCA42" stroke-miterlimit="10"/>
<path d="M191.327 72.9813C191.024 72.9813 190.722 72.9813 190.42 72.9994L176.869 83.2034C176.839 83.5321 176.821 83.8639 176.821 84.2017C176.799 85.4238 176.995 86.64 177.398 87.7941L196.346 73.5242C194.7 73.149 193.015 72.9668 191.327 72.9813Z" fill="#FFCA42" stroke="#FFCA42" stroke-miterlimit="10"/>
<path d="M199.939 106.461C202.133 105.546 203.815 104.285 204.986 102.676C205.934 101.387 206.518 99.8688 206.678 98.2783L194.034 107.798C196.063 107.683 198.059 107.231 199.939 106.461Z" fill="#FFCA42" stroke="#FFCA42" stroke-miterlimit="10"/>
<path d="M175.311 95.6631C175.387 96.5717 175.569 97.4685 175.851 98.3355L179.399 95.6631H175.311Z" fill="#FFCA42" stroke="#FFCA42" stroke-miterlimit="10"/>
<path d="M15.8722 7.4082L15.8027 7.5922L16.0475 7.4082H15.8722Z" fill="#FFCA42"/>
<path d="M52.0723 8.40628L52.7583 7.8905H52.0723V8.40628Z" fill="#FFCA42"/>
<path d="M15.9893 44.9603L17.7088 43.6633H16.4154L15.9893 44.9603Z" fill="#FFCA42"/>
<path d="M71.0538 27.2546V27.2305L71.0205 27.2546H71.0538Z" fill="#FFCA42"/>
<path d="M32.9854 69.6692L36.0648 67.3467C34.9682 68.0236 33.9372 68.8011 32.9854 69.6692Z" fill="#FFCA42"/>
<path d="M114.749 17.4671L116.568 16.0947H114.749V17.4671Z" fill="#FFCA42"/>
<path d="M95.6498 37.4802C95.9483 37.1248 96.1908 36.7261 96.369 36.2979L92.8574 38.9431C93.3981 38.9018 93.9247 38.7508 94.4048 38.4993C94.885 38.2477 95.3086 37.9009 95.6498 37.4802Z" fill="#FFCA42"/>
<path d="M128.167 50.1181V49.8557L127.819 50.1181H128.167Z" fill="#FFCA42"/>
<path d="M123.543 75.0927C120.959 76.4575 118.829 78.5444 117.414 81.098L127.326 73.6328C126.012 73.969 124.742 74.459 123.543 75.0927Z" fill="#FFCA42"/>
<path d="M211.967 28.6427L213.868 27.21C213.468 27.3034 213.093 27.4791 212.766 27.7258C212.438 27.9726 212.166 28.2849 211.967 28.6427Z" fill="#FFCA42"/>
<path d="M145.633 102.351L140.883 105.931C142.672 105.037 144.282 103.823 145.633 102.351Z" fill="#FFCA42"/>
<path d="M189.453 82.6635C189.317 82.7603 189.202 82.8833 189.114 83.0252C189.026 83.1672 188.968 83.3252 188.942 83.4899L190.52 82.3015C190.139 82.328 189.771 82.4527 189.453 82.6635Z" fill="#FFCA42"/>
</g>
<defs>
<clipPath id="clip0_25_25818">
<rect width="232" height="108" fill="white"/>
</clipPath>
</defs>
</svg>
