<svg width="386" height="97" viewBox="0 0 386 97" fill="none" xmlns="http://www.w3.org/2000/svg">
<path d="M0 8C0 3.58172 3.58172 0 8 0H378C382.418 0 386 3.58172 386 8V89C386 93.4183 382.418 97 378 97H7.99999C3.58172 97 0 93.4183 0 89V8Z" fill="#133D5B"/>
<path d="M325.744 50.6699H313.299C313.311 51.6074 313.457 52.4336 313.738 53.1484C314.02 53.8633 314.418 54.4727 314.934 54.9766C315.449 55.4688 316.064 55.8496 316.779 56.1191C317.506 56.3887 318.309 56.5234 319.188 56.5234C320.418 56.5234 321.484 56.2715 322.387 55.7676C323.289 55.2637 323.986 54.4844 324.479 53.4297L326.605 53.7637C326.066 55.252 325.117 56.3945 323.758 57.1914C322.41 57.9766 320.752 58.3691 318.783 58.3691C317.459 58.3691 316.27 58.1699 315.215 57.7715C314.16 57.373 313.264 56.8105 312.525 56.084C311.799 55.3574 311.242 54.5078 310.855 53.5352C310.469 52.5508 310.275 51.4316 310.275 50.1777C310.275 48.9121 310.475 47.7754 310.873 46.7676C311.271 45.748 311.834 44.875 312.561 44.1484C313.287 43.4219 314.16 42.8594 315.18 42.4609C316.211 42.0625 317.354 41.8633 318.607 41.8633C319.873 41.8633 321.01 42.0566 322.018 42.4434C323.025 42.8184 323.881 43.3691 324.584 44.0957C325.287 44.8223 325.826 45.707 326.201 46.75C326.588 47.793 326.787 48.9941 326.799 50.3535L325.744 50.6699ZM323.951 49.0879C323.811 47.3184 323.283 45.9766 322.369 45.0625C321.455 44.1484 320.213 43.6914 318.643 43.6914C317.904 43.6914 317.23 43.8203 316.621 44.0781C316.012 44.3242 315.479 44.6758 315.021 45.1328C314.564 45.5781 314.189 46.1289 313.896 46.7852C313.615 47.4414 313.422 48.209 313.316 49.0879H323.951Z" fill="#F9F9F9"/>
<path d="M298.094 43.6914C297.297 43.6914 296.57 43.8438 295.914 44.1484C295.258 44.4414 294.695 44.8633 294.227 45.4141C293.77 45.9648 293.412 46.6445 293.154 47.4531C292.908 48.25 292.785 49.123 292.785 50.0723C292.785 51.0215 292.908 51.877 293.154 52.6387C293.412 53.3887 293.77 54.0332 294.227 54.5723C294.695 55.1113 295.258 55.5273 295.914 55.8203C296.57 56.1016 297.309 56.2422 298.129 56.2422C298.938 56.2422 299.67 56.0898 300.326 55.7852C300.982 55.4805 301.539 55.0527 301.996 54.502C302.465 53.9512 302.828 53.2891 303.086 52.5156C303.344 51.7422 303.473 50.8809 303.473 49.9316C303.473 49.0176 303.344 48.1797 303.086 47.418C302.828 46.6445 302.465 45.9824 301.996 45.4316C301.527 44.8691 300.959 44.4414 300.291 44.1484C299.635 43.8438 298.902 43.6914 298.094 43.6914ZM303.596 42.1973C304.123 42.2207 304.645 42.2441 305.16 42.2676C305.676 42.2793 306.197 42.2852 306.725 42.2852C307.182 42.2852 307.58 42.2852 307.92 42.2852C308.271 42.2734 308.617 42.2676 308.957 42.2676V43.832C308.312 43.832 307.809 43.8555 307.445 43.9023C307.094 43.9375 306.83 44.0078 306.654 44.1133C306.49 44.207 306.391 44.3418 306.355 44.5176C306.32 44.6816 306.303 44.8984 306.303 45.168V56.9102C306.303 58.5508 306.104 59.9219 305.705 61.0234C305.318 62.125 304.756 63.0039 304.018 63.6602C303.291 64.3281 302.4 64.7969 301.346 65.0664C300.303 65.3477 299.119 65.4883 297.795 65.4883C296.553 65.4883 295.375 65.3535 294.262 65.084C293.148 64.8262 292.111 64.4219 291.15 63.8711L291.291 60.1797C291.314 60.1914 291.414 60.1973 291.59 60.1973C291.707 60.1973 291.842 60.1973 291.994 60.1973C292.158 60.1973 292.305 60.1914 292.434 60.1797C292.586 60.1797 292.744 60.1738 292.908 60.1621C293.014 60.8652 293.195 61.4453 293.453 61.9023C293.723 62.3594 294.062 62.7227 294.473 62.9922C294.895 63.2617 295.381 63.4492 295.932 63.5547C296.494 63.6719 297.121 63.7305 297.812 63.7305C298.551 63.7305 299.254 63.6309 299.922 63.4316C300.602 63.2441 301.193 62.9395 301.697 62.5176C302.213 62.0957 302.623 61.5449 302.928 60.8652C303.232 60.1855 303.385 59.3535 303.385 58.3691V55.1348C302.717 56.0723 301.873 56.7871 300.854 57.2793C299.846 57.7598 298.703 58 297.426 58C296.266 58 295.211 57.8125 294.262 57.4375C293.324 57.0508 292.516 56.5117 291.836 55.8203C291.168 55.1289 290.646 54.2969 290.271 53.3242C289.908 52.3398 289.727 51.25 289.727 50.0547C289.727 48.8477 289.914 47.7402 290.289 46.7324C290.676 45.7246 291.209 44.8633 291.889 44.1484C292.568 43.4219 293.383 42.8594 294.332 42.4609C295.281 42.0625 296.33 41.8633 297.479 41.8633C298.791 41.8633 299.957 42.1387 300.977 42.6895C301.996 43.2285 302.869 44.0254 303.596 45.0801V42.1973Z" fill="#F9F9F9"/>
<path d="M286.141 54.0625C286.141 54.6719 286.158 55.1406 286.193 55.4688C286.24 55.7852 286.322 56.0195 286.439 56.1719C286.557 56.3125 286.721 56.3945 286.932 56.418C287.154 56.4297 287.441 56.4355 287.793 56.4355H288.584V58C287.658 58 286.738 58.0059 285.824 58.0176C284.922 58.0293 284.078 58.0469 283.293 58.0703V55.6621C282.59 56.5645 281.752 57.2441 280.779 57.7012C279.818 58.1465 278.693 58.3691 277.404 58.3691C276.561 58.3691 275.799 58.2461 275.119 58C274.439 57.7656 273.859 57.4375 273.379 57.0156C272.898 56.5938 272.523 56.0898 272.254 55.5039C271.996 54.918 271.867 54.2734 271.867 53.5703C271.867 52.8203 272.02 52.1406 272.324 51.5312C272.629 50.9102 273.074 50.3828 273.66 49.9492C274.246 49.5156 274.955 49.1816 275.787 48.9473C276.631 48.7012 277.592 48.5781 278.67 48.5781C279.408 48.5781 280.152 48.6367 280.902 48.7539C281.652 48.8594 282.414 49.0117 283.188 49.2109V46.6797C283.188 45.6133 282.83 44.7988 282.115 44.2363C281.412 43.6738 280.328 43.3926 278.863 43.3926C277.633 43.3926 276.666 43.6328 275.963 44.1133C275.271 44.582 274.809 45.3145 274.574 46.3105L272.957 46.1172L273.186 43.0234C273.936 42.6836 274.809 42.4082 275.805 42.1973C276.812 41.9746 277.943 41.8633 279.197 41.8633C280.439 41.8633 281.5 41.9746 282.379 42.1973C283.258 42.4199 283.973 42.7598 284.523 43.2168C285.086 43.6738 285.496 44.2598 285.754 44.9746C286.012 45.6777 286.141 46.5098 286.141 47.4707V54.0625ZM279.338 50.0547C278.635 50.0547 278.002 50.1367 277.439 50.3008C276.877 50.4531 276.396 50.6758 275.998 50.9688C275.611 51.2617 275.312 51.6191 275.102 52.041C274.891 52.4629 274.785 52.9434 274.785 53.4824C274.785 53.9629 274.867 54.3906 275.031 54.7656C275.207 55.1289 275.447 55.4395 275.752 55.6973C276.068 55.9551 276.443 56.1602 276.877 56.3125C277.311 56.4648 277.785 56.5352 278.301 56.5234C278.863 56.5352 279.432 56.4531 280.006 56.2773C280.592 56.0898 281.119 55.832 281.588 55.5039C282.057 55.1641 282.438 54.7422 282.73 54.2383C283.035 53.7227 283.188 53.1074 283.188 52.3926V50.6699C282.484 50.4707 281.816 50.3184 281.184 50.2129C280.551 50.1074 279.936 50.0547 279.338 50.0547Z" fill="#F9F9F9"/>
<path d="M253.41 48.6309C253.41 47.8574 253.369 47.166 253.287 46.5566C253.217 45.9355 253.07 45.4082 252.848 44.9746C252.625 44.541 252.309 44.2188 251.898 44.0078C251.488 43.7969 250.949 43.6914 250.281 43.6914C249.719 43.6914 249.215 43.7676 248.77 43.9199C248.324 44.0723 247.914 44.2773 247.539 44.5352C247.164 44.793 246.807 45.0859 246.467 45.4141C246.139 45.7422 245.793 46.1055 245.43 46.5039V53.9043C245.43 54.5723 245.424 55.082 245.412 55.4336C245.412 55.7852 245.488 56.0371 245.641 56.1895C245.805 56.3301 246.068 56.4062 246.432 56.418C246.807 56.4297 247.346 56.4355 248.049 56.4355V58C247.744 58 247.445 58 247.152 58C246.859 58 246.555 58 246.238 58C245.922 58 245.588 58 245.236 58C244.885 57.9883 244.498 57.9766 244.076 57.9648C243.221 57.9648 242.465 57.9707 241.809 57.9824C241.152 57.9941 240.496 58 239.84 58V56.4355C240.484 56.4355 240.982 56.418 241.334 56.3828C241.686 56.3359 241.943 56.2773 242.107 56.207C242.271 56.125 242.365 56.0254 242.389 55.9082C242.424 55.7793 242.441 55.627 242.441 55.4512V44.6406C242.441 44.4531 242.395 44.3066 242.301 44.2012C242.219 44.084 242.078 44.002 241.879 43.9551C241.68 43.8965 241.416 43.8613 241.088 43.8496C240.771 43.8379 240.385 43.832 239.928 43.832V42.2676C240.162 42.2676 240.391 42.2734 240.613 42.2852C240.848 42.2852 241.129 42.2852 241.457 42.2852C242.09 42.2852 242.717 42.2793 243.338 42.2676C243.971 42.2441 244.604 42.2207 245.236 42.1973V44.7988C246.021 43.873 246.936 43.1582 247.979 42.6543C249.021 42.1504 250.17 41.8867 251.424 41.8633C252.467 41.8633 253.393 42.1211 254.201 42.6367C255.021 43.1523 255.637 43.9023 256.047 44.8867C256.902 43.9258 257.857 43.1816 258.912 42.6543C259.967 42.127 261.092 41.8633 262.287 41.8633C263.354 41.8867 264.215 42.0742 264.871 42.4258C265.539 42.7773 266.049 43.2695 266.4 43.9023C266.764 44.5352 267.004 45.2969 267.121 46.1875C267.25 47.0781 267.32 48.0742 267.332 49.1758V55.627C267.332 55.8262 267.373 55.9785 267.455 56.084C267.537 56.1777 267.672 56.248 267.859 56.2949C268.059 56.3418 268.316 56.3711 268.633 56.3828C268.949 56.3828 269.342 56.3887 269.811 56.4004V58C269.154 58 268.498 57.9941 267.842 57.9824C267.197 57.9707 266.453 57.9648 265.609 57.9648C265.199 57.9648 264.824 57.9707 264.484 57.9824C264.145 57.9824 263.822 57.9824 263.518 57.9824C263.213 57.9824 262.914 57.9883 262.621 58C262.328 58 262.029 58 261.725 58V56.4004C262.229 56.3887 262.65 56.377 262.99 56.3652C263.33 56.3418 263.6 56.3008 263.799 56.2422C263.998 56.1719 264.139 56.0781 264.221 55.9609C264.314 55.832 264.361 55.6504 264.361 55.416V48.6309C264.361 47.7988 264.32 47.0723 264.238 46.4512C264.156 45.8301 263.998 45.3145 263.764 44.9043C263.541 44.4824 263.225 44.1777 262.814 43.9902C262.404 43.791 261.871 43.6914 261.215 43.6914C260.641 43.6914 260.125 43.7852 259.668 43.9727C259.211 44.1484 258.789 44.3711 258.402 44.6406C258.016 44.8984 257.658 45.1914 257.33 45.5195C257.014 45.8359 256.721 46.1758 256.451 46.5391C256.428 46.9609 256.41 47.3887 256.398 47.8223C256.387 48.2559 256.381 48.7012 256.381 49.1582V55.5742C256.381 55.7852 256.416 55.9492 256.486 56.0664C256.568 56.1719 256.697 56.2539 256.873 56.3125C257.061 56.3594 257.312 56.3887 257.629 56.4004C257.957 56.4121 258.367 56.4238 258.859 56.4355V58C258.566 58 258.279 58 257.998 58C257.717 58 257.424 58 257.119 58C256.826 58 256.51 58 256.17 58C255.83 57.9883 255.455 57.9766 255.045 57.9648C254.611 57.9648 254.207 57.9707 253.832 57.9824C253.469 57.9824 253.117 57.9824 252.777 57.9824C252.438 57.9824 252.104 57.9883 251.775 58C251.459 58 251.137 58 250.809 58V56.4355C251.301 56.4238 251.711 56.4121 252.039 56.4004C252.379 56.377 252.648 56.3359 252.848 56.2773C253.059 56.207 253.205 56.1074 253.287 55.9785C253.369 55.8496 253.41 55.6797 253.41 55.4688V48.6309Z" fill="#F9F9F9"/>
<path d="M233.934 34.8848C234.52 34.8848 234.982 35.0312 235.322 35.3242C235.662 35.6055 235.832 35.998 235.832 36.502C235.832 37.0176 235.662 37.4277 235.322 37.7324C234.994 38.0254 234.531 38.1719 233.934 38.1719C233.348 38.1719 232.891 38.0254 232.562 37.7324C232.234 37.4395 232.07 37.0293 232.07 36.502C232.07 35.998 232.234 35.6055 232.562 35.3242C232.891 35.0312 233.348 34.8848 233.934 34.8848ZM235.779 55.2578C235.779 55.5391 235.826 55.7617 235.92 55.9258C236.014 56.0781 236.166 56.1953 236.377 56.2773C236.588 56.3477 236.857 56.3945 237.186 56.418C237.525 56.4297 237.936 56.4355 238.416 56.4355V58C238.111 58 237.701 58 237.186 58C236.67 57.9883 236.154 57.9824 235.639 57.9824C235.123 57.9824 234.666 57.9824 234.268 57.9824C233.869 57.9707 233.635 57.9648 233.564 57.9648C232.896 57.9648 232.305 57.9707 231.789 57.9824C231.285 57.9941 230.764 58 230.225 58V56.4355C230.857 56.4355 231.35 56.418 231.701 56.3828C232.053 56.3477 232.311 56.2891 232.475 56.207C232.65 56.125 232.75 56.0137 232.773 55.873C232.809 55.7207 232.826 55.5273 232.826 55.293V44.4648C232.826 44.3008 232.779 44.1777 232.686 44.0957C232.604 44.0137 232.463 43.9551 232.264 43.9199C232.064 43.873 231.801 43.8496 231.473 43.8496C231.156 43.8379 230.77 43.832 230.312 43.832V42.2676C231.309 42.2676 232.246 42.2617 233.125 42.25C234.004 42.2383 234.889 42.2148 235.779 42.1797V55.2578Z" fill="#F9F9F9"/>
<path d="M215.775 41.8633H213.701C213.596 41.0781 213.367 40.3809 213.016 39.7715C212.664 39.1504 212.195 38.6289 211.609 38.207C211.035 37.7852 210.35 37.4629 209.553 37.2402C208.768 37.0176 207.889 36.9062 206.916 36.9062C205.568 36.9062 204.355 37.1348 203.277 37.5918C202.211 38.0371 201.303 38.6816 200.553 39.5254C199.803 40.3574 199.229 41.3711 198.83 42.5664C198.432 43.7617 198.232 45.1094 198.232 46.6094C198.232 48.1328 198.432 49.498 198.83 50.7051C199.24 51.9121 199.826 52.9375 200.588 53.7812C201.35 54.6133 202.275 55.252 203.365 55.6973C204.467 56.1426 205.715 56.3652 207.109 56.3652C209.289 56.3652 210.936 56.0488 212.049 55.416C213.162 54.7715 213.719 53.7871 213.719 52.4629V50.1426C213.719 49.9082 213.701 49.7324 213.666 49.6152C213.631 49.4863 213.537 49.3926 213.385 49.334C213.244 49.2754 213.021 49.2461 212.717 49.2461C212.412 49.2344 211.996 49.2285 211.469 49.2285H209.271V47.3828C209.658 47.3828 210.039 47.3887 210.414 47.4004C210.801 47.4004 211.211 47.4004 211.645 47.4004C212.09 47.4004 212.564 47.4062 213.068 47.418C213.584 47.418 214.158 47.418 214.791 47.418C215.014 47.418 215.283 47.418 215.6 47.418C215.916 47.4062 216.238 47.4004 216.566 47.4004C216.906 47.4004 217.234 47.4004 217.551 47.4004C217.879 47.3887 218.166 47.3828 218.412 47.3828C218.412 47.4062 218.406 47.5117 218.395 47.6992C218.383 47.875 218.371 48.0742 218.359 48.2969C218.359 48.5078 218.354 48.707 218.342 48.8945C218.33 49.0703 218.324 49.1699 218.324 49.1934C217.797 49.2051 217.387 49.2285 217.094 49.2637C216.801 49.2871 216.584 49.334 216.443 49.4043C216.303 49.4746 216.215 49.5684 216.18 49.6855C216.156 49.791 216.145 49.9375 216.145 50.125C216.145 50.7578 216.109 51.5254 216.039 52.4277C215.98 53.3184 215.922 54.2383 215.863 55.1875C215.219 55.8438 214.533 56.3828 213.807 56.8047C213.092 57.2266 212.359 57.5605 211.609 57.8066C210.871 58.041 210.127 58.1992 209.377 58.2812C208.627 58.375 207.9 58.4219 207.197 58.4219C205.158 58.4219 203.365 58.1465 201.818 57.5957C200.271 57.0332 198.971 56.2422 197.916 55.2227C196.873 54.1914 196.088 52.9551 195.561 51.5137C195.033 50.0605 194.77 48.4434 194.77 46.6621C194.77 44.9277 195.057 43.3398 195.631 41.8984C196.205 40.4453 197.002 39.2031 198.021 38.1719C199.041 37.1289 200.254 36.3203 201.66 35.7461C203.066 35.1719 204.602 34.8848 206.266 34.8848C207.66 34.8848 208.967 35.0898 210.186 35.5C211.416 35.8984 212.488 36.5371 213.402 37.416L213.578 35.6055H215.775V41.8633Z" fill="#F9F9F9"/>
<path d="M183.766 35.3242C185.207 35.3242 186.449 35.4824 187.492 35.7988C188.535 36.1152 189.396 36.5605 190.076 37.1348C190.756 37.709 191.26 38.4004 191.588 39.209C191.916 40.0059 192.08 40.8848 192.08 41.8457C192.08 42.8066 191.928 43.6855 191.623 44.4824C191.318 45.2676 190.832 45.9473 190.164 46.5215C189.508 47.084 188.652 47.5234 187.598 47.8398C186.555 48.1562 185.289 48.3145 183.801 48.3145H179.723V54.9062C179.723 55.2344 179.758 55.4922 179.828 55.6797C179.898 55.8555 180.021 55.9902 180.197 56.084C180.373 56.166 180.602 56.2188 180.883 56.2422C181.164 56.2539 181.516 56.2598 181.938 56.2598H182.834V58C182.518 58 182.213 58 181.92 58C181.627 57.9883 181.322 57.9824 181.006 57.9824C180.701 57.9824 180.367 57.9824 180.004 57.9824C179.652 57.9707 179.248 57.9648 178.791 57.9648C177.713 57.9648 176.752 57.9707 175.908 57.9824C175.064 57.9941 174.232 58 173.412 58V56.2598H174.326C174.865 56.2598 175.281 56.2305 175.574 56.1719C175.867 56.1016 176.084 56.0078 176.225 55.8906C176.365 55.7734 176.447 55.627 176.471 55.4512C176.494 55.2754 176.506 55.0703 176.506 54.8359V38.207C176.506 37.9375 176.471 37.7266 176.4 37.5742C176.33 37.4219 176.184 37.3105 175.961 37.2402C175.75 37.1582 175.439 37.1113 175.029 37.0996C174.619 37.0762 174.08 37.0645 173.412 37.0645V35.3242H183.766ZM179.723 46.5039H183.08C185.061 46.5039 186.525 46.1289 187.475 45.3789C188.436 44.6172 188.916 43.457 188.916 41.8984C188.916 41.1367 188.811 40.4629 188.6 39.877C188.389 39.291 188.055 38.7988 187.598 38.4004C187.141 38.002 186.549 37.7031 185.822 37.5039C185.096 37.293 184.211 37.1875 183.168 37.1875H179.723V46.5039Z" fill="#F9F9F9"/>
<path d="M162.496 35.3242C162.812 35.3242 163.129 35.3301 163.445 35.3418C163.773 35.3418 164.131 35.3477 164.518 35.3594C164.904 35.3594 165.332 35.3652 165.801 35.377C166.27 35.377 166.814 35.377 167.436 35.377C167.482 35.377 167.67 35.377 167.998 35.377C168.338 35.3652 168.73 35.3594 169.176 35.3594C169.621 35.3477 170.078 35.3418 170.547 35.3418C171.027 35.3301 171.426 35.3242 171.742 35.3242V37.0645H170.266C169.844 37.0645 169.516 37.1055 169.281 37.1875C169.059 37.2578 168.895 37.3574 168.789 37.4863C168.684 37.6152 168.619 37.7676 168.596 37.9434C168.584 38.1074 168.578 38.2832 168.578 38.4707V53.1133C168.578 54.6836 168.496 56.0312 168.332 57.1562C168.18 58.2695 167.875 59.1836 167.418 59.8984C166.961 60.6133 166.311 61.1406 165.467 61.4805C164.623 61.8203 163.516 61.9902 162.145 61.9902C161.477 61.9902 160.855 61.9492 160.281 61.8672C159.719 61.7852 159.18 61.668 158.664 61.5156V57.2617C158.676 57.2617 158.775 57.2734 158.963 57.2969C159.139 57.3203 159.332 57.3438 159.543 57.3672C159.754 57.3906 159.947 57.4141 160.123 57.4375C160.311 57.4492 160.41 57.4551 160.422 57.4551C160.492 57.9238 160.574 58.3105 160.668 58.6152C160.773 58.9316 160.902 59.1777 161.055 59.3535C161.219 59.541 161.412 59.6699 161.635 59.7402C161.857 59.8223 162.121 59.8633 162.426 59.8633C163.105 59.793 163.639 59.5938 164.025 59.2656C164.424 58.9492 164.723 58.5273 164.922 58C165.121 57.4727 165.244 56.8516 165.291 56.1367C165.338 55.4219 165.361 54.6367 165.361 53.7812V38.4883C165.361 38.2656 165.35 38.0664 165.326 37.8906C165.314 37.7148 165.256 37.5684 165.15 37.4512C165.045 37.3223 164.875 37.2285 164.641 37.1699C164.406 37.0996 164.072 37.0645 163.639 37.0645H161.846V35.3242H162.496Z" fill="#F9F9F9"/>
<path d="M144.145 37.8203V42.2676H148.363V43.832H144.162V52.6387C144.162 53.2363 144.168 53.7754 144.18 54.2559C144.191 54.7246 144.244 55.1289 144.338 55.4688C144.443 55.8086 144.607 56.0723 144.83 56.2598C145.053 56.4355 145.375 56.5234 145.797 56.5234C145.961 56.5234 146.125 56.4941 146.289 56.4355C146.453 56.3652 146.594 56.2539 146.711 56.1016C146.84 55.9492 146.939 55.7559 147.01 55.5215C147.092 55.2754 147.133 54.9766 147.133 54.625L148.732 54.4668C148.732 55.1582 148.633 55.75 148.434 56.2422C148.246 56.7344 147.988 57.1387 147.66 57.4551C147.344 57.7598 146.969 57.9883 146.535 58.1406C146.102 58.293 145.645 58.3691 145.164 58.3691C144.344 58.3691 143.676 58.2344 143.16 57.9648C142.656 57.6953 142.258 57.3262 141.965 56.8574C141.684 56.377 141.49 55.791 141.385 55.0996C141.279 54.4082 141.227 53.6406 141.227 52.7969V43.832H138.344V42.4434C138.637 42.4316 138.965 42.4141 139.328 42.3906C139.691 42.3555 140.037 42.3262 140.365 42.3027C140.752 42.2676 141.139 42.2324 141.525 42.1973C141.537 42.1152 141.555 41.9688 141.578 41.7578C141.602 41.5352 141.625 41.2832 141.648 41.002C141.672 40.709 141.701 40.4102 141.736 40.1055C141.771 39.7891 141.801 39.502 141.824 39.2441C141.848 38.9746 141.865 38.752 141.877 38.5762C141.9 38.3887 141.912 38.2891 141.912 38.2773L144.145 37.8203Z" fill="#F9F9F9"/>
<path d="M136.34 47.875H134.617C134.559 46.457 134.137 45.4082 133.352 44.7285C132.578 44.0371 131.506 43.6914 130.135 43.6914C129.303 43.6914 128.559 43.8438 127.902 44.1484C127.246 44.4414 126.689 44.8633 126.232 45.4141C125.787 45.9648 125.441 46.6387 125.195 47.4355C124.961 48.2324 124.844 49.1289 124.844 50.125C124.844 51.1328 124.967 52.0176 125.213 52.7793C125.459 53.5293 125.811 54.1914 126.268 54.7656C126.736 55.3281 127.299 55.7617 127.955 56.0664C128.611 56.3711 129.35 56.5234 130.17 56.5234C131.342 56.5234 132.32 56.2363 133.105 55.6621C133.902 55.0879 134.459 54.2266 134.775 53.0781L136.832 53.4297C136.645 54.2383 136.346 54.959 135.936 55.5918C135.537 56.2129 135.039 56.7168 134.441 57.1035C133.844 57.4902 133.158 57.7949 132.385 58.0176C131.611 58.252 130.762 58.3691 129.836 58.3691C128.605 58.3691 127.492 58.1758 126.496 57.7891C125.5 57.3906 124.65 56.8516 123.947 56.1719C123.244 55.4922 122.699 54.6484 122.312 53.6406C121.926 52.6211 121.732 51.4902 121.732 50.248C121.732 49.0762 121.92 47.9863 122.295 46.9785C122.67 45.959 123.197 45.0742 123.877 44.3242C124.568 43.5742 125.383 42.9766 126.32 42.5312C127.27 42.0859 128.318 41.8633 129.467 41.8633C129.936 41.8633 130.398 41.8926 130.855 41.9512C131.312 42.0098 131.746 42.1094 132.156 42.25C132.578 42.3906 132.965 42.584 133.316 42.8301C133.68 43.0762 134.002 43.3809 134.283 43.7441L134.723 42.3555C134.77 42.3555 134.869 42.3613 135.021 42.373C135.186 42.373 135.355 42.373 135.531 42.373C135.707 42.373 135.871 42.3789 136.023 42.3906C136.188 42.3906 136.293 42.3906 136.34 42.3906V47.875Z" fill="#F9F9F9"/>
<path d="M117.865 50.6699H105.42C105.432 51.6074 105.578 52.4336 105.859 53.1484C106.141 53.8633 106.539 54.4727 107.055 54.9766C107.57 55.4688 108.186 55.8496 108.9 56.1191C109.627 56.3887 110.43 56.5234 111.309 56.5234C112.539 56.5234 113.605 56.2715 114.508 55.7676C115.41 55.2637 116.107 54.4844 116.6 53.4297L118.727 53.7637C118.188 55.252 117.238 56.3945 115.879 57.1914C114.531 57.9766 112.873 58.3691 110.904 58.3691C109.58 58.3691 108.391 58.1699 107.336 57.7715C106.281 57.373 105.385 56.8105 104.646 56.084C103.92 55.3574 103.363 54.5078 102.977 53.5352C102.59 52.5508 102.396 51.4316 102.396 50.1777C102.396 48.9121 102.596 47.7754 102.994 46.7676C103.393 45.748 103.955 44.875 104.682 44.1484C105.408 43.4219 106.281 42.8594 107.301 42.4609C108.332 42.0625 109.475 41.8633 110.729 41.8633C111.994 41.8633 113.131 42.0566 114.139 42.4434C115.146 42.8184 116.002 43.3691 116.705 44.0957C117.408 44.8223 117.947 45.707 118.322 46.75C118.709 47.793 118.908 48.9941 118.92 50.3535L117.865 50.6699ZM116.072 49.0879C115.932 47.3184 115.404 45.9766 114.49 45.0625C113.576 44.1484 112.334 43.6914 110.764 43.6914C110.025 43.6914 109.352 43.8203 108.742 44.0781C108.133 44.3242 107.6 44.6758 107.143 45.1328C106.686 45.5781 106.311 46.1289 106.018 46.7852C105.736 47.4414 105.543 48.209 105.438 49.0879H116.072Z" fill="#F9F9F9"/>
<path d="M97.5977 55.2051C97.5977 55.498 97.6504 55.7266 97.7559 55.8906C97.873 56.0547 98.043 56.1777 98.2656 56.2598C98.5 56.3418 98.7812 56.3945 99.1094 56.418C99.4492 56.4297 99.8477 56.4355 100.305 56.4355V58C99.9766 58 99.6543 58 99.3379 58C99.0215 58 98.6934 58 98.3535 58C98.0254 58 97.6797 58 97.3164 58C96.9531 57.9883 96.5547 57.9766 96.1211 57.9648C95.6992 57.9648 95.3066 57.9707 94.9434 57.9824C94.5801 57.9824 94.2344 57.9824 93.9062 57.9824C93.5781 57.9824 93.2617 57.9883 92.957 58C92.6523 58 92.3418 58 92.0254 58C92.0254 57.9062 92.0254 57.7891 92.0254 57.6484C92.0254 57.5078 92.0195 57.3672 92.0078 57.2266C92.0078 57.0742 92.0078 56.9277 92.0078 56.7871C92.0078 56.6465 92.0078 56.5293 92.0078 56.4355C92.6758 56.4355 93.1855 56.4062 93.5371 56.3477C93.9004 56.2891 94.1641 56.2012 94.3281 56.084C94.4922 55.9668 94.5859 55.8203 94.6094 55.6445C94.6445 55.4688 94.6621 55.2578 94.6621 55.0117V37.75C94.6621 37.5391 94.6035 37.375 94.4863 37.2578C94.3809 37.1406 94.2168 37.0586 93.9941 37.0117C93.7715 36.9531 93.502 36.918 93.1855 36.9062C92.8691 36.8945 92.5059 36.8828 92.0957 36.8711V35.2891C93.0215 35.2891 93.918 35.2832 94.7852 35.2715C95.6523 35.2598 96.5898 35.2422 97.5977 35.2188V55.2051Z" fill="#F9F9F9"/>
<path d="M88.8613 50.6699H76.416C76.4277 51.6074 76.5742 52.4336 76.8555 53.1484C77.1367 53.8633 77.5352 54.4727 78.0508 54.9766C78.5664 55.4688 79.1816 55.8496 79.8965 56.1191C80.623 56.3887 81.4258 56.5234 82.3047 56.5234C83.5352 56.5234 84.6016 56.2715 85.5039 55.7676C86.4062 55.2637 87.1035 54.4844 87.5957 53.4297L89.7227 53.7637C89.1836 55.252 88.2344 56.3945 86.875 57.1914C85.5273 57.9766 83.8691 58.3691 81.9004 58.3691C80.5762 58.3691 79.3867 58.1699 78.332 57.7715C77.2773 57.373 76.3809 56.8105 75.6426 56.084C74.916 55.3574 74.3594 54.5078 73.9727 53.5352C73.5859 52.5508 73.3926 51.4316 73.3926 50.1777C73.3926 48.9121 73.5918 47.7754 73.9902 46.7676C74.3887 45.748 74.9512 44.875 75.6777 44.1484C76.4043 43.4219 77.2773 42.8594 78.2969 42.4609C79.3281 42.0625 80.4707 41.8633 81.7246 41.8633C82.9902 41.8633 84.127 42.0566 85.1348 42.4434C86.1426 42.8184 86.998 43.3691 87.7012 44.0957C88.4043 44.8223 88.9434 45.707 89.3184 46.75C89.7051 47.793 89.9043 48.9941 89.916 50.3535L88.8613 50.6699ZM87.0684 49.0879C86.9277 47.3184 86.4004 45.9766 85.4863 45.0625C84.5723 44.1484 83.3301 43.6914 81.7598 43.6914C81.0215 43.6914 80.3477 43.8203 79.7383 44.0781C79.1289 44.3242 78.5957 44.6758 78.1387 45.1328C77.6816 45.5781 77.3066 46.1289 77.0137 46.7852C76.7324 47.4414 76.5391 48.209 76.4336 49.0879H87.0684Z" fill="#F9F9F9"/>
<path d="M69.332 41.459H67.2754C67.2637 41.3301 67.252 41.207 67.2402 41.0898C67.2402 40.9727 67.2402 40.8555 67.2402 40.7383C67.2168 40.1289 67.0703 39.5781 66.8008 39.0859C66.5312 38.5938 66.1504 38.1777 65.6582 37.8379C65.1777 37.498 64.6035 37.2344 63.9355 37.0469C63.2676 36.8594 62.5234 36.7656 61.7031 36.7656C60.9648 36.7656 60.2969 36.8594 59.6992 37.0469C59.1133 37.2227 58.6152 37.4746 58.2051 37.8027C57.7949 38.1309 57.4785 38.5234 57.2559 38.9805C57.0449 39.4258 56.9395 39.9121 56.9395 40.4395C56.9395 41.002 57.0508 41.4883 57.2734 41.8984C57.4961 42.3086 57.8008 42.6719 58.1875 42.9883C58.5742 43.3047 59.0312 43.5859 59.5586 43.832C60.0977 44.0664 60.6777 44.2949 61.2988 44.5176C61.9199 44.7285 62.5762 44.9453 63.2676 45.168C63.959 45.3906 64.6562 45.6309 65.3594 45.8887C66.0859 46.1699 66.748 46.4922 67.3457 46.8555C67.9551 47.207 68.4766 47.623 68.9102 48.1035C69.3438 48.584 69.6777 49.1348 69.9121 49.7559C70.1582 50.3652 70.2812 51.0684 70.2812 51.8652C70.2812 52.791 70.0996 53.6523 69.7363 54.4492C69.3848 55.2461 68.8809 55.9434 68.2246 56.541C67.5801 57.127 66.7949 57.5898 65.8691 57.9297C64.9551 58.2578 63.9355 58.4219 62.8105 58.4219C61.2285 58.4219 59.8633 58.2051 58.7148 57.7715C57.5781 57.3262 56.6992 56.7168 56.0781 55.9434V58H53.7578V50.8281H55.8672C55.8672 51.6719 55.9785 52.4395 56.2012 53.1309C56.4238 53.8223 56.7754 54.4141 57.2559 54.9062C57.7363 55.3984 58.3516 55.7793 59.1016 56.0488C59.8633 56.3184 60.7773 56.4531 61.8438 56.4531C62.6172 56.4531 63.3262 56.3535 63.9707 56.1543C64.6152 55.9551 65.166 55.6738 65.623 55.3105C66.0918 54.9355 66.4551 54.4902 66.7129 53.9746C66.9707 53.4473 67.0996 52.8613 67.0996 52.2168C67.0996 51.373 66.8711 50.6875 66.4141 50.1602C65.957 49.6211 65.3535 49.1641 64.6035 48.7891C63.8535 48.4141 62.998 48.0801 62.0371 47.7871C61.0879 47.4824 60.1211 47.1426 59.1367 46.7676C58.2695 46.4395 57.5078 46.0879 56.8516 45.7129C56.1953 45.3262 55.6445 44.8984 55.1992 44.4297C54.7656 43.9609 54.4375 43.4336 54.2148 42.8477C53.9922 42.2617 53.8809 41.5996 53.8809 40.8613C53.8809 40.0293 54.0449 39.25 54.373 38.5234C54.7012 37.7969 55.1758 37.1699 55.7969 36.6426C56.418 36.1035 57.1738 35.6816 58.0645 35.377C58.9551 35.0605 59.9629 34.9023 61.0879 34.9023C61.6621 34.9023 62.2129 34.9316 62.7402 34.9902C63.2793 35.0488 63.7949 35.1543 64.2871 35.3066C64.791 35.4473 65.2773 35.6465 65.7461 35.9043C66.2148 36.1504 66.6836 36.4727 67.1523 36.8711V35.4121C67.4336 35.4121 67.7734 35.418 68.1719 35.4297C68.5703 35.4297 68.957 35.4297 69.332 35.4297V41.459Z" fill="#F9F9F9"/>
</svg>
