<svg width="274" height="31" viewBox="0 0 274 31" fill="none" xmlns="http://www.w3.org/2000/svg">
<path d="M272.942 15.8406H260.453C260.464 16.7814 260.611 17.6105 260.894 18.3278C261.176 19.0452 261.576 19.6567 262.093 20.1624C262.611 20.6563 263.228 21.0385 263.945 21.309C264.674 21.5794 265.48 21.7147 266.362 21.7147C267.597 21.7147 268.667 21.4618 269.572 20.9562C270.478 20.4505 271.178 19.6684 271.672 18.6101L273.806 18.9452C273.265 20.4387 272.312 21.5853 270.948 22.385C269.596 23.1729 267.932 23.5669 265.956 23.5669C264.627 23.5669 263.434 23.3669 262.375 22.9671C261.317 22.5673 260.417 22.0028 259.676 21.2737C258.947 20.5446 258.389 19.692 258.001 18.7159C257.613 17.7281 257.419 16.605 257.419 15.3467C257.419 14.0766 257.618 12.9359 258.018 11.9245C258.418 10.9014 258.983 10.0253 259.712 9.29621C260.441 8.56709 261.317 8.00262 262.34 7.60278C263.375 7.20294 264.522 7.00303 265.78 7.00303C267.05 7.00303 268.191 7.19706 269.202 7.58514C270.213 7.96146 271.072 8.51417 271.777 9.24329C272.483 9.9724 273.024 10.8603 273.4 11.9069C273.788 12.9535 273.988 14.1589 274 15.5231L272.942 15.8406ZM271.142 14.253C271.001 12.4773 270.472 11.1308 269.555 10.2135C268.637 9.29621 267.391 8.83757 265.815 8.83757C265.074 8.83757 264.398 8.96693 263.787 9.22565C263.175 9.47261 262.64 9.8254 262.181 10.284C261.723 10.7309 261.346 11.2836 261.052 11.9422C260.77 12.6007 260.576 13.371 260.47 14.253H271.142Z" fill="#F9F9F9"/>
<path d="M245.194 8.83757C244.394 8.83757 243.665 8.99045 243.007 9.29621C242.348 9.59021 241.784 10.0136 241.313 10.5663C240.855 11.119 240.496 11.8011 240.237 12.6125C239.99 13.4122 239.867 14.2883 239.867 15.2408C239.867 16.1934 239.99 17.0519 240.237 17.8163C240.496 18.5689 240.855 19.2157 241.313 19.7566C241.784 20.2976 242.348 20.7151 243.007 21.0091C243.665 21.2913 244.406 21.4324 245.229 21.4324C246.041 21.4324 246.776 21.2796 247.434 20.9738C248.093 20.668 248.652 20.2388 249.11 19.6861C249.581 19.1334 249.945 18.4689 250.204 17.6928C250.463 16.9166 250.592 16.0523 250.592 15.0997C250.592 14.1825 250.463 13.3416 250.204 12.5772C249.945 11.8011 249.581 11.1366 249.11 10.5839C248.64 10.0194 248.069 9.59021 247.399 9.29621C246.741 8.99045 246.006 8.83757 245.194 8.83757ZM250.715 7.33818C251.245 7.3617 251.768 7.38522 252.285 7.40874C252.803 7.4205 253.326 7.42638 253.855 7.42638C254.314 7.42638 254.714 7.42638 255.055 7.42638C255.408 7.41462 255.755 7.40874 256.096 7.40874V8.97869C255.449 8.97869 254.943 9.00221 254.579 9.04925C254.226 9.08453 253.961 9.15509 253.785 9.26093C253.62 9.35501 253.52 9.49025 253.485 9.66665C253.45 9.83128 253.432 10.0488 253.432 10.3193V22.1027C253.432 23.7491 253.232 25.125 252.832 26.2305C252.444 27.3359 251.88 28.2179 251.139 28.8765C250.41 29.5468 249.516 30.0172 248.457 30.2876C247.411 30.5699 246.223 30.711 244.894 30.711C243.648 30.711 242.466 30.5758 241.349 30.3053C240.231 30.0466 239.191 29.6409 238.226 29.0881L238.367 25.3838C238.391 25.3955 238.491 25.4014 238.667 25.4014C238.785 25.4014 238.92 25.4014 239.073 25.4014C239.238 25.4014 239.385 25.3955 239.514 25.3838C239.667 25.3838 239.826 25.3779 239.99 25.3661C240.096 26.0717 240.278 26.6538 240.537 27.1125C240.808 27.5711 241.149 27.9357 241.56 28.2061C241.984 28.4766 242.472 28.6648 243.024 28.7706C243.589 28.8882 244.218 28.947 244.912 28.947C245.653 28.947 246.358 28.8471 247.029 28.6471C247.711 28.459 248.305 28.1532 248.81 27.7299C249.328 27.3065 249.739 26.7538 250.045 26.0717C250.351 25.3896 250.504 24.5547 250.504 23.5669V20.3211C249.833 21.2619 248.987 21.9793 247.964 22.4732C246.952 22.9553 245.806 23.1964 244.524 23.1964C243.36 23.1964 242.301 23.0083 241.349 22.6319C240.408 22.2439 239.596 21.7029 238.914 21.0091C238.244 20.3152 237.721 19.4803 237.344 18.5042C236.98 17.5164 236.798 16.4227 236.798 15.2232C236.798 14.0119 236.986 12.9006 237.362 11.8893C237.75 10.8779 238.285 10.0136 238.967 9.29621C239.649 8.56709 240.467 8.00262 241.419 7.60278C242.372 7.20294 243.424 7.00303 244.577 7.00303C245.894 7.00303 247.064 7.27938 248.087 7.8321C249.11 8.37306 249.986 9.17273 250.715 10.2311V7.33818Z" fill="#F9F9F9"/>
<path d="M233.199 19.2451C233.199 19.8566 233.217 20.327 233.252 20.6563C233.299 20.9738 233.381 21.209 233.499 21.3619C233.616 21.503 233.781 21.5853 233.993 21.6088C234.216 21.6206 234.504 21.6265 234.857 21.6265H235.651V23.1964C234.722 23.1964 233.799 23.2023 232.881 23.2141C231.976 23.2258 231.129 23.2435 230.341 23.267V20.8503C229.636 21.7558 228.795 22.4379 227.819 22.8965C226.855 23.3434 225.726 23.5669 224.432 23.5669C223.585 23.5669 222.821 23.4434 222.139 23.1964C221.457 22.9612 220.875 22.6319 220.392 22.2086C219.91 21.7852 219.534 21.2796 219.264 20.6916C219.005 20.1036 218.875 19.4568 218.875 18.7512C218.875 17.9985 219.028 17.3165 219.334 16.705C219.64 16.0817 220.087 15.5525 220.675 15.1174C221.263 14.6822 221.974 14.3471 222.809 14.1119C223.656 13.8649 224.62 13.7415 225.702 13.7415C226.443 13.7415 227.19 13.8003 227.942 13.9179C228.695 14.0237 229.459 14.1766 230.235 14.3765V11.8363C230.235 10.7662 229.877 9.94888 229.159 9.38441C228.454 8.81993 227.366 8.53769 225.896 8.53769C224.661 8.53769 223.691 8.77877 222.986 9.26093C222.292 9.73132 221.827 10.4663 221.592 11.4659L219.969 11.2719L220.198 8.16726C220.951 7.82622 221.827 7.54986 222.827 7.33818C223.838 7.11474 224.973 7.00303 226.231 7.00303C227.478 7.00303 228.542 7.11474 229.424 7.33818C230.306 7.56162 231.023 7.90266 231.576 8.3613C232.141 8.81993 232.552 9.40793 232.811 10.1253C233.07 10.8309 233.199 11.6658 233.199 12.6301V19.2451ZM226.372 15.2232C225.667 15.2232 225.032 15.3055 224.467 15.4702C223.903 15.623 223.421 15.8465 223.021 16.1405C222.633 16.4345 222.333 16.7932 222.121 17.2165C221.909 17.6399 221.804 18.122 221.804 18.663C221.804 19.1451 221.886 19.5744 222.051 19.9507C222.227 20.3152 222.468 20.6269 222.774 20.8856C223.091 21.1443 223.468 21.3501 223.903 21.503C224.338 21.6559 224.814 21.7264 225.332 21.7147C225.896 21.7264 226.466 21.6441 227.043 21.4677C227.631 21.2796 228.16 21.0208 228.63 20.6916C229.101 20.3505 229.483 19.9272 229.777 19.4215C230.083 18.9041 230.235 18.2867 230.235 17.5693V15.8406C229.53 15.6407 228.86 15.4878 228.225 15.382C227.59 15.2761 226.972 15.2232 226.372 15.2232Z" fill="#F9F9F9"/>
<path d="M200.354 13.7944C200.354 13.0182 200.312 12.3244 200.23 11.7129C200.16 11.0896 200.013 10.5604 199.789 10.1253C199.566 9.69017 199.248 9.36677 198.837 9.15509C198.425 8.94341 197.884 8.83757 197.214 8.83757C196.649 8.83757 196.144 8.91401 195.697 9.06689C195.25 9.21977 194.838 9.42557 194.462 9.68429C194.086 9.943 193.727 10.237 193.386 10.5663C193.057 10.8956 192.71 11.2601 192.345 11.6599V19.0863C192.345 19.7566 192.339 20.2682 192.327 20.621C192.327 20.9738 192.404 21.2266 192.557 21.3795C192.721 21.5206 192.986 21.5971 193.351 21.6088C193.727 21.6206 194.268 21.6265 194.973 21.6265V23.1964C194.668 23.1964 194.368 23.1964 194.074 23.1964C193.78 23.1964 193.474 23.1964 193.157 23.1964C192.839 23.1964 192.504 23.1964 192.151 23.1964C191.798 23.1847 191.41 23.1729 190.987 23.1611C190.128 23.1611 189.37 23.167 188.711 23.1788C188.053 23.1905 187.394 23.1964 186.736 23.1964V21.6265C187.382 21.6265 187.882 21.6088 188.235 21.5736C188.588 21.5265 188.846 21.4677 189.011 21.3972C189.176 21.3148 189.27 21.2149 189.293 21.0973C189.329 20.9679 189.346 20.815 189.346 20.6386V9.79012C189.346 9.60197 189.299 9.45497 189.205 9.34913C189.123 9.23153 188.982 9.14921 188.782 9.10217C188.582 9.04337 188.317 9.00809 187.988 8.99633C187.671 8.98457 187.282 8.97869 186.824 8.97869V7.40874C187.059 7.40874 187.288 7.41462 187.512 7.42638C187.747 7.42638 188.029 7.42638 188.358 7.42638C188.993 7.42638 189.623 7.4205 190.246 7.40874C190.881 7.38522 191.516 7.3617 192.151 7.33818V9.94888C192.939 9.01985 193.856 8.3025 194.903 7.79682C195.949 7.29114 197.102 7.02655 198.36 7.00303C199.407 7.00303 200.336 7.26174 201.147 7.77918C201.971 8.29662 202.588 9.04925 203 10.0371C203.858 9.07277 204.816 8.32602 205.875 7.79682C206.933 7.26762 208.062 7.00303 209.262 7.00303C210.332 7.02655 211.196 7.2147 211.855 7.5675C212.525 7.9203 213.037 8.41421 213.389 9.04925C213.754 9.68429 213.995 10.4487 214.113 11.3424C214.242 12.2362 214.313 13.2358 214.324 14.3412V20.815C214.324 21.015 214.366 21.1678 214.448 21.2737C214.53 21.3678 214.665 21.4383 214.854 21.4854C215.053 21.5324 215.312 21.5618 215.63 21.5736C215.947 21.5736 216.341 21.5794 216.812 21.5912V23.1964C216.153 23.1964 215.494 23.1905 214.836 23.1788C214.189 23.167 213.442 23.1611 212.596 23.1611C212.184 23.1611 211.808 23.167 211.467 23.1788C211.126 23.1788 210.802 23.1788 210.496 23.1788C210.191 23.1788 209.891 23.1847 209.597 23.1964C209.303 23.1964 209.003 23.1964 208.697 23.1964V21.5912C209.203 21.5794 209.626 21.5677 209.967 21.5559C210.308 21.5324 210.579 21.4912 210.779 21.4324C210.979 21.3619 211.12 21.2678 211.202 21.1502C211.296 21.0208 211.343 20.8386 211.343 20.6034V13.7944C211.343 12.9594 211.302 12.2303 211.22 11.607C211.137 10.9838 210.979 10.4663 210.743 10.0547C210.52 9.63137 210.202 9.32561 209.791 9.13745C209.379 8.93753 208.844 8.83757 208.186 8.83757C207.609 8.83757 207.092 8.93165 206.633 9.11981C206.175 9.29621 205.751 9.51965 205.363 9.79012C204.975 10.0488 204.617 10.3428 204.287 10.6721C203.97 10.9896 203.676 11.3307 203.405 11.6952C203.382 12.1186 203.364 12.5478 203.352 12.9829C203.341 13.4181 203.335 13.8649 203.335 14.3236V20.7621C203.335 20.9738 203.37 21.1384 203.441 21.256C203.523 21.3619 203.652 21.4442 203.829 21.503C204.017 21.55 204.27 21.5794 204.587 21.5912C204.916 21.603 205.328 21.6147 205.822 21.6265V23.1964C205.528 23.1964 205.24 23.1964 204.958 23.1964C204.675 23.1964 204.381 23.1964 204.076 23.1964C203.782 23.1964 203.464 23.1964 203.123 23.1964C202.782 23.1847 202.406 23.1729 201.994 23.1611C201.559 23.1611 201.153 23.167 200.777 23.1788C200.412 23.1788 200.06 23.1788 199.719 23.1788C199.377 23.1788 199.042 23.1847 198.713 23.1964C198.396 23.1964 198.072 23.1964 197.743 23.1964V21.6265C198.237 21.6147 198.648 21.603 198.978 21.5912C199.319 21.5677 199.589 21.5265 199.789 21.4677C200.001 21.3972 200.148 21.2972 200.23 21.1678C200.312 21.0385 200.354 20.868 200.354 20.6563V13.7944Z" fill="#F9F9F9"/>
<path d="M180.809 0C181.397 0 181.861 0.146999 182.202 0.440997C182.543 0.723234 182.714 1.11719 182.714 1.62287C182.714 2.1403 182.543 2.5519 182.202 2.85766C181.873 3.15166 181.408 3.29865 180.809 3.29865C180.221 3.29865 179.762 3.15166 179.433 2.85766C179.103 2.56366 178.939 2.15206 178.939 1.62287C178.939 1.11719 179.103 0.723234 179.433 0.440997C179.762 0.146999 180.221 0 180.809 0ZM182.661 20.4446C182.661 20.7268 182.708 20.9503 182.802 21.1149C182.896 21.2678 183.049 21.3854 183.261 21.4677C183.472 21.5383 183.743 21.5853 184.072 21.6088C184.413 21.6206 184.825 21.6265 185.307 21.6265V23.1964C185.001 23.1964 184.589 23.1964 184.072 23.1964C183.555 23.1847 183.037 23.1788 182.52 23.1788C182.002 23.1788 181.544 23.1788 181.144 23.1788C180.744 23.167 180.509 23.1611 180.438 23.1611C179.768 23.1611 179.174 23.167 178.657 23.1788C178.151 23.1905 177.628 23.1964 177.087 23.1964V21.6265C177.722 21.6265 178.216 21.6088 178.568 21.5736C178.921 21.5383 179.18 21.4795 179.344 21.3972C179.521 21.3148 179.621 21.2031 179.644 21.062C179.68 20.9091 179.697 20.7151 179.697 20.4799V9.61373C179.697 9.44909 179.65 9.32561 179.556 9.24329C179.474 9.16097 179.333 9.10217 179.133 9.06689C178.933 9.01985 178.668 8.99633 178.339 8.99633C178.022 8.98457 177.633 8.97869 177.175 8.97869V7.40874C178.174 7.40874 179.115 7.40286 179.997 7.3911C180.879 7.37934 181.767 7.35582 182.661 7.32054V20.4446Z" fill="#F9F9F9"/>
<path d="M162.587 7.00303H160.505C160.399 6.21511 160.17 5.5154 159.817 4.90388C159.464 4.28061 158.994 3.75729 158.406 3.33393C157.83 2.91058 157.142 2.58718 156.342 2.36374C155.554 2.1403 154.672 2.02858 153.696 2.02858C152.344 2.02858 151.127 2.2579 150.045 2.71654C148.975 3.16342 148.063 3.81021 147.311 4.65692C146.558 5.49188 145.982 6.50911 145.582 7.70862C145.182 8.90813 144.982 10.2605 144.982 11.7658C144.982 13.2946 145.182 14.6646 145.582 15.8759C145.993 17.0871 146.581 18.1161 147.346 18.9629C148.11 19.7978 149.039 20.4387 150.133 20.8856C151.238 21.3325 152.491 21.5559 153.89 21.5559C156.078 21.5559 157.73 21.2384 158.847 20.6034C159.964 19.9566 160.523 18.9687 160.523 17.6399V15.3114C160.523 15.0762 160.505 14.8998 160.47 14.7822C160.435 14.6528 160.34 14.5588 160.188 14.5C160.046 14.4412 159.823 14.4118 159.517 14.4118C159.212 14.4 158.794 14.3941 158.265 14.3941H156.06V12.5419C156.448 12.5419 156.83 12.5478 157.206 12.5596C157.595 12.5596 158.006 12.5596 158.441 12.5596C158.888 12.5596 159.364 12.5655 159.87 12.5772C160.388 12.5772 160.964 12.5772 161.599 12.5772C161.822 12.5772 162.093 12.5772 162.41 12.5772C162.728 12.5655 163.051 12.5596 163.38 12.5596C163.721 12.5596 164.051 12.5596 164.368 12.5596C164.698 12.5478 164.986 12.5419 165.233 12.5419C165.233 12.5655 165.227 12.6713 165.215 12.8595C165.203 13.0359 165.191 13.2358 165.18 13.4592C165.18 13.6709 165.174 13.8708 165.162 14.059C165.15 14.2354 165.144 14.3353 165.144 14.3588C164.615 14.3706 164.204 14.3941 163.91 14.4294C163.616 14.4529 163.398 14.5 163.257 14.5705C163.116 14.6411 163.028 14.7352 162.992 14.8528C162.969 14.9586 162.957 15.1056 162.957 15.2938C162.957 15.9288 162.922 16.6991 162.851 17.6046C162.792 18.4983 162.734 19.4215 162.675 20.374C162.028 21.0326 161.34 21.5736 160.611 21.9969C159.894 22.4203 159.159 22.7554 158.406 23.0024C157.665 23.2376 156.918 23.3963 156.166 23.4787C155.413 23.5727 154.684 23.6198 153.978 23.6198C151.932 23.6198 150.133 23.3434 148.581 22.7907C147.028 22.2262 145.723 21.4324 144.665 20.4093C143.618 19.3745 142.83 18.1338 142.301 16.6873C141.772 15.2291 141.507 13.6062 141.507 11.8187C141.507 10.0782 141.795 8.48477 142.371 7.03831C142.948 5.58008 143.747 4.33353 144.77 3.29865C145.793 2.25202 147.011 1.44059 148.422 0.864353C149.833 0.288118 151.374 0 153.043 0C154.443 0 155.754 0.205798 156.977 0.617395C158.212 1.01723 159.288 1.65815 160.205 2.54014L160.382 0.723234H162.587V7.00303Z" fill="#F9F9F9"/>
<path d="M130.464 0.440997C131.911 0.440997 133.157 0.599755 134.204 0.917273C135.251 1.23479 136.115 1.68167 136.797 2.2579C137.479 2.83414 137.985 3.52797 138.314 4.33941C138.643 5.13908 138.808 6.02107 138.808 6.98539C138.808 7.9497 138.655 8.83169 138.349 9.63137C138.044 10.4193 137.556 11.1014 136.885 11.6776C136.227 12.2421 135.368 12.6831 134.31 13.0006C133.263 13.3181 131.993 13.4769 130.5 13.4769H126.407V20.0918C126.407 20.4211 126.443 20.6798 126.513 20.868C126.584 21.0444 126.707 21.1796 126.884 21.2737C127.06 21.356 127.289 21.4089 127.571 21.4324C127.854 21.4442 128.207 21.4501 128.63 21.4501H129.53V23.1964C129.212 23.1964 128.906 23.1964 128.612 23.1964C128.318 23.1847 128.012 23.1788 127.695 23.1788C127.389 23.1788 127.054 23.1788 126.689 23.1788C126.337 23.167 125.931 23.1611 125.472 23.1611C124.39 23.1611 123.426 23.167 122.579 23.1788C121.733 23.1905 120.898 23.1964 120.075 23.1964V21.4501H120.992C121.533 21.4501 121.95 21.4207 122.244 21.3619C122.538 21.2913 122.756 21.1972 122.897 21.0796C123.038 20.962 123.12 20.815 123.144 20.6386C123.167 20.4622 123.179 20.2564 123.179 20.0212V3.33393C123.179 3.06346 123.144 2.85178 123.073 2.6989C123.003 2.54602 122.856 2.4343 122.632 2.36374C122.421 2.28142 122.109 2.23438 121.697 2.22262C121.286 2.1991 120.745 2.18734 120.075 2.18734V0.440997H130.464ZM126.407 11.6599H129.776C131.764 11.6599 133.234 11.2836 134.186 10.531C135.151 9.7666 135.633 8.60237 135.633 7.03831C135.633 6.27391 135.527 5.59772 135.315 5.00972C135.104 4.42173 134.769 3.92781 134.31 3.52797C133.851 3.12814 133.257 2.82826 132.528 2.62834C131.799 2.41666 130.911 2.31082 129.865 2.31082H126.407V11.6599Z" fill="#F9F9F9"/>
<path d="M109.12 0.440997C109.438 0.440997 109.755 0.446877 110.073 0.458636C110.402 0.458636 110.761 0.464516 111.149 0.476276C111.537 0.476276 111.966 0.482156 112.436 0.493916C112.907 0.493916 113.454 0.493916 114.077 0.493916C114.124 0.493916 114.312 0.493916 114.641 0.493916C114.983 0.482156 115.376 0.476276 115.823 0.476276C116.27 0.464516 116.729 0.458636 117.199 0.458636C117.681 0.446877 118.081 0.440997 118.399 0.440997V2.18734H116.917C116.494 2.18734 116.164 2.2285 115.929 2.31082C115.706 2.38138 115.541 2.48134 115.435 2.6107C115.329 2.74006 115.265 2.89294 115.241 3.06934C115.229 3.23397 115.224 3.41037 115.224 3.59853V18.2925C115.224 19.8684 115.141 21.2208 114.977 22.3497C114.824 23.4669 114.518 24.3842 114.059 25.1015C113.601 25.8189 112.948 26.3481 112.101 26.6891C111.255 27.0302 110.143 27.2007 108.767 27.2007C108.097 27.2007 107.474 27.1595 106.898 27.0772C106.333 26.9949 105.792 26.8773 105.275 26.7244V22.4555C105.286 22.4555 105.386 22.4673 105.575 22.4908C105.751 22.5143 105.945 22.5379 106.157 22.5614C106.368 22.5849 106.562 22.6084 106.739 22.6319C106.927 22.6437 107.027 22.6496 107.039 22.6496C107.109 23.12 107.192 23.5081 107.286 23.8138C107.391 24.1313 107.521 24.3783 107.674 24.5547C107.838 24.7428 108.032 24.8722 108.256 24.9428C108.479 25.0251 108.744 25.0662 109.05 25.0662C109.732 24.9957 110.267 24.7958 110.655 24.4665C111.055 24.149 111.355 23.7256 111.554 23.1964C111.754 22.6672 111.878 22.0439 111.925 21.3266C111.972 20.6092 111.995 19.8213 111.995 18.9629V3.61617C111.995 3.39273 111.984 3.19282 111.96 3.01642C111.948 2.84002 111.89 2.69302 111.784 2.57542C111.678 2.44606 111.507 2.35198 111.272 2.29318C111.037 2.22262 110.702 2.18734 110.267 2.18734H108.468V0.440997H109.12Z" fill="#F9F9F9"/>
<path d="M90.7042 2.94586V7.40874H94.9377V8.97869H90.7218V17.8163C90.7218 18.416 90.7277 18.957 90.7395 19.4391C90.7512 19.9095 90.8041 20.3152 90.8982 20.6563C91.0041 20.9973 91.1687 21.2619 91.3921 21.4501C91.6156 21.6265 91.939 21.7147 92.3623 21.7147C92.527 21.7147 92.6916 21.6853 92.8562 21.6265C93.0209 21.5559 93.162 21.4442 93.2796 21.2913C93.409 21.1384 93.5089 20.9444 93.5795 20.7092C93.6618 20.4622 93.703 20.1624 93.703 19.8096L95.3082 19.6508C95.3082 20.3446 95.2082 20.9385 95.0083 21.4324C94.8201 21.9264 94.5614 22.3321 94.2322 22.6496C93.9146 22.9553 93.5383 23.1847 93.1032 23.3375C92.6681 23.4904 92.2094 23.5669 91.7273 23.5669C90.9041 23.5669 90.2338 23.4316 89.7163 23.1611C89.2107 22.8907 88.8108 22.5202 88.5168 22.0498C88.2346 21.5677 88.0406 20.9797 87.9347 20.2858C87.8289 19.592 87.776 18.8217 87.776 17.975V8.97869H84.883V7.58514C85.177 7.57338 85.5063 7.55574 85.8709 7.53222C86.2354 7.49694 86.5823 7.46754 86.9116 7.44402C87.2997 7.40874 87.6878 7.37346 88.0758 7.33818C88.0876 7.25586 88.1052 7.10886 88.1288 6.89719C88.1523 6.67375 88.1758 6.42091 88.1993 6.13867C88.2228 5.84467 88.2522 5.5448 88.2875 5.23904C88.3228 4.92152 88.3522 4.6334 88.3757 4.37469C88.3992 4.10421 88.4169 3.88077 88.4286 3.70437C88.4522 3.51621 88.4639 3.41625 88.4639 3.40449L90.7042 2.94586Z" fill="#F9F9F9"/>
<path d="M82.8721 13.0359H81.1434C81.0846 11.6129 80.6612 10.5604 79.8733 9.87832C79.0971 9.18449 78.0211 8.83757 76.6452 8.83757C75.8103 8.83757 75.0635 8.99045 74.4049 9.29621C73.7464 9.59021 73.1878 10.0136 72.7292 10.5663C72.2823 11.119 71.9354 11.7952 71.6884 12.5949C71.4532 13.3945 71.3356 14.2942 71.3356 15.2938C71.3356 16.3051 71.4591 17.193 71.706 17.9574C71.953 18.71 72.3058 19.3745 72.7644 19.9507C73.2348 20.5152 73.7993 20.9503 74.4579 21.256C75.1164 21.5618 75.8573 21.7147 76.6805 21.7147C77.8565 21.7147 78.8384 21.4266 79.6263 20.8503C80.426 20.2741 80.9846 19.4097 81.3021 18.2573L83.366 18.6101C83.1778 19.4215 82.878 20.1447 82.4664 20.7798C82.0665 21.403 81.5667 21.9087 80.967 22.2968C80.3672 22.6849 79.6793 22.9906 78.9031 23.2141C78.127 23.4493 77.2744 23.5669 76.3453 23.5669C75.1105 23.5669 73.9933 23.3728 72.9938 22.9847C71.9942 22.5849 71.1416 22.0439 70.436 21.3619C69.7304 20.6798 69.1835 19.8331 68.7955 18.8217C68.4074 17.7986 68.2134 16.6638 68.2134 15.4172C68.2134 14.2412 68.4015 13.1476 68.7778 12.1362C69.1541 11.1131 69.6833 10.2252 70.3654 9.47261C71.0593 8.71997 71.8766 8.12022 72.8174 7.67334C73.7699 7.22646 74.8224 7.00303 75.9749 7.00303C76.4453 7.00303 76.9098 7.03243 77.3684 7.09123C77.8271 7.15002 78.2622 7.24998 78.6738 7.3911C79.0971 7.53222 79.4852 7.72626 79.838 7.97322C80.2026 8.22018 80.526 8.52593 80.8082 8.89049L81.2492 7.49694C81.2963 7.49694 81.3962 7.50282 81.5491 7.51458C81.7137 7.51458 81.8842 7.51458 82.0606 7.51458C82.237 7.51458 82.4017 7.52046 82.5546 7.53222C82.7192 7.53222 82.825 7.53222 82.8721 7.53222V13.0359Z" fill="#F9F9F9"/>
<path d="M64.3326 15.8406H51.8436C51.8553 16.7814 52.0023 17.6105 52.2846 18.3278C52.5668 19.0452 52.9666 19.6567 53.4841 20.1624C54.0015 20.6563 54.6189 21.0385 55.3363 21.309C56.0654 21.5794 56.8709 21.7147 57.7529 21.7147C58.9877 21.7147 60.0579 21.4618 60.9634 20.9562C61.8689 20.4505 62.5686 19.6684 63.0625 18.6101L65.1969 18.9452C64.656 20.4387 63.7034 21.5853 62.3393 22.385C60.9869 23.1729 59.3229 23.5669 57.3472 23.5669C56.0183 23.5669 54.8247 23.3669 53.7663 22.9671C52.7079 22.5673 51.8083 22.0028 51.0674 21.2737C50.3383 20.5446 49.7797 19.692 49.3916 18.7159C49.0035 17.7281 48.8095 16.605 48.8095 15.3467C48.8095 14.0766 49.0094 12.9359 49.4093 11.9245C49.8091 10.9014 50.3736 10.0253 51.1027 9.29621C51.8318 8.56709 52.7079 8.00262 53.731 7.60278C54.7659 7.20294 55.9125 7.00303 57.1708 7.00303C58.4409 7.00303 59.5816 7.19706 60.5929 7.58514C61.6043 7.96146 62.4628 8.51417 63.1684 9.24329C63.8739 9.9724 64.4149 10.8603 64.7912 11.9069C65.1793 12.9535 65.3792 14.1589 65.391 15.5231L64.3326 15.8406ZM62.5333 14.253C62.3922 12.4773 61.863 11.1308 60.9457 10.2135C60.0285 9.29621 58.7819 8.83757 57.2061 8.83757C56.4652 8.83757 55.789 8.96693 55.1775 9.22565C54.566 9.47261 54.0309 9.8254 53.5723 10.284C53.1136 10.7309 52.7373 11.2836 52.4433 11.9422C52.1611 12.6007 51.967 13.371 51.8612 14.253H62.5333Z" fill="#F9F9F9"/>
<path d="M43.9938 20.3917C43.9938 20.6857 44.0467 20.915 44.1526 21.0796C44.2702 21.2443 44.4407 21.3678 44.6641 21.4501C44.8993 21.5324 45.1816 21.5853 45.5108 21.6088C45.8519 21.6206 46.2517 21.6265 46.7104 21.6265V23.1964C46.3811 23.1964 46.0577 23.1964 45.7402 23.1964C45.4226 23.1964 45.0934 23.1964 44.7523 23.1964C44.4231 23.1964 44.0761 23.1964 43.7116 23.1964C43.347 23.1847 42.9472 23.1729 42.5121 23.1611C42.0887 23.1611 41.6948 23.167 41.3302 23.1788C40.9656 23.1788 40.6187 23.1788 40.2894 23.1788C39.9602 23.1788 39.6427 23.1847 39.3369 23.1964C39.0311 23.1964 38.7195 23.1964 38.402 23.1964C38.402 23.1023 38.402 22.9847 38.402 22.8436C38.402 22.7025 38.3961 22.5614 38.3843 22.4203C38.3843 22.2674 38.3843 22.1204 38.3843 21.9793C38.3843 21.8382 38.3843 21.7206 38.3843 21.6265C39.0547 21.6265 39.5662 21.5971 39.919 21.5383C40.2836 21.4795 40.5482 21.3913 40.7128 21.2737C40.8774 21.1561 40.9715 21.0091 40.995 20.8327C41.0303 20.6563 41.048 20.4446 41.048 20.1976V2.8753C41.048 2.66362 40.9892 2.49898 40.8716 2.38138C40.7657 2.26378 40.6011 2.18146 40.3776 2.13442C40.1542 2.07562 39.8837 2.04034 39.5662 2.02858C39.2487 2.01682 38.8841 2.00506 38.4725 1.9933V0.405717C39.4016 0.405717 40.3012 0.399837 41.1714 0.388077C42.0417 0.376317 42.9825 0.358677 43.9938 0.335157V20.3917Z" fill="#F9F9F9"/>
<path d="M35.2268 15.8406H22.7378C22.7495 16.7814 22.8965 17.6105 23.1788 18.3278C23.461 19.0452 23.8609 19.6567 24.3783 20.1624C24.8957 20.6563 25.5131 21.0385 26.2305 21.309C26.9596 21.5794 27.7651 21.7147 28.6471 21.7147C29.8819 21.7147 30.9521 21.4618 31.8576 20.9562C32.7631 20.4505 33.4628 19.6684 33.9567 18.6101L36.0912 18.9452C35.5502 20.4387 34.5977 21.5853 33.2335 22.385C31.8811 23.1729 30.2171 23.5669 28.2414 23.5669C26.9126 23.5669 25.7189 23.3669 24.6605 22.9671C23.6021 22.5673 22.7025 22.0028 21.9616 21.2737C21.2325 20.5446 20.6739 19.692 20.2858 18.7159C19.8978 17.7281 19.7037 16.605 19.7037 15.3467C19.7037 14.0766 19.9036 12.9359 20.3035 11.9245C20.7033 10.9014 21.2678 10.0253 21.9969 9.29621C22.726 8.56709 23.6021 8.00262 24.6252 7.60278C25.6601 7.20294 26.8067 7.00303 28.065 7.00303C29.3351 7.00303 30.4758 7.19706 31.4872 7.58514C32.4985 7.96146 33.357 8.51417 34.0626 9.24329C34.7682 9.9724 35.3091 10.8603 35.6854 11.9069C36.0735 12.9535 36.2734 14.1589 36.2852 15.5231L35.2268 15.8406ZM33.4275 14.253C33.2864 12.4773 32.7572 11.1308 31.84 10.2135C30.9227 9.29621 29.6761 8.83757 28.1003 8.83757C27.3594 8.83757 26.6832 8.96693 26.0717 9.22565C25.4602 9.47261 24.9251 9.8254 24.4665 10.284C24.0079 10.7309 23.6315 11.2836 23.3375 11.9422C23.0553 12.6007 22.8613 13.371 22.7554 14.253H33.4275Z" fill="#F9F9F9"/>
<path d="M15.6289 6.59731H13.5651C13.5533 6.46795 13.5415 6.34447 13.5298 6.22687C13.5298 6.10927 13.5298 5.99167 13.5298 5.87407C13.5063 5.26256 13.3593 4.70984 13.0888 4.21593C12.8183 3.72201 12.4361 3.30453 11.9422 2.9635C11.46 2.62246 10.8838 2.35786 10.2135 2.1697C9.54317 1.98154 8.79641 1.88747 7.97322 1.88747C7.23234 1.88747 6.56203 1.98154 5.96227 2.1697C5.37428 2.3461 4.87448 2.59894 4.46289 2.92822C4.05129 3.25749 3.73377 3.65145 3.51033 4.11009C3.29865 4.55696 3.19282 5.045 3.19282 5.5742C3.19282 6.13867 3.30453 6.62671 3.52797 7.03831C3.75141 7.4499 4.05717 7.81446 4.44525 8.13198C4.83332 8.44949 5.29196 8.73173 5.82115 8.97869C6.36211 9.21389 6.94423 9.44321 7.5675 9.66665C8.19078 9.87832 8.84933 10.0959 9.54317 10.3193C10.237 10.5428 10.9367 10.7838 11.6423 11.0426C12.3714 11.3248 13.0359 11.6482 13.6356 12.0127C14.2471 12.3655 14.7704 12.783 15.2056 13.2652C15.6407 13.7473 15.9758 14.3 16.211 14.9233C16.458 15.5348 16.5815 16.2404 16.5815 17.0401C16.5815 17.9691 16.3992 18.8335 16.0346 19.6332C15.6818 20.4328 15.1762 21.1326 14.5176 21.7323C13.8708 22.3203 13.0829 22.7848 12.1539 23.1259C11.2366 23.4551 10.2135 23.6198 9.08453 23.6198C7.49694 23.6198 6.12691 23.4022 4.97444 22.9671C3.83373 22.5202 2.95174 21.9087 2.32846 21.1326V23.1964H0V15.9994H2.11678C2.11678 16.8461 2.2285 17.6163 2.45194 18.3102C2.67538 19.004 3.02818 19.5979 3.51033 20.0918C3.99249 20.5857 4.60988 20.9679 5.36252 21.2384C6.12691 21.5089 7.04419 21.6441 8.11434 21.6441C8.89049 21.6441 9.60197 21.5442 10.2488 21.3442C10.8956 21.1443 11.4483 20.8621 11.9069 20.4975C12.3773 20.1212 12.7419 19.6743 13.0006 19.1569C13.2593 18.6277 13.3887 18.0397 13.3887 17.3929C13.3887 16.5462 13.1593 15.8582 12.7007 15.329C12.2421 14.7881 11.6364 14.3294 10.8838 13.9531C10.1312 13.5768 9.27269 13.2417 8.30838 12.9477C7.35582 12.6419 6.38563 12.3009 5.3978 11.9245C4.52756 11.5953 3.76317 11.2425 3.10462 10.8662C2.44606 10.4781 1.89335 10.0488 1.44647 9.57845C1.01135 9.10805 0.682075 8.57885 0.458636 7.99086C0.235198 7.40286 0.123479 6.73843 0.123479 5.99755C0.123479 5.1626 0.288118 4.38057 0.617395 3.65145C0.946673 2.92234 1.42295 2.29318 2.04622 1.76399C2.6695 1.22303 3.42801 0.799674 4.32177 0.493916C5.21552 0.176399 6.22687 0.0176399 7.35582 0.0176399C7.93206 0.0176399 8.48477 0.0470396 9.01397 0.105839C9.55493 0.164639 10.0724 0.270478 10.5663 0.423357C11.072 0.564476 11.56 0.764394 12.0304 1.02311C12.5008 1.27007 12.9712 1.59347 13.4416 1.9933V0.529196C13.7238 0.529196 14.0649 0.535076 14.4647 0.546836C14.8645 0.546836 15.2526 0.546836 15.6289 0.546836V6.59731Z" fill="#F9F9F9"/>
</svg>
