<svg width="696" height="447" viewBox="0 0 696 447" fill="none" xmlns="http://www.w3.org/2000/svg">
<path fill-rule="evenodd" clip-rule="evenodd" d="M684 1H12C5.92487 1 1 5.92487 1 12V435C1 441.075 5.92486 446 12 446H684C690.075 446 695 441.075 695 435V12C695 5.92487 690.075 1 684 1ZM12 0C5.37258 0 0 5.37258 0 12V435C0 441.627 5.37257 447 12 447H684C690.627 447 696 441.627 696 435V12C696 5.37258 690.627 0 684 0H12Z" fill="#959598"/>
<path d="M655.353 29.9736H647.135V28.3408H655.353V29.9736Z" fill="#B7B7B7"/>
<path d="M642.14 29.9736H633.922V28.3408H642.14V29.9736Z" fill="#B7B7B7"/>
<path d="M628.927 29.9736H620.709V28.3408H628.927V29.9736Z" fill="#B7B7B7"/>
<path d="M615.714 29.9736H607.496V28.3408H615.714V29.9736Z" fill="#B7B7B7"/>
<path d="M602.501 29.9736H594.283V28.3408H602.501V29.9736Z" fill="#B7B7B7"/>
<path d="M589.288 29.9736H581.07V28.3408H589.288V29.9736Z" fill="#B7B7B7"/>
<path d="M576.075 29.9736H567.857V28.3408H576.075V29.9736Z" fill="#B7B7B7"/>
<path d="M562.862 29.9736H554.645V28.3408H562.862V29.9736Z" fill="#B7B7B7"/>
<path d="M549.649 29.9736H541.432V28.3408H549.649V29.9736Z" fill="#B7B7B7"/>
<path d="M536.437 29.9736H528.219V28.3408H536.437V29.9736Z" fill="#B7B7B7"/>
<path d="M523.224 29.9736H515.006V28.3408H523.224V29.9736Z" fill="#B7B7B7"/>
<path d="M510.011 29.9736H501.793V28.3408H510.011V29.9736Z" fill="#B7B7B7"/>
<path d="M496.798 29.9736H488.58V28.3408H496.798V29.9736Z" fill="#B7B7B7"/>
<path d="M483.585 29.9736H475.367V28.3408H483.585V29.9736Z" fill="#B7B7B7"/>
<path d="M470.372 29.9736H462.154V28.3408H470.372V29.9736Z" fill="#B7B7B7"/>
<path d="M457.159 29.9736H448.941V28.3408H457.159V29.9736Z" fill="#B7B7B7"/>
<path d="M443.946 29.9736H435.729V28.3408H443.946V29.9736Z" fill="#B7B7B7"/>
<path d="M430.733 29.9736H422.516V28.3408H430.733V29.9736Z" fill="#B7B7B7"/>
<path d="M417.521 29.9736H409.303V28.3408H417.521V29.9736Z" fill="#B7B7B7"/>
<path d="M404.308 29.9736H396.09V28.3408H404.308V29.9736Z" fill="#B7B7B7"/>
<path d="M391.095 29.9736H382.877V28.3408H391.095V29.9736Z" fill="#B7B7B7"/>
<path d="M377.882 29.9736H369.664V28.3408H377.882V29.9736Z" fill="#B7B7B7"/>
<path d="M364.669 29.9736H356.451V28.3408H364.669V29.9736Z" fill="#B7B7B7"/>
<path d="M351.456 29.9736H343.238V28.3408H351.456V29.9736Z" fill="#B7B7B7"/>
<path d="M338.243 29.9736H330.025V28.3408H338.243V29.9736Z" fill="#B7B7B7"/>
<path d="M325.03 29.9736H316.812V28.3408H325.03V29.9736Z" fill="#B7B7B7"/>
<path d="M311.817 29.9736H303.6V28.3408H311.817V29.9736Z" fill="#B7B7B7"/>
<path d="M298.604 29.9736H290.387V28.3408H298.604V29.9736Z" fill="#B7B7B7"/>
<path d="M285.392 29.9736H277.174V28.3408H285.392V29.9736Z" fill="#B7B7B7"/>
<path d="M272.179 29.9736H263.961V28.3408H272.179V29.9736Z" fill="#B7B7B7"/>
<path d="M258.966 29.9736H250.748V28.3408H258.966V29.9736Z" fill="#B7B7B7"/>
<path d="M245.753 29.9736H237.535V28.3408H245.753V29.9736Z" fill="#B7B7B7"/>
<path d="M232.54 29.9736H224.322V28.3408H232.54V29.9736Z" fill="#B7B7B7"/>
<path d="M219.327 29.9736H211.109V28.3408H219.327V29.9736Z" fill="#B7B7B7"/>
<path d="M206.114 29.9736H197.896V28.3408H206.114V29.9736Z" fill="#B7B7B7"/>
<path d="M192.901 29.9736H184.684V28.3408H192.901V29.9736Z" fill="#B7B7B7"/>
<path d="M179.688 29.9736H171.471V28.3408H179.688V29.9736Z" fill="#B7B7B7"/>
<path d="M166.476 29.9736H158.258V28.3408H166.476V29.9736Z" fill="#B7B7B7"/>
<path d="M153.263 29.9736H145.045V28.3408H153.263V29.9736Z" fill="#B7B7B7"/>
<path d="M140.05 29.9736H131.832V28.3408H140.05V29.9736Z" fill="#B7B7B7"/>
<path d="M126.837 29.9736H118.619V28.3408H126.837V29.9736Z" fill="#B7B7B7"/>
<path d="M113.624 29.9736H105.406V28.3408H113.624V29.9736Z" fill="#B7B7B7"/>
<path d="M100.411 29.9736H92.1934V28.3408H100.411V29.9736Z" fill="#B7B7B7"/>
<path d="M87.1982 29.9736H78.9805V28.3408H87.1982V29.9736Z" fill="#B7B7B7"/>
<path d="M73.9854 29.9736H65.7676V28.3408H73.9854V29.9736Z" fill="#B7B7B7"/>
<path d="M60.7725 29.9736H52.5547V28.3408H60.7725V29.9736Z" fill="#B7B7B7"/>
<path d="M47.5596 29.9736H39.3418V28.3408H47.5596V29.9736Z" fill="#B7B7B7"/>
<path d="M655.353 421.974H647.135V420.341H655.353V421.974Z" fill="#A2A2A2"/>
<path d="M642.14 421.974H633.922V420.341H642.14V421.974Z" fill="#A2A2A2"/>
<path d="M628.927 421.974H620.709V420.341H628.927V421.974Z" fill="#A2A2A2"/>
<path d="M615.714 421.974H607.496V420.341H615.714V421.974Z" fill="#A2A2A2"/>
<path d="M602.501 421.974H594.283V420.341H602.501V421.974Z" fill="#A2A2A2"/>
<path d="M589.288 421.974H581.07V420.341H589.288V421.974Z" fill="#A2A2A2"/>
<path d="M576.075 421.974H567.857V420.341H576.075V421.974Z" fill="#A2A2A2"/>
<path d="M562.862 421.974H554.645V420.341H562.862V421.974Z" fill="#A2A2A2"/>
<path d="M549.649 421.974H541.432V420.341H549.649V421.974Z" fill="#A2A2A2"/>
<path d="M536.437 421.974H528.219V420.341H536.437V421.974Z" fill="#A2A2A2"/>
<path d="M523.224 421.974H515.006V420.341H523.224V421.974Z" fill="#A2A2A2"/>
<path d="M510.011 421.974H501.793V420.341H510.011V421.974Z" fill="#A2A2A2"/>
<path d="M496.798 421.974H488.58V420.341H496.798V421.974Z" fill="#A2A2A2"/>
<path d="M483.585 421.974H475.367V420.341H483.585V421.974Z" fill="#A2A2A2"/>
<path d="M470.372 421.974H462.154V420.341H470.372V421.974Z" fill="#A2A2A2"/>
<path d="M457.159 421.974H448.941V420.341H457.159V421.974Z" fill="#A2A2A2"/>
<path d="M443.946 421.974H435.729V420.341H443.946V421.974Z" fill="#A2A2A2"/>
<path d="M430.733 421.974H422.516V420.341H430.733V421.974Z" fill="#A2A2A2"/>
<path d="M417.521 421.974H409.303V420.341H417.521V421.974Z" fill="#A2A2A2"/>
<path d="M404.308 421.974H396.09V420.341H404.308V421.974Z" fill="#A2A2A2"/>
<path d="M391.095 421.974H382.877V420.341H391.095V421.974Z" fill="#A2A2A2"/>
<path d="M377.882 421.974H369.664V420.341H377.882V421.974Z" fill="#A2A2A2"/>
<path d="M364.669 421.974H356.451V420.341H364.669V421.974Z" fill="#A2A2A2"/>
<path d="M351.456 421.974H343.238V420.341H351.456V421.974Z" fill="#A2A2A2"/>
<path d="M338.243 421.974H330.025V420.341H338.243V421.974Z" fill="#A2A2A2"/>
<path d="M325.03 421.974H316.812V420.341H325.03V421.974Z" fill="#A2A2A2"/>
<path d="M311.817 421.974H303.6V420.341H311.817V421.974Z" fill="#A2A2A2"/>
<path d="M298.604 421.974H290.387V420.341H298.604V421.974Z" fill="#A2A2A2"/>
<path d="M285.392 421.974H277.174V420.341H285.392V421.974Z" fill="#A2A2A2"/>
<path d="M272.179 421.974H263.961V420.341H272.179V421.974Z" fill="#A2A2A2"/>
<path d="M258.966 421.974H250.748V420.341H258.966V421.974Z" fill="#A2A2A2"/>
<path d="M245.753 421.974H237.535V420.341H245.753V421.974Z" fill="#A2A2A2"/>
<path d="M232.54 421.974H224.322V420.341H232.54V421.974Z" fill="#A2A2A2"/>
<path d="M219.327 421.974H211.109V420.341H219.327V421.974Z" fill="#A2A2A2"/>
<path d="M206.114 421.974H197.896V420.341H206.114V421.974Z" fill="#A2A2A2"/>
<path d="M192.901 421.974H184.684V420.341H192.901V421.974Z" fill="#A2A2A2"/>
<path d="M179.688 421.974H171.471V420.341H179.688V421.974Z" fill="#A2A2A2"/>
<path d="M166.476 421.974H158.258V420.341H166.476V421.974Z" fill="#A2A2A2"/>
<path d="M153.263 421.974H145.045V420.341H153.263V421.974Z" fill="#A2A2A2"/>
<path d="M140.05 421.974H131.832V420.341H140.05V421.974Z" fill="#A2A2A2"/>
<path d="M126.837 421.974H118.619V420.341H126.837V421.974Z" fill="#A2A2A2"/>
<path d="M113.624 421.974H105.406V420.341H113.624V421.974Z" fill="#A2A2A2"/>
<path d="M100.411 421.974H92.1934V420.341H100.411V421.974Z" fill="#A2A2A2"/>
<path d="M87.1982 421.974H78.9805V420.341H87.1982V421.974Z" fill="#A2A2A2"/>
<path d="M73.9854 421.974H65.7676V420.341H73.9854V421.974Z" fill="#A2A2A2"/>
<path d="M60.7725 421.974H52.5547V420.341H60.7725V421.974Z" fill="#A2A2A2"/>
<path d="M47.5596 421.974H39.3418V420.341H47.5596V421.974Z" fill="#A2A2A2"/>
<path d="M656.974 38.4795V46.6973H655.341V38.4795H656.974Z" fill="#AAA9A9"/>
<path d="M656.974 51.6924V59.9102H655.341V51.6924H656.974Z" fill="#AAA9A9"/>
<path d="M656.974 64.9053V73.123H655.341V64.9053H656.974Z" fill="#AAA9A9"/>
<path d="M656.974 78.1182V86.3359H655.341V78.1182H656.974Z" fill="#AAA9A9"/>
<path d="M656.974 91.3311V99.5488H655.341V91.3311H656.974Z" fill="#AAA9A9"/>
<path d="M656.974 104.544V112.762H655.341V104.544H656.974Z" fill="#AAA9A9"/>
<path d="M656.974 117.757V125.975H655.341V117.757H656.974Z" fill="#AAA9A9"/>
<path d="M656.974 130.97V139.188H655.341V130.97H656.974Z" fill="#AAA9A9"/>
<path d="M656.974 144.183V152.4H655.341V144.183H656.974Z" fill="#AAA9A9"/>
<path d="M656.974 157.396V165.613H655.341V157.396H656.974Z" fill="#AAA9A9"/>
<path d="M656.974 170.608V178.826H655.341V170.608H656.974Z" fill="#AAA9A9"/>
<path d="M656.974 183.821V192.039H655.341V183.821H656.974Z" fill="#AAA9A9"/>
<path d="M656.974 197.034V205.252H655.341V197.034H656.974Z" fill="#AAA9A9"/>
<path d="M656.974 210.247V218.465H655.341V210.247H656.974Z" fill="#AAA9A9"/>
<path d="M656.974 223.46V231.678H655.341V223.46H656.974Z" fill="#AAA9A9"/>
<path d="M656.974 236.673V244.891H655.341V236.673H656.974Z" fill="#AAA9A9"/>
<path d="M656.974 249.886V258.104H655.341V249.886H656.974Z" fill="#AAA9A9"/>
<path d="M656.974 263.099V271.316H655.341V263.099H656.974Z" fill="#AAA9A9"/>
<path d="M656.974 276.312V284.529H655.341V276.312H656.974Z" fill="#AAA9A9"/>
<path d="M656.974 289.524V297.742H655.341V289.524H656.974Z" fill="#AAA9A9"/>
<path d="M656.974 302.737V310.955H655.341V302.737H656.974Z" fill="#AAA9A9"/>
<path d="M656.974 315.95V324.168H655.341V315.95H656.974Z" fill="#AAA9A9"/>
<path d="M656.974 329.163V337.381H655.341V329.163H656.974Z" fill="#AAA9A9"/>
<path d="M656.974 342.376V350.594H655.341V342.376H656.974Z" fill="#AAA9A9"/>
<path d="M656.974 355.589V363.807H655.341V355.589H656.974Z" fill="#AAA9A9"/>
<path d="M656.974 368.802V377.02H655.341V368.802H656.974Z" fill="#AAA9A9"/>
<path d="M656.974 382.015V390.232H655.341V382.015H656.974Z" fill="#AAA9A9"/>
<path d="M656.974 395.228V403.445H655.341V395.228H656.974Z" fill="#AAA9A9"/>
<path d="M656.974 408.44V416.658H655.341V408.44H656.974Z" fill="#AAA9A9"/>
<path d="M38.9736 38.4795V46.6973H37.3408V38.4795H38.9736Z" fill="#9F9E9E"/>
<path d="M38.9736 51.6924V59.9102H37.3408V51.6924H38.9736Z" fill="#9F9E9E"/>
<path d="M38.9736 64.9053V73.123H37.3408V64.9053H38.9736Z" fill="#9F9E9E"/>
<path d="M38.9736 78.1182V86.3359H37.3408V78.1182H38.9736Z" fill="#9F9E9E"/>
<path d="M38.9736 91.3311V99.5488H37.3408V91.3311H38.9736Z" fill="#9F9E9E"/>
<path d="M38.9736 104.544V112.762H37.3408V104.544H38.9736Z" fill="#9F9E9E"/>
<path d="M38.9736 117.757V125.975H37.3408V117.757H38.9736Z" fill="#9F9E9E"/>
<path d="M38.9736 130.97V139.188H37.3408V130.97H38.9736Z" fill="#9F9E9E"/>
<path d="M38.9736 144.183V152.4H37.3408V144.183H38.9736Z" fill="#9F9E9E"/>
<path d="M38.9736 157.396V165.613H37.3408V157.396H38.9736Z" fill="#9F9E9E"/>
<path d="M38.9736 170.608V178.826H37.3408V170.608H38.9736Z" fill="#9F9E9E"/>
<path d="M38.9736 183.821V192.039H37.3408V183.821H38.9736Z" fill="#9F9E9E"/>
<path d="M38.9736 197.034V205.252H37.3408V197.034H38.9736Z" fill="#9F9E9E"/>
<path d="M38.9736 210.247V218.465H37.3408V210.247H38.9736Z" fill="#9F9E9E"/>
<path d="M38.9736 223.46V231.678H37.3408V223.46H38.9736Z" fill="#9F9E9E"/>
<path d="M38.9736 236.673V244.891H37.3408V236.673H38.9736Z" fill="#9F9E9E"/>
<path d="M38.9736 249.886V258.104H37.3408V249.886H38.9736Z" fill="#9F9E9E"/>
<path d="M38.9736 263.099V271.316H37.3408V263.099H38.9736Z" fill="#9F9E9E"/>
<path d="M38.9736 276.312V284.529H37.3408V276.312H38.9736Z" fill="#9F9E9E"/>
<path d="M38.9736 289.524V297.742H37.3408V289.524H38.9736Z" fill="#9F9E9E"/>
<path d="M38.9736 302.737V310.955H37.3408V302.737H38.9736Z" fill="#9F9E9E"/>
<path d="M38.9736 315.95V324.168H37.3408V315.95H38.9736Z" fill="#9F9E9E"/>
<path d="M38.9736 329.163V337.381H37.3408V329.163H38.9736Z" fill="#9F9E9E"/>
<path d="M38.9736 342.376V350.594H37.3408V342.376H38.9736Z" fill="#9F9E9E"/>
<path d="M38.9736 355.589V363.807H37.3408V355.589H38.9736Z" fill="#9F9E9E"/>
<path d="M38.9736 368.802V377.02H37.3408V368.802H38.9736Z" fill="#9F9E9E"/>
<path d="M38.9736 382.015V390.232H37.3408V382.015H38.9736Z" fill="#9F9E9E"/>
<path d="M38.9736 395.228V403.445H37.3408V395.228H38.9736Z" fill="#9F9E9E"/>
<path d="M38.9736 408.44V416.658H37.3408V408.44H38.9736Z" fill="#9F9E9E"/>
</svg>
