<svg width="16" height="16" viewBox="0 0 16 16" fill="none" xmlns="http://www.w3.org/2000/svg">
<path d="M9 2.66666C9 3.21894 8.55228 3.66666 8 3.66666C7.44772 3.66666 7 3.21894 7 2.66666C7 2.11437 7.44772 1.66666 8 1.66666C8.55228 1.66666 9 2.11437 9 2.66666Z" fill="black"/>
<path d="M9 7.99999C9 8.55227 8.55228 8.99999 8 8.99999C7.44772 8.99999 7 8.55227 7 7.99999C7 7.4477 7.44772 6.99999 8 6.99999C8.55228 6.99999 9 7.4477 9 7.99999Z" fill="black"/>
<path d="M8 14.3333C8.55228 14.3333 9 13.8856 9 13.3333C9 12.781 8.55228 12.3333 8 12.3333C7.44772 12.3333 7 12.781 7 13.3333C7 13.8856 7.44772 14.3333 8 14.3333Z" fill="black"/>
</svg>
