<svg width="43" height="38" viewBox="0 0 43 38" fill="none" xmlns="http://www.w3.org/2000/svg">
<path d="M10.7502 13.4583C10.7502 12.5839 11.5523 11.875 12.5418 11.875H21.5002C22.4897 11.875 23.2918 12.5839 23.2918 13.4583C23.2918 14.3328 22.4897 15.0417 21.5002 15.0417H12.5418C11.5523 15.0417 10.7502 14.3328 10.7502 13.4583Z" fill="#F56630"/>
<path d="M12.5418 18.2083C11.5523 18.2083 10.7502 18.9172 10.7502 19.7917C10.7502 20.6661 11.5523 21.375 12.5418 21.375H28.6668C29.6563 21.375 30.4585 20.6661 30.4585 19.7917C30.4585 18.9172 29.6563 18.2083 28.6668 18.2083H12.5418Z" fill="#F56630"/>
<path fill-rule="evenodd" clip-rule="evenodd" d="M27.5918 31.5875L30.1002 29.925C30.7204 29.5139 31.4748 29.2917 32.2502 29.2917C36.2082 29.2917 39.4168 26.4561 39.4168 22.9583V10.2917C39.4168 6.79386 36.2082 3.95833 32.2502 3.95833H10.7502C6.79212 3.95833 3.5835 6.79386 3.5835 10.2917V22.9583C3.5835 26.4561 6.79212 29.2917 10.7502 29.2917H14.3335C15.1088 29.2917 15.8632 29.5139 16.4835 29.925L18.9918 31.5875C21.54 33.2764 25.0437 33.2764 27.5918 31.5875ZM32.2502 26.125C30.6995 26.125 29.1907 26.5695 27.9502 27.3917L25.4418 29.0542C24.1678 29.8986 22.4159 29.8986 21.1418 29.0542L18.6335 27.3917C17.393 26.5695 15.8841 26.125 14.3335 26.125H10.7502C8.77114 26.125 7.16683 24.7072 7.16683 22.9583V10.2917C7.16683 8.54276 8.77114 7.12499 10.7502 7.12499H32.2502C34.2292 7.12499 35.8335 8.54276 35.8335 10.2917V22.9583C35.8335 24.7072 34.2292 26.125 32.2502 26.125Z" fill="#F56630"/>
</svg>
