<svg width="206" height="158" viewBox="0 0 206 158" fill="none" xmlns="http://www.w3.org/2000/svg">
<ellipse cx="103" cy="146.191" rx="103" ry="11.1911" fill="#D9D9D9" fill-opacity="0.7"/>
<path d="M129.189 145.801C101.768 145.001 73.4025 141.896 58.7181 99.9622C54.3506 87.4958 57.1891 78.0577 61.982 70.9419C63.1653 69.1823 64.4682 67.5716 65.811 66.0877C66.3162 65.5306 66.8281 64.99 67.34 64.466C78.0559 53.5606 96.0242 49.6497 111.958 54.4708C120.893 57.1737 132.353 61.1673 142.571 66.3635C163.098 76.8056 167.918 88.7093 174.625 109.125C175.203 110.879 175.775 112.842 176.214 114.933C176.447 116.047 176.639 117.2 176.772 118.37C178.261 131.426 172.192 147.053 129.189 145.801Z" fill="#39393B"/>
<path d="M176.772 118.37C175.861 120.494 174.565 122.656 172.836 124.708C167.651 130.875 156.849 138.322 134.859 138.807C133.888 138.829 132.938 138.84 131.994 138.84C123.591 138.84 116.179 137.996 109.405 136.281C102.319 134.488 96.1368 131.774 90.4997 128.001C81.0801 121.691 73.3091 112.462 65.3254 98.0817C62.1678 92.4001 60.5325 86.6413 60.466 80.9652C60.4261 77.5838 60.9313 74.2245 61.9883 70.9479C63.1715 69.1883 64.4745 67.5776 65.8173 66.0938C65.4782 66.7447 65.1459 67.4287 64.8334 68.1402C61.9617 74.6768 59.9807 85.0802 66.8743 97.4915C80.894 122.739 97.1473 138.217 134.819 137.401C156.105 136.937 166.488 129.805 171.447 123.908C174.04 120.83 175.502 117.714 176.22 114.939C176.446 116.048 176.639 117.201 176.772 118.37Z" fill="#585859"/>
<path d="M137.544 40.9834C137.544 40.9834 154.762 60.367 158.69 70.0258C162.619 79.679 153.086 86.541 153.086 86.541L144.232 89.2991C144.232 89.2936 135.131 55.204 137.544 40.9834Z" fill="#084FC7"/>
<path d="M136.022 95.2846C128.497 97.3531 110.11 102.781 102.126 100.586C101.787 100.492 101.474 100.387 101.175 100.266C100.304 99.9126 99.6065 99.4382 99.1146 98.8204C95.9836 94.8653 92.8791 78.2673 94.2751 68.5148C94.448 67.2958 94.5344 65.9719 94.561 64.5818C94.6008 62.5354 94.5211 60.3455 94.4147 58.1445C94.0225 49.8593 92.447 44.1391 96.7214 42.1257C100.557 40.3164 105.41 38.9043 108.501 38.292C110.415 37.9114 113.553 37.1171 115.753 37.1502L125.273 38.5844C125.273 38.5844 133.489 39.7207 135.384 40.8846C137.278 42.043 138.249 47.1564 141.672 51.8396C145.096 56.5228 145.84 61.2225 142.57 66.3636C139.725 70.8371 140.223 69.1382 139.851 76.4746C139.392 85.4659 150.72 91.2413 136.022 95.2846Z" fill="white"/>
<g opacity="0.8">
<g opacity="0.8">
<path opacity="0.8" d="M110.748 53.1579C110.748 53.1579 121.065 50.9459 134.234 52.9869L134.553 60.5384C134.553 60.5384 120.074 59.2035 110.954 61.1286L110.748 53.1579Z" fill="#CED3E6"/>
</g>
</g>
<g opacity="0.8">
<path opacity="0.8" d="M122.601 46.7812C122.461 46.7812 122.321 46.7756 122.175 46.7701C116.538 46.5274 111.366 42.4014 111.154 42.2249C111.001 42.1035 111.001 41.8994 111.147 41.7725C111.293 41.6457 111.539 41.6457 111.692 41.767C111.745 41.8056 116.87 45.9041 122.215 46.1303C127.334 46.3564 127.952 42.1421 127.979 41.9601C128.005 41.7836 128.191 41.6567 128.404 41.6788C128.617 41.6953 128.77 41.8553 128.743 42.0318C128.743 42.0759 128.065 46.7812 122.601 46.7812Z" fill="#CED3E6"/>
</g>
<g opacity="0.8">
<path opacity="0.8" d="M106.62 84.5831C106.58 84.5555 106.547 84.5279 106.514 84.4893C106.401 84.3293 106.461 84.1252 106.647 84.0315C113.979 80.3467 121.012 79.0504 125.619 78.6091C130.624 78.1292 133.849 78.5153 133.981 78.5319C134.201 78.5595 134.354 78.7305 134.32 78.9125C134.287 79.0945 134.081 79.2214 133.862 79.1938C133.829 79.1883 130.585 78.8022 125.679 79.2766C121.158 79.7123 114.251 80.9921 107.059 84.6051C106.926 84.6768 106.753 84.6658 106.62 84.5831Z" fill="#CED3E6"/>
</g>
<path d="M116.206 98.2912C109.432 96.5095 103.303 92.924 99.1216 89.7302C98.7892 89.4764 98.4701 89.2282 98.1644 88.98C95.9973 87.2314 94.4683 88.1305 93.8036 87.1266C91.2708 83.2818 92.7067 68.1952 93.8036 62.6515C94.9004 57.1133 90.2936 46.9637 92.7732 43.3341C95.2527 39.7045 103.795 38.4358 103.795 38.4358C103.795 38.4358 102.585 37.2663 104.878 35.9259C107.172 34.5855 113.274 35.1426 113.274 35.1426C113.567 59.1157 117.655 81.3898 116.206 98.2912Z" fill="#0875F7"/>
<path d="M109.545 91.4178C109.359 91.4178 109.199 91.3075 109.173 91.153C106.088 74.5219 109.139 43.2345 109.173 42.9201C109.193 42.7491 109.372 42.6222 109.578 42.6332C109.784 42.6498 109.944 42.7987 109.924 42.9697C109.891 43.2841 106.853 74.4944 109.924 91.0537C109.957 91.2247 109.811 91.3847 109.605 91.4123C109.585 91.4123 109.565 91.4178 109.545 91.4178Z" fill="white"/>
<path d="M115.747 93.9112C115.568 93.9112 115.408 93.8064 115.375 93.652C111.34 74.5497 111.021 41.5853 111.021 41.2543C111.021 41.0833 111.187 40.9399 111.393 40.9399C111.599 40.9399 111.772 41.0778 111.772 41.2488C111.772 41.5798 112.098 74.489 116.119 93.5417C116.153 93.7127 116.02 93.8726 115.814 93.9057C115.787 93.9112 115.767 93.9112 115.747 93.9112Z" fill="#084FC7"/>
<path d="M109.053 41.0614C109.02 41.0614 108.987 41.0558 108.953 41.0503C105.762 40.3443 103.808 38.7832 103.722 38.717C103.575 38.5957 103.569 38.3971 103.715 38.2757C103.861 38.1544 104.101 38.1488 104.247 38.2702C104.267 38.2867 106.148 39.7871 109.139 40.4491C109.339 40.4932 109.458 40.6642 109.405 40.8352C109.372 40.9731 109.219 41.0614 109.053 41.0614Z" fill="#084FC7"/>
<path d="M145.555 87.8214C145.555 87.8214 143.141 94.5676 134.154 97.7835C133.037 79.492 130.511 58.6025 127.247 36.3836C127.247 36.3836 130.684 35.8816 132.113 37.5144C132.731 38.2149 132.864 39.4064 132.864 39.4064C132.864 39.4064 134.619 39.6877 136.54 40.4324C138.462 41.1771 138.242 42.1976 138.701 44.7901C139.16 47.3827 143.986 51.3929 145.555 56.8263C147.123 62.2597 142.962 65.7238 141.666 70.2856C140.363 74.8364 145.555 87.8214 145.555 87.8214Z" fill="#0875F7"/>
<path d="M137.837 90.651C137.631 90.651 137.465 90.5186 137.458 90.3476C136.587 65.4644 131.11 43.2289 131.056 43.0082C131.017 42.8372 131.143 42.6718 131.349 42.6387C131.555 42.6056 131.754 42.7104 131.794 42.8814C131.847 43.102 137.338 65.3871 138.209 90.331C138.216 90.502 138.05 90.651 137.844 90.651C137.844 90.651 137.844 90.651 137.837 90.651Z" fill="white"/>
<path d="M129.567 41.7508C129.388 41.7508 129.228 41.6404 129.195 41.4915C129.162 41.3205 129.301 41.1605 129.501 41.1274C129.527 41.1219 131.947 40.7578 132.499 39.3071C132.559 39.1416 132.771 39.0478 132.971 39.103C133.17 39.1527 133.277 39.3292 133.217 39.4947C132.519 41.315 129.74 41.7287 129.627 41.7452C129.607 41.7508 129.587 41.7508 129.567 41.7508Z" fill="#084FC7"/>
<path d="M136.959 90.6504C136.773 90.6504 136.607 90.5345 136.587 90.3746C133.928 72.0279 129.727 42.7098 129.687 42.4174C129.66 42.2464 129.813 42.0919 130.019 42.0699C130.225 42.0478 130.411 42.1747 130.438 42.3457C130.478 42.638 134.679 71.9617 137.338 90.3028C137.365 90.4738 137.219 90.6283 137.006 90.6504C136.986 90.6504 136.973 90.6504 136.959 90.6504Z" fill="#084FC7"/>
<path d="M114.631 103.824C115.781 104.508 117.589 105.22 120.308 105.937C135.73 110.008 149.869 103.438 149.869 103.438C150.727 99.9351 150.195 95.9524 148.773 94.4907C149.218 93.9721 148.925 93.3543 148.925 93.3543L163.118 81.1306C155.048 86.6798 145.063 88.4946 137.292 92.3945C137.292 92.3945 137.292 92.3945 137.286 92.3945C135.045 93.5198 133.031 94.5072 131.555 95.1967C129.302 96.2448 126.43 96.3496 123.612 96.0241C118.121 95.3953 112.856 93.1502 112.856 93.1502C112.856 93.1502 95.1799 86.5033 91.8694 86.724C89.2968 86.8895 103.164 98.9036 114.631 103.824Z" fill="#21B573"/>
<path d="M141.946 114.067C141.946 114.067 137.399 112.98 135.996 111.755L132.832 117.933L143.594 120.719C143.601 120.719 143.747 115.297 141.946 114.067Z" fill="#EA9B7A"/>
<path d="M167.918 131.918L154.005 106.295C153.486 106.262 152.835 106.378 152.103 106.599C149.404 107.415 145.609 109.666 143.169 110.984C142.883 111.139 142.617 111.282 142.371 111.409C141.959 111.618 141.607 111.784 141.341 111.889C139.194 112.689 140.324 113.648 140.324 113.648C144.326 115.309 141.886 120.229 144.326 121.376C144.326 121.376 145.363 121.878 148.673 123.086C151.984 124.294 155.314 127.213 158.399 129.601C162.38 132.69 164.88 133.049 166.309 132.767C167.453 132.547 167.918 131.918 167.918 131.918Z" fill="#EBB12B"/>
<path d="M167.918 131.918L154.004 106.295C153.486 106.262 152.834 106.378 152.103 106.599L166.309 132.767C167.452 132.547 167.918 131.918 167.918 131.918Z" fill="#C77E2E"/>
<path d="M155.427 108.909L155.015 108.148C154.383 109.301 153.16 110.608 150.82 111.375C147.703 112.39 144.818 111.64 143.176 110.989C142.89 111.143 142.624 111.287 142.378 111.414C144.046 112.158 147.377 113.218 151.113 112.004C153.346 111.265 154.656 110.057 155.427 108.909Z" fill="#C77E2E"/>
<path d="M150.262 121.971C150.162 121.784 149.909 121.668 149.65 121.707C149.344 121.751 149.145 121.993 149.198 122.247L149.59 124.029C149.643 124.283 149.936 124.448 150.242 124.404C150.548 124.36 150.747 124.117 150.694 123.863L150.302 122.082C150.295 122.043 150.282 122.005 150.262 121.971Z" fill="white"/>
<path d="M147.796 120.979C147.696 120.791 147.443 120.676 147.184 120.714C146.878 120.758 146.679 121.001 146.732 121.255L147.124 123.036C147.177 123.29 147.47 123.456 147.776 123.412C148.082 123.367 148.281 123.125 148.228 122.871L147.836 121.089C147.829 121.051 147.816 121.012 147.796 120.979Z" fill="white"/>
<path d="M152.256 123.152C152.156 122.964 151.904 122.848 151.644 122.887C151.339 122.931 151.139 123.174 151.192 123.427L151.585 125.209C151.638 125.463 151.93 125.628 152.236 125.584C152.542 125.54 152.741 125.297 152.688 125.044L152.296 123.262C152.283 123.223 152.269 123.185 152.256 123.152Z" fill="white"/>
<path d="M154.204 124.349C154.104 124.161 153.852 124.045 153.592 124.084C153.287 124.128 153.087 124.371 153.14 124.625L153.532 126.406C153.586 126.66 153.878 126.826 154.184 126.781C154.49 126.737 154.689 126.495 154.636 126.241L154.244 124.459C154.23 124.421 154.217 124.382 154.204 124.349Z" fill="white"/>
<path d="M156.145 125.722C156.045 125.535 155.793 125.419 155.533 125.458C155.228 125.502 155.028 125.744 155.081 125.998L155.474 127.78C155.527 128.034 155.819 128.199 156.125 128.155C156.431 128.111 156.63 127.868 156.577 127.614L156.185 125.833C156.178 125.794 156.165 125.755 156.145 125.722Z" fill="white"/>
<path d="M158.019 127.3C157.92 127.112 157.667 126.997 157.408 127.035C157.102 127.079 156.903 127.322 156.956 127.576L157.348 129.358C157.401 129.611 157.694 129.777 157.999 129.733C158.305 129.689 158.505 129.446 158.452 129.192L158.059 127.41C158.053 127.366 158.039 127.333 158.019 127.3Z" fill="white"/>
<path d="M91.8694 86.7177C91.8694 86.7177 80.6815 81.7091 74.2068 85.5814C62.3608 92.6641 82.4631 106.283 105.464 112.936C128.464 119.588 135.929 118.678 135.929 118.678C135.929 118.678 140.928 117.536 139.154 110.818C139.154 110.818 125.898 106.636 118.998 102.257C112.098 97.8768 107.398 92.5097 91.8694 86.7177Z" fill="#21B573"/>
<path d="M138.256 112.777C133.43 111.817 123.605 108.072 111.965 102.771C103.257 98.8045 93.2189 93.7351 91.7432 91.9755C90.9455 91.0267 90.7461 90.2489 91.1449 89.6642C91.7432 88.7927 93.4716 88.7044 94.256 88.7099C94.4554 88.7099 94.6149 88.8534 94.6016 89.0188C94.5883 89.1733 94.4355 89.2891 94.2493 89.2891C93.4782 89.2836 92.1287 89.3939 91.7498 89.9511C91.4307 90.4144 91.8828 91.126 92.3149 91.639C93.5048 93.0566 101.907 97.5247 112.297 102.258C121.245 106.334 132.805 111.089 138.416 112.209L138.256 112.777Z" fill="#217C58"/>
<path d="M137.346 109.93C136.801 113.46 135.697 116.671 133.297 119.136C133.297 119.136 135.358 120.367 137.239 119.484C138.675 118.811 141.447 113.295 140.39 110.349C139.187 109.798 138.15 109.61 137.346 109.93Z" fill="#217C58"/>
<path d="M108.163 113.371C108.163 113.371 112.736 112.638 114.033 111.336L117.682 117.321L107.172 120.697C107.166 120.702 106.461 114.695 108.163 113.371Z" fill="#EA9B7A"/>
<path d="M83.8061 133.218L95.6255 106.884C96.144 106.818 96.7954 106.901 97.5466 107.083C100.305 107.75 104.274 109.78 106.813 110.966C107.112 111.104 107.385 111.231 107.644 111.341C108.076 111.529 108.435 111.678 108.715 111.76C110.922 112.439 110.004 112.957 110.004 112.957C105.657 114.651 108.841 120.112 106.501 121.397C106.501 121.397 105.504 121.954 102.3 123.344C99.0955 124.734 96.0044 127.829 93.1194 130.383C89.3967 133.682 86.9305 134.183 85.4813 133.979C84.3246 133.819 83.8061 133.218 83.8061 133.218Z" fill="#EBB12B"/>
<path d="M83.8061 133.218L95.6255 106.884C96.144 106.818 96.7954 106.901 97.5466 107.083L85.4747 133.979C84.3246 133.819 83.8061 133.218 83.8061 133.218Z" fill="#C77E2E"/>
<path d="M94.4156 109.571L94.7679 108.787C95.4925 109.902 96.8153 111.143 99.2151 111.772C102.406 112.616 105.225 111.705 106.813 110.961C107.112 111.099 107.385 111.225 107.644 111.336C106.042 112.174 102.798 113.415 98.9758 112.406C96.6824 111.805 95.2731 110.674 94.4156 109.571Z" fill="#C77E2E"/>
<path d="M100.618 122.319C100.704 122.126 100.944 121.993 101.203 122.021C101.509 122.049 101.728 122.28 101.695 122.534L101.449 124.332C101.416 124.586 101.136 124.768 100.831 124.74C100.525 124.713 100.305 124.481 100.339 124.227L100.585 122.429C100.591 122.391 100.605 122.352 100.618 122.319Z" fill="white"/>
<path d="M103.004 121.193C103.091 121 103.33 120.868 103.589 120.895C103.895 120.923 104.115 121.155 104.081 121.408L103.835 123.207C103.802 123.46 103.523 123.643 103.217 123.615C102.911 123.587 102.692 123.356 102.725 123.102L102.971 121.304C102.978 121.265 102.991 121.226 103.004 121.193Z" fill="white"/>
<path d="M98.7298 123.603C98.8162 123.41 99.0555 123.283 99.3148 123.305C99.6206 123.333 99.8399 123.565 99.8067 123.818L99.5607 125.617C99.5275 125.87 99.2483 126.053 98.9425 126.025C98.6367 125.997 98.4174 125.766 98.4506 125.512L98.6966 123.714C98.7032 123.675 98.7098 123.642 98.7298 123.603Z" fill="white"/>
<path d="M96.8823 124.911C96.9687 124.718 97.208 124.591 97.4673 124.613C97.7731 124.641 97.9925 124.872 97.9592 125.126L97.7132 126.924C97.68 127.178 97.4008 127.36 97.095 127.333C96.7892 127.305 96.5699 127.073 96.6031 126.82L96.8491 125.021C96.8557 124.983 96.869 124.944 96.8823 124.911Z" fill="white"/>
<path d="M95.0539 126.383C95.1403 126.19 95.3796 126.063 95.6389 126.085C95.9446 126.113 96.1641 126.345 96.1308 126.598L95.8848 128.397C95.8516 128.65 95.5724 128.833 95.2666 128.805C94.9608 128.777 94.7414 128.546 94.7747 128.292L95.0206 126.494C95.0273 126.455 95.0406 126.422 95.0539 126.383Z" fill="white"/>
<path d="M93.3055 128.06C93.3919 127.867 93.6312 127.735 93.8904 127.762C94.1962 127.79 94.4156 128.021 94.3824 128.275L94.1364 130.073C94.1032 130.327 93.824 130.509 93.5182 130.482C93.2124 130.454 92.993 130.222 93.0263 129.969L93.2722 128.17C93.2789 128.132 93.2922 128.093 93.3055 128.06Z" fill="white"/>
<path d="M158.558 82.6528C158.558 82.6528 169.141 76.8112 176.021 80.1761C188.605 86.3265 170.092 101.419 147.922 109.792C125.759 118.166 118.221 117.829 118.221 117.829C118.221 117.829 113.122 117.073 114.139 110.244C114.139 110.244 126.876 105.07 133.264 100.183C139.653 95.3013 143.741 89.5976 158.558 82.6528Z" fill="#21B573"/>
<path d="M139.2 112.942C137.977 113.273 136.741 113.609 135.458 113.946C130.499 115.242 124.835 116.599 119.71 117.641L119.69 118.248C124.323 117.31 129.754 116.042 135.664 114.497C136.82 114.194 137.997 113.879 139.18 113.554L139.2 112.942Z" fill="#217C58"/>
<path d="M115.256 112.125C119.956 110.801 129.329 106.328 140.331 100.161C148.56 95.5494 158 89.7354 159.27 87.871C159.954 86.867 160.074 86.0782 159.609 85.5266C158.917 84.7047 157.189 84.7433 156.404 84.8095C156.205 84.8261 156.059 84.9805 156.092 85.146C156.125 85.2949 156.285 85.3998 156.471 85.3887C157.242 85.328 158.591 85.3336 159.037 85.8576C159.402 86.2934 159.037 87.038 158.665 87.5841C157.641 89.0845 149.764 94.1704 139.938 99.681C131.483 104.419 120.494 110.035 115.03 111.579L115.256 112.125Z" fill="#217C58"/>
<path d="M115.841 109.224C116.772 112.699 118.228 115.81 120.893 118.082C120.893 118.082 118.979 119.467 117.011 118.728C115.509 118.165 112.138 112.881 112.863 109.869C114 109.235 115.01 108.964 115.841 109.224Z" fill="#217C58"/>
<path d="M114.411 81.3566L113.56 91.4346C113.56 91.4346 99.115 89.7246 92.0287 88.2242C89.9613 87.7884 87.648 87.2258 85.5207 86.288C81.6053 84.5615 78.3613 81.5552 78.6006 75.6971C78.6737 73.8161 79.1125 71.6427 80.0033 69.1163C85.1618 54.4821 93.8036 42.1921 93.8036 42.1921C104.925 46.1417 103.988 52.7169 103.988 52.7169C100.817 59.7389 93.8036 74.6931 93.8036 74.6931C97.8786 78.8247 114.411 81.3566 114.411 81.3566Z" fill="#0875F7"/>
<path d="M93.8039 75.013C93.7374 75.013 93.6643 74.9964 93.6044 74.9633C92.3746 74.3345 89.0309 73.6781 88.9977 73.6725C88.7916 73.6339 88.6653 73.4629 88.7185 73.2974C88.765 73.1264 88.9711 73.0272 89.1705 73.0658C89.2902 73.0878 91.6367 73.5457 93.1856 74.0973C92.9596 73.6781 92.5874 73.2312 92.0755 72.7458C91.9359 72.6134 91.9558 72.4204 92.1087 72.3045C92.2683 72.1887 92.501 72.2052 92.6406 72.3321C93.5313 73.1706 94.0365 73.9318 94.1761 74.6544C94.2027 74.7758 94.1362 74.8971 94.0166 74.9633C93.9501 74.9964 93.877 75.013 93.8039 75.013Z" fill="#084FC7"/>
<path d="M85.5209 86.2929C81.6054 84.5663 78.3614 81.56 78.6007 75.7019C81.7051 77.0478 87.1096 80.3079 85.5209 86.2929Z" fill="#084FC7"/>
<path d="M105.331 79.8118C105.298 79.8118 105.271 79.8063 105.238 79.8007C98.0851 78.2673 93.7376 75.0679 93.5581 74.93C93.4318 74.8362 93.3986 74.6818 93.4717 74.5549C98.5704 66.2311 101.801 59.6228 103.629 53.7536C103.682 53.5881 103.888 53.4833 104.088 53.5274C104.287 53.5716 104.414 53.7426 104.36 53.9081C102.532 59.7717 99.3282 66.3524 94.276 74.6156C95.2399 75.2775 99.3349 77.8867 105.424 79.1885C105.623 79.2326 105.75 79.4036 105.697 79.5691C105.65 79.718 105.497 79.8118 105.331 79.8118Z" fill="#084FC7"/>
<path d="M102.465 58.4261C102.386 58.4261 102.299 58.404 102.233 58.3599C102.067 58.2495 102.04 58.0565 102.173 57.9186L104.825 55.155C104.958 55.0171 105.191 54.995 105.357 55.1054C105.523 55.2157 105.55 55.4087 105.417 55.5466L102.765 58.3102C102.685 58.3819 102.572 58.4261 102.465 58.4261Z" fill="#084FC7"/>
<path d="M114.83 33.0189L127.66 34.5413C135.996 33.8518 138.648 31.0993 140.011 25.2853C140.696 22.3617 140.244 19.7802 139.572 17.8606C139.399 15.6762 138.794 13.7897 137.551 12.543C131.921 6.91108 126.962 7.13172 126.962 7.13172C124.442 6.17192 116.12 5.51549 110.629 11.0482C110.456 11.1695 107.106 14.1151 106.334 20.2932C105.59 26.1899 110.33 33.7139 114.83 33.0189Z" fill="#39393B"/>
<path d="M121.996 8.68146C121.996 8.68146 123.332 -1.13724 112.829 0.109404C105.969 0.920274 101.721 8.63733 107.996 12.1401C114.265 15.6428 121.996 8.68146 121.996 8.68146Z" fill="#39393B"/>
<path d="M109.046 13.1496C108.993 13.1496 108.94 13.1385 108.887 13.1165C108.727 13.0447 108.667 12.8737 108.754 12.7414C111.187 9.07314 114.657 7.4514 117.136 6.73431C119.829 5.96205 121.923 6.05583 122.009 6.05583C122.195 6.06686 122.335 6.19373 122.322 6.34818C122.308 6.50263 122.155 6.61847 121.969 6.60744C121.889 6.60192 113.786 6.29302 109.339 13.0061C109.279 13.0944 109.166 13.1496 109.046 13.1496Z" fill="#EBB12B"/>
<path d="M115.834 30.8072C115.834 30.8072 107.651 27.0066 109.26 19.0965C110.868 11.1864 117.143 6.42593 126.763 8.72064C126.763 8.72064 125.832 31.585 115.834 30.8072Z" fill="#39393B"/>
<path d="M138.595 16.261C138.595 16.261 139.433 23.0513 137.937 24.0332C136.448 25.0151 134.986 22.3287 134.986 22.3287C134.986 22.3287 137.02 16.3382 138.595 16.261Z" fill="#39393B"/>
<path d="M134.826 24.6504C134.826 24.6504 137.265 22.8742 138.076 25.0531C138.887 27.2319 137.245 31.2422 134.207 30.1776L134.826 24.6504Z" fill="#D46A43"/>
<path d="M137.831 29.6816C137.498 29.9353 137.126 30.156 136.72 30.338C135.185 31.022 133.184 31.1047 130.777 30.0567C130.777 30.0567 127.7 26.736 132.247 20.8778C132.247 20.8778 136.415 19.9677 138.801 22.0583C139.067 22.29 139.306 22.5547 139.519 22.8636C139.652 23.0512 139.765 23.2553 139.871 23.4759C140.716 25.2576 139.931 28.0984 137.831 29.6816Z" fill="#21B573"/>
<path d="M137.718 21.3471C137.911 20.5639 138.103 19.593 138.23 18.5174C138.17 18.5394 138.11 18.556 138.044 18.556C137.784 18.5725 137.532 18.4843 137.279 18.3298C137.166 19.3338 136.993 20.2439 136.82 20.9996L137.718 21.3471Z" fill="white"/>
<path d="M137.831 29.6811C137.499 29.9349 137.126 30.1555 136.721 30.3376C138.828 26.7135 138.888 23.4038 138.801 22.0579C139.067 22.2895 139.307 22.5543 139.519 22.8632C139.519 24.3857 139.24 26.89 137.831 29.6811Z" fill="#217C58"/>
<path d="M127.713 34.4474L126.709 40.0628C126.709 40.0628 122.568 44.4702 112.982 37.2827C114.072 34.999 115.747 32.0589 115.315 29.8083C115.315 29.8083 116.013 30.3434 117.223 30.9778C117.469 31.1102 117.735 31.2481 118.014 31.386C120.5 32.6381 124.303 34.2488 127.713 34.4474Z" fill="#EA9B7A"/>
<path d="M127.713 34.4476L127.241 37.0732C124.443 36.1796 119.603 34.2435 117.217 30.9724C117.463 31.1048 117.729 31.2427 118.008 31.3806C120.501 32.6383 124.303 34.249 127.713 34.4476Z" fill="#39393B"/>
<path d="M136.907 24.8989C136.8 25.4781 136.701 26.0242 136.594 26.5427C135.823 30.415 135.118 32.5001 133.822 33.3275C127.261 37.5032 115.694 30.1227 115.322 29.8855C115.315 29.88 115.315 29.88 115.315 29.88C115.276 29.4276 115.249 28.9808 115.236 28.5451C115.083 24.8162 115.634 21.4403 116.658 18.2906C117.05 14.8871 120.035 12.0408 124.07 11.3568C128.252 10.6508 131.549 12.5373 133.59 13.3426C136.667 14.5672 138.077 18.2796 137.213 23.211C137.106 23.8012 137.006 24.3638 136.907 24.8989Z" fill="#EA9B7A"/>
<path d="M131.043 29.4112C127.374 29.4112 125.905 26.4987 125.891 26.4656C125.825 26.3221 125.905 26.1622 126.078 26.107C126.25 26.0518 126.443 26.118 126.51 26.2615C126.576 26.3883 128.112 29.4112 132.114 28.7713C132.293 28.7437 132.466 28.843 132.506 28.9919C132.539 29.1409 132.419 29.2843 132.24 29.3174C131.814 29.3781 131.416 29.4112 131.043 29.4112Z" fill="#39393B"/>
<path d="M128.218 18.8973C129.162 18.627 128.969 17.4741 127.972 17.419C126.277 17.3307 123.552 17.3638 123.326 18.5001C122.993 20.1605 126.157 19.471 128.158 18.9138C128.178 18.9083 128.198 18.9028 128.218 18.8973Z" fill="#39393B"/>
<path d="M133.223 19.3887C132.492 18.8261 133.23 17.8332 134.167 18.12C135.763 18.6055 138.242 19.5487 137.897 20.663C137.398 22.2957 134.832 20.6023 133.27 19.4274C133.25 19.4108 133.237 19.3998 133.223 19.3887Z" fill="#39393B"/>
<path d="M128.338 30.7686C129.009 30.9065 129.574 30.8017 129.614 30.7907C129.734 30.7686 129.807 30.6693 129.781 30.57C129.754 30.4708 129.634 30.4101 129.515 30.4321C129.501 30.4321 128.404 30.6362 127.574 30.0295C127.48 29.9633 127.341 29.9688 127.261 30.046C127.181 30.1232 127.188 30.2391 127.281 30.3053C127.62 30.559 127.992 30.6969 128.338 30.7686Z" fill="#D46A43"/>
<path d="M130.638 26.984C130.578 26.9619 130.538 26.9178 130.512 26.8681C130.472 26.7633 130.538 26.6475 130.665 26.6144L132.267 26.1786L131.316 25.3788C131.263 25.3347 131.236 25.274 131.25 25.2133L131.542 23.0124C131.556 22.902 131.675 22.8193 131.815 22.8359C131.948 22.8469 132.047 22.9462 132.028 23.0565L131.742 25.1581L132.885 26.1179C132.945 26.1676 132.971 26.2393 132.952 26.3055C132.932 26.3717 132.872 26.4268 132.792 26.4489L130.818 26.9895C130.758 27.0171 130.698 27.0116 130.638 26.984Z" fill="#39393B"/>
<path d="M126.49 24.8822C126.41 25.34 125.207 25.5662 123.811 25.3952C122.415 25.2242 121.345 24.7112 121.431 24.2533C121.511 23.7955 122.714 23.5693 124.11 23.7403C125.5 23.9169 126.57 24.4243 126.49 24.8822Z" fill="#D46A43"/>
<g opacity="0.8">
<g opacity="0.8">
<g opacity="0.8">
<g opacity="0.8">
<g opacity="0.8">
<g opacity="0.8">
<g opacity="0.8">
<g opacity="0.8">
<g opacity="0.8">
<g opacity="0.8">
<g opacity="0.8">
<path opacity="0.8" d="M136.907 25.4344C136.8 26.0136 136.701 26.5597 136.594 27.0782C135.318 26.8796 134.381 26.3997 134.46 25.975C134.533 25.5392 135.61 25.3131 136.907 25.4344Z" fill="#D46A43"/>
</g>
</g>
</g>
</g>
</g>
</g>
</g>
</g>
</g>
</g>
</g>
<path d="M127.853 23.2499C127.74 23.8787 127.308 24.342 126.882 24.2924C126.457 24.2428 126.211 23.6911 126.317 23.0623C126.43 22.4335 126.862 21.9701 127.288 22.0198C127.713 22.0694 127.966 22.621 127.853 23.2499Z" fill="#39393B"/>
<path d="M135.325 24.171C135.212 24.7998 134.78 25.2632 134.354 25.2135C133.929 25.1639 133.683 24.6123 133.789 23.9834C133.902 23.3546 134.334 22.8913 134.76 22.9409C135.192 22.9961 135.438 23.5477 135.325 24.171Z" fill="#39393B"/>
<path d="M118.24 27.6458C118.194 27.7119 116.858 29.4992 115.322 29.8853C115.315 29.8798 115.315 29.8798 115.315 29.8798C115.275 29.4275 115.249 28.9806 115.236 28.5449C115.289 28.5394 116.764 28.5063 118.24 27.6458Z" fill="#39393B"/>
<path d="M117.635 23.1165C117.635 23.1165 115.216 19.3766 112.53 21.7486C110.316 23.7013 112.709 29.9345 116.784 28.2686L117.635 23.1165Z" fill="#EA9B7A"/>
<path d="M116.472 27.2489C116.313 27.2268 116.2 27.1165 116.206 26.9786C116.326 24.386 113.913 23.1835 113.813 23.1338C113.667 23.0621 113.614 22.9022 113.7 22.7753C113.786 22.6484 113.979 22.6098 114.132 22.6815C114.245 22.7367 116.977 24.0881 116.838 27.0006C116.831 27.144 116.685 27.2544 116.512 27.2489C116.492 27.2489 116.485 27.2489 116.472 27.2489Z" fill="#39393B"/>
<path d="M113.853 25.3241C113.76 25.3131 113.68 25.2689 113.627 25.1972C113.54 25.0759 113.587 24.9159 113.74 24.8387C113.88 24.7725 115.123 24.1768 116.02 24.4912C116.18 24.5463 116.253 24.7008 116.186 24.8332C116.12 24.9656 115.934 25.0262 115.774 24.9711C115.256 24.789 114.338 25.1476 114.059 25.2855C113.993 25.3241 113.919 25.3351 113.853 25.3241Z" fill="#39393B"/>
<path d="M125.127 26.5429C122.76 25.7927 121.571 23.5863 122.475 21.6225C123.379 19.6588 126.038 18.6714 128.404 19.4216C130.771 20.1718 131.961 22.3782 131.057 24.342C130.153 26.3057 127.494 27.2931 125.127 26.5429ZM128.165 19.9401C126.144 19.3002 123.871 20.1442 123.099 21.8211C122.328 23.498 123.345 25.3845 125.366 26.0244C127.387 26.6643 129.661 25.8203 130.432 24.1434C131.203 22.4665 130.186 20.58 128.165 19.9401Z" fill="white"/>
<path d="M122.621 22.1296C122.581 22.1296 122.541 22.1186 122.501 22.102C120.015 21.1588 117.682 21.8759 117.655 21.8869C117.482 21.9421 117.29 21.8704 117.223 21.7269C117.157 21.5835 117.243 21.4236 117.416 21.3684C117.522 21.3353 120.042 20.5575 122.78 21.6001C122.947 21.6663 123.02 21.8317 122.947 21.9696C122.88 22.0745 122.754 22.1351 122.621 22.1296Z" fill="white"/>
<path d="M135.291 27.4975C132.924 26.7473 131.735 24.5409 132.639 22.5771C133.543 20.6134 136.202 19.626 138.568 20.3762C140.935 21.1264 142.125 23.3328 141.221 25.2966C140.323 27.2603 137.658 28.2477 135.291 27.4975ZM138.336 20.8947C136.315 20.2548 134.041 21.0988 133.27 22.7757C132.499 24.4526 133.516 26.3391 135.537 26.979C137.558 27.6188 139.831 26.7749 140.602 25.098C141.367 23.4211 140.356 21.5346 138.336 20.8947Z" fill="white"/>
<path d="M130.844 22.7252C130.791 22.7031 130.751 22.67 130.717 22.6259C130.618 22.4935 130.664 22.3225 130.824 22.2398C130.87 22.2177 131.987 21.6496 133.151 22.3887C133.297 22.4825 133.323 22.659 133.21 22.7804C133.097 22.9017 132.885 22.9238 132.738 22.83C131.941 22.3225 131.183 22.7087 131.176 22.7087C131.07 22.7693 130.943 22.7693 130.844 22.7252Z" fill="white"/>
<path d="M133.304 9.91781C136.096 10.9604 138.289 12.891 139.267 15.296C139.878 16.8019 140.39 18.7932 137.837 18.534C130.871 17.8334 127.141 11.8319 127.141 11.8319C127.141 11.8319 125.785 17.3591 120.314 16.6861C114.843 16.0076 115.016 12.5876 118.127 10.6514C120.66 9.07383 127.115 7.60655 133.304 9.91781Z" fill="#39393B"/>
<path d="M120.527 16.0511C120.527 16.0511 117.416 18.8257 118.533 21.8099C119.649 24.7941 119.722 27.1881 118.559 28.7933C118.559 28.7933 118.26 25.6491 116.871 23.2662C115.734 21.3079 114.67 19.8186 115.495 17.5625C116.053 16.0125 117.422 14.5286 120.527 16.0511Z" fill="#39393B"/>
<path d="M115.468 29.5879C113.055 30.0733 111.187 29.792 109.805 29.0694C109.585 28.9535 109.379 28.8267 109.18 28.6943C106.281 26.6809 106.069 22.5052 107.844 20.4587C108.468 19.7361 109.193 19.2507 109.957 18.9418C110.19 18.8425 110.423 18.7653 110.655 18.7046C113.653 17.8882 116.904 19.3831 116.904 19.3831C120.301 27.1442 115.468 29.5879 115.468 29.5879Z" fill="#21B573"/>
<path d="M123.957 32.9857C116.904 31.7887 113.906 27.5744 113.767 27.3703C113.654 27.2103 113.72 27.0007 113.919 26.9069C114.112 26.8131 114.365 26.8683 114.478 27.0338C114.524 27.1 118.187 32.2079 126.736 32.594C126.962 32.6051 127.135 32.765 127.122 32.9526C127.108 33.1401 126.915 33.2835 126.689 33.2725C125.719 33.2284 124.808 33.1291 123.957 32.9857Z" fill="white"/>
<path d="M128.983 33.1844C128.837 33.7691 128.145 34.1497 127.441 34.0284C126.736 33.907 126.277 33.3333 126.424 32.7486C126.57 32.1639 127.261 31.7833 127.966 31.9046C128.671 32.0205 129.129 32.5942 128.983 33.1844Z" fill="#243434"/>
<path d="M109.805 29.0752C109.585 28.9594 109.379 28.8325 109.18 28.7001C111.413 24.5079 110.656 20.8452 109.951 18.9476C110.184 18.8484 110.416 18.7711 110.649 18.7104C111.4 20.7183 112.224 24.6293 109.805 29.0752Z" fill="#217C58"/>
<path d="M138.436 13.7239C137.844 12.8027 137.186 12.1904 136.86 11.887C136.588 11.2306 136.295 10.6128 135.857 10.0391C134.381 8.09742 132.048 6.90594 128.91 6.50326C125.526 6.06749 122.588 6.62461 120.182 8.15258C119.43 8.62696 118.766 9.1841 118.167 9.77984C117.343 10.6128 116.658 11.534 116.1 12.4552C114.159 15.6766 113.694 18.9862 113.687 19.0304L112.763 18.9476C112.803 18.6332 113.846 11.1975 119.61 7.53477C122.222 5.87442 125.4 5.26765 129.049 5.73652C132.466 6.1723 135.019 7.48513 136.641 9.62538C137.585 10.8665 138.143 12.2786 138.436 13.7239Z" fill="white"/>
<path d="M103.363 98.6162L100.146 93.5414C99.3412 92.2782 100.465 90.7612 102.186 90.7723L152.728 91.2246L151.239 97.7226L103.363 98.6162Z" fill="#39393B"/>
<path d="M150.362 97.188H105.132C104.041 97.188 103.25 96.4544 103.377 95.5497L106.461 72.36C106.581 71.4553 107.565 70.7217 108.655 70.7217H153.885C154.975 70.7217 155.766 71.4553 155.64 72.36L152.555 95.5497C152.436 96.4544 151.452 97.188 150.362 97.188Z" fill="#39393B"/>
<path d="M104.46 98.1863C104.447 98.1863 104.427 98.1863 104.413 98.1863C104.207 98.1643 104.054 98.0043 104.081 97.8333L107.837 72.9997C107.863 72.8287 108.056 72.7019 108.262 72.7239C108.468 72.746 108.621 72.906 108.595 73.077L104.839 97.9105C104.812 98.0705 104.646 98.1863 104.46 98.1863Z" fill="#564C54"/>
<path d="M126.463 84.3684C126.291 86.2329 127.946 87.8381 130.153 87.9539C132.366 88.0697 134.301 86.6576 134.474 84.7932C134.647 82.9287 132.991 81.3235 130.784 81.2077C128.571 81.0863 126.636 82.504 126.463 84.3684Z" fill="#585859"/>
<path d="M150.581 99.2074H104.726C103.716 99.2074 102.944 98.4682 103.077 97.6408L103.516 94.9875H152.728L152.23 98.0104C152.117 98.6999 151.412 99.2074 150.581 99.2074Z" fill="#39393B"/>
<path d="M117.35 91.7218L117.017 93.0456H118.526L118.36 94.6232H116.612L116.246 96.063H114.245L114.611 94.6232H113.374L113.009 96.063H111.008L111.374 94.6232H109.865L110.031 93.0512H111.779L112.111 91.7273H110.602L110.769 90.1497H112.517L112.883 88.71H114.883L114.518 90.1497H115.754L116.12 88.71H118.121L117.755 90.1497H119.264L119.098 91.7273L117.35 91.7218ZM115.355 91.7218H114.119L113.787 93.0456H115.023L115.355 91.7218Z" fill="#EBB12B"/>
<path d="M163.045 55.0715C163.045 60.7862 168.629 65.4253 175.523 65.4253C182.41 65.4253 188 60.7918 188 55.0715C188 49.3568 182.416 44.7178 175.523 44.7178C168.629 44.7178 163.045 49.3513 163.045 55.0715Z" fill="#DF615C"/>
<path d="M169.141 63.5395L162.433 64.7144L165.338 59.9209L169.141 63.5395Z" fill="#DF615C"/>
<path d="M176.579 52.8488C176.579 52.3634 176.014 52.1152 175.316 52.1152C174.505 52.1152 173.754 52.5234 173.355 53.1798L169.998 51.7897C170.962 50.2893 172.863 49.2578 175.881 49.2578C178.84 49.2578 181.047 50.2893 181.047 52.2476C181.047 54.6416 178.029 55.0608 178.029 56.2688H174.146C174.146 54.3657 176.579 53.8031 176.579 52.8488ZM173.601 58.729C173.601 57.6809 174.618 56.8811 176.087 56.8811C177.557 56.8811 178.574 57.6809 178.574 58.729C178.574 59.7605 177.557 60.6045 176.087 60.6045C174.618 60.6045 173.601 59.7605 173.601 58.729Z" fill="white"/>
<path d="M39.0412 113.901C39.0412 113.901 33.9425 107.254 21.5714 101.214C12.8298 96.95 7.73781 84.9028 7.73781 84.9028C7.73781 84.9028 24.483 85.5096 31.7621 93.9658C39.0412 102.428 39.0412 113.901 39.0412 113.901Z" fill="#21B573"/>
<path d="M39.101 114.083C38.988 114.083 38.8883 114.023 38.8617 113.929C36.5085 106.554 31.3566 101.209 27.4478 98.0206C23.2133 94.5675 19.4973 92.8409 19.4575 92.8244C19.3378 92.7692 19.2913 92.6423 19.3578 92.543C19.4242 92.4438 19.5771 92.4051 19.6968 92.4603C19.7366 92.4769 23.5125 94.231 27.7935 97.7282C31.7488 100.95 36.9605 106.361 39.3403 113.824C39.3736 113.935 39.2938 114.05 39.1609 114.078C39.1409 114.078 39.121 114.083 39.101 114.083Z" fill="#39393B"/>
<path d="M36.8476 113.752C36.8476 113.752 35.3918 111.336 28.8372 111.937C22.2827 112.544 18.6465 115.561 7 110.122C7 110.122 15.7349 104.082 25.201 105.29C34.6605 106.504 35.3918 109.521 36.8476 113.752Z" fill="#21B573"/>
<path d="M36.8809 113.956C36.8011 113.956 36.7147 113.923 36.6682 113.856C36.6416 113.818 33.71 109.995 28.9969 109.283C20.7605 108.042 15.15 110.227 15.0968 110.249C14.9705 110.298 14.8242 110.254 14.7644 110.15C14.7046 110.045 14.7578 109.923 14.8841 109.874C14.9439 109.852 20.6874 107.607 29.0899 108.875C34.0224 109.62 36.9739 113.47 37.0936 113.636C37.1667 113.735 37.1335 113.862 37.0138 113.923C36.9673 113.95 36.9274 113.956 36.8809 113.956Z" fill="#39393B"/>
<path d="M39.7059 113.167C39.7059 113.167 39.1343 110.509 44.8246 107.745C50.5149 104.981 55.6069 105.599 61.038 95.466C61.038 95.466 49.6839 94.9475 42.9633 100.607C36.2426 106.272 37.8313 109.052 39.7059 113.167Z" fill="#21B573"/>
<path d="M39.6793 113.388C39.553 113.388 39.4399 113.305 39.4333 113.2C39.4133 113.007 39.0078 108.456 42.4313 105.417C48.2613 100.237 54.4834 99.1893 54.5432 99.1783C54.6762 99.1562 54.8091 99.2279 54.8357 99.3438C54.8623 99.4541 54.7759 99.5644 54.6363 99.5865C54.5765 99.5975 48.5072 100.624 42.7903 105.698C39.5197 108.605 39.9186 113.123 39.9252 113.167C39.9385 113.283 39.8322 113.382 39.6992 113.388C39.6926 113.388 39.6859 113.388 39.6793 113.388Z" fill="#39393B"/>
<path d="M46.4065 116.45H30.4524C29.5084 116.45 28.7439 115.81 28.7439 115.032V114.436C28.7439 113.653 29.5151 113.019 30.4524 113.019H46.4065C47.3505 113.019 48.115 113.658 48.115 114.436V115.032C48.1216 115.815 47.3505 116.45 46.4065 116.45Z" fill="#DF615C"/>
<path d="M38.5091 146.032C25.4932 146.032 17.2103 144.311 18.5398 136.705C19.3841 131.878 23.9244 127.145 27.1285 124.332C27.5805 123.935 28.006 123.576 28.3849 123.262C29.5748 122.286 30.3725 121.728 30.3725 121.728L30.4124 121.552L30.6384 120.482L30.8977 119.252L31.4959 116.444L31.702 115.462L38.5091 115.214L45.6087 115.462L45.7683 116.444L46.0209 117.983L46.433 120.476L46.6125 121.546L46.6391 121.723C46.6391 121.723 47.4435 122.286 48.6267 123.256C49.0123 123.571 49.4377 123.929 49.8898 124.326C53.0939 127.14 57.6342 131.867 58.4784 136.699C59.808 144.317 51.5251 146.032 38.5091 146.032Z" fill="#DF615C"/>
<path d="M46.6126 121.557H30.4058L30.6318 120.487H46.4331L46.6126 121.557Z" fill="#A92F4B"/>
<path d="M49.89 124.332H27.1221C27.5741 123.935 27.9996 123.577 28.3785 123.262H48.627C49.0125 123.582 49.438 123.941 49.89 124.332Z" fill="#A92F4B"/>
<path d="M46.0209 117.994L30.8977 119.257L31.496 116.45H45.7683L46.0209 117.994Z" fill="#A92F4B"/>
</svg>
