<svg width="624" height="62" viewBox="0 0 624 62" fill="none" xmlns="http://www.w3.org/2000/svg">
<path d="M589.609 60.52V58.5027C593.067 58.5027 595.085 57.8622 595.661 56.5814V24.1118C591.691 23.7916 589.673 23.6315 589.609 23.6315V21.422C590.826 21.422 593.196 20.7496 596.718 19.4047C600.304 17.9957 602.834 17.2913 604.307 17.2913V21.5181C607.509 18.7002 610.679 17.2913 613.817 17.2913C616.699 17.2913 619.101 17.8356 621.022 18.9244C623.007 20.0131 624 21.2299 624 22.5748C624 24.8803 622.719 26.0331 620.157 26.0331C618.813 26.0331 617.596 25.1365 616.507 23.3433C615.418 21.4861 614.169 20.5574 612.761 20.5574C610.263 20.5574 607.445 21.9344 604.307 24.6882V56.5814C604.883 57.8622 606.901 58.5027 610.359 58.5027V60.52H589.609Z" fill="#203582"/>
<path d="M547.252 36.6962C547.252 43.997 548.629 49.4727 551.383 53.1231C554.201 56.7735 557.787 58.5987 562.142 58.5987C565.601 58.5987 568.386 57.0617 570.5 53.9877C572.613 50.8496 573.67 46.8469 573.67 41.9797C573.67 27.5061 568.643 20.2693 558.588 20.2693C555.194 20.2693 552.44 21.9023 550.326 25.1685C548.277 28.3706 547.252 32.2132 547.252 36.6962ZM560.893 61.4806C553.721 61.4806 548.117 59.3993 544.082 55.2365C540.048 51.0097 538.03 45.47 538.03 38.6175C538.03 32.4053 539.856 27.3139 543.506 23.3433C547.156 19.3086 552.728 17.2913 560.221 17.2913C567.778 17.2913 573.446 19.3086 577.224 23.3433C581.003 27.3139 582.892 32.7896 582.892 39.7702C582.892 45.9823 581.067 51.1698 577.416 55.3326C573.83 59.4313 568.322 61.4806 560.893 61.4806Z" fill="#203582"/>
<path d="M519.961 4.3227V18.252H528.222V21.1339H519.961V51.6822C519.961 53.6675 520.313 55.2045 521.017 56.2932C521.722 57.3179 523.035 57.8303 524.956 57.8303C526.109 57.8303 527.261 57.2859 528.414 56.1972C529.631 55.0444 530.464 53.4754 530.912 51.49L533.217 52.6428C531.872 58.5347 528.03 61.4807 521.69 61.4807C514.389 61.4807 510.738 57.9584 510.738 50.9137V21.1339H504.014V18.252C507.024 18.252 509.746 17.0031 512.179 14.5055C514.613 12.0078 515.83 8.61355 515.83 4.3227H519.961Z" fill="#203582"/>
<path d="M482.83 20.1732C478.86 20.1732 475.658 21.6782 473.224 24.6882C470.79 27.6982 469.574 31.7649 469.574 36.8883C469.574 42.3319 471.079 47.1992 474.089 51.49C477.163 55.7168 480.621 57.8302 484.463 57.8302C490.035 57.8302 494.518 55.7168 497.912 51.49L500.218 52.6428C498.361 55.7168 495.927 57.9583 492.917 59.3672C489.971 60.7762 486.064 61.4806 481.197 61.4806C478.764 61.4806 476.426 61.1284 474.185 60.4239C471.943 59.6554 469.734 58.4386 467.556 56.7735C465.379 55.0444 463.65 52.5147 462.369 49.1845C461.088 45.8543 460.448 41.8836 460.448 37.2726C460.448 31.7009 462.401 26.9937 466.307 23.1512C470.278 19.2446 475.465 17.2913 481.87 17.2913C486.929 17.2913 490.836 18.1559 493.59 19.885C496.343 21.6141 497.72 24.1438 497.72 27.474C497.72 28.947 497.336 30.1318 496.568 31.0284C495.799 31.861 494.806 32.2772 493.59 32.2772C492.437 32.2772 491.412 31.989 490.515 31.4127C489.683 30.8363 489.267 30.0037 489.267 28.915C489.267 27.5701 489.587 26.5774 490.227 25.937C490.932 25.2966 491.732 24.9764 492.629 24.9764C491.796 21.7743 488.53 20.1732 482.83 20.1732Z" fill="#203582"/>
<path d="M422.198 37.3686C422.262 42.7482 423.799 47.5194 426.809 51.6821C429.883 55.7809 433.31 57.8302 437.088 57.8302C442.66 57.8302 447.143 55.7168 450.537 51.49L452.843 52.6428C450.985 55.7168 448.552 57.9583 445.542 59.3672C442.596 60.7762 438.689 61.4806 433.822 61.4806C431.388 61.4806 429.051 61.1284 426.809 60.4239C424.568 59.6554 422.358 58.4386 420.181 56.7735C418.004 55.0444 416.274 52.5147 414.994 49.1845C413.713 45.8543 413.072 41.8836 413.072 37.2726C413.072 31.6368 414.801 26.8977 418.26 23.0551C421.782 19.2126 426.649 17.2913 432.861 17.2913C439.65 17.2913 444.709 19.2126 448.039 23.0551C451.37 26.8336 453.035 31.6048 453.035 37.3686H422.198ZM422.294 34.3906H443.621C443.236 29.7796 442.244 26.2572 440.643 23.8236C439.106 21.39 436.384 20.1732 432.477 20.1732C430.236 20.1732 428.058 21.4861 425.945 24.1118C423.895 26.7376 422.679 30.1638 422.294 34.3906Z" fill="#203582"/>
<path d="M395.003 4.3227V18.252H403.264V21.1339H395.003V51.6822C395.003 53.6675 395.355 55.2045 396.059 56.2932C396.764 57.3179 398.077 57.8303 399.998 57.8303C401.151 57.8303 402.303 57.2859 403.456 56.1972C404.673 55.0444 405.505 53.4754 405.954 51.49L408.259 52.6428C406.914 58.5347 403.072 61.4807 396.732 61.4807C389.431 61.4807 385.78 57.9584 385.78 50.9137V21.1339H379.056V18.252C382.066 18.252 384.788 17.0031 387.221 14.5055C389.655 12.0078 390.872 8.61355 390.872 4.3227H395.003Z" fill="#203582"/>
<path d="M343.208 37.3686C343.272 42.7482 344.809 47.5194 347.819 51.6821C350.893 55.7809 354.32 57.8302 358.098 57.8302C363.67 57.8302 368.153 55.7168 371.547 51.49L373.853 52.6428C371.995 55.7168 369.562 57.9583 366.552 59.3672C363.606 60.7762 359.699 61.4806 354.832 61.4806C352.398 61.4806 350.061 61.1284 347.819 60.4239C345.578 59.6554 343.368 58.4386 341.191 56.7735C339.014 55.0444 337.284 52.5147 336.004 49.1845C334.723 45.8543 334.082 41.8836 334.082 37.2726C334.082 31.6368 335.811 26.8977 339.27 23.0551C342.792 19.2126 347.659 17.2913 353.871 17.2913C360.66 17.2913 365.719 19.2126 369.049 23.0551C372.38 26.8336 374.045 31.6048 374.045 37.3686H343.208ZM343.304 34.3906H364.631C364.246 29.7796 363.254 26.2572 361.653 23.8236C360.116 21.39 357.394 20.1732 353.487 20.1732C351.246 20.1732 349.068 21.4861 346.955 24.1118C344.905 26.7376 343.689 30.1638 343.304 34.3906Z" fill="#203582"/>
<path d="M275.644 60.5201V58.5027C279.102 58.5027 281.12 57.8623 281.696 56.5814V8.26132C281.12 6.98047 279.102 6.34004 275.644 6.34004V4.3227H297.739C306.256 4.3227 313.109 6.91642 318.296 12.1039C323.484 17.2273 326.077 23.9517 326.077 32.2773C326.077 40.6028 323.548 47.3913 318.488 52.6428C313.429 57.8943 306.897 60.5201 298.891 60.5201H275.644ZM290.534 7.10855V57.2539H298.891C300.941 57.2539 302.926 56.8056 304.847 55.909C306.833 54.9483 308.722 53.5394 310.515 51.6822C312.308 49.8249 313.749 47.2312 314.838 43.901C315.927 40.5708 316.471 36.7282 316.471 32.3733C316.471 24.0478 314.582 17.7716 310.803 13.5448C307.089 9.25398 302.734 7.10855 297.739 7.10855H290.534Z" fill="#203582"/>
<path d="M197.849 60.52V58.5027C201.307 58.5027 203.324 57.8622 203.901 56.5814V24.1118C199.93 23.7916 197.913 23.6315 197.849 23.6315V21.422C199.066 21.422 201.435 20.7496 204.957 19.4047C208.544 17.9957 211.074 17.2913 212.547 17.2913V21.7102C216.005 18.7643 219.815 17.2913 223.978 17.2913C229.934 17.2913 234.225 18.412 236.851 20.6535C239.54 22.831 240.885 26.2572 240.885 30.9323V56.5814C241.462 57.8622 243.479 58.5027 246.937 58.5027V60.52H226.188V58.5027C229.646 58.5027 231.663 57.8622 232.24 56.5814V30.2599C232.24 23.7916 229.294 20.5574 223.402 20.5574C219.367 20.5574 215.749 21.9664 212.547 24.7843V56.5814C213.123 57.8622 215.14 58.5027 218.599 58.5027V60.52H197.849Z" fill="#203582"/>
<path d="M155.492 36.6962C155.492 43.997 156.869 49.4727 159.623 53.1231C162.441 56.7735 166.027 58.5987 170.382 58.5987C173.84 58.5987 176.626 57.0617 178.74 53.9877C180.853 50.8496 181.91 46.8469 181.91 41.9797C181.91 27.5061 176.882 20.2693 166.828 20.2693C163.433 20.2693 160.68 21.9023 158.566 25.1685C156.517 28.3706 155.492 32.2132 155.492 36.6962ZM169.133 61.4806C161.96 61.4806 156.357 59.3993 152.322 55.2365C148.287 51.0097 146.27 45.47 146.27 38.6175C146.27 32.4053 148.095 27.3139 151.746 23.3433C155.396 19.3086 160.968 17.2913 168.461 17.2913C176.018 17.2913 181.685 19.3086 185.464 23.3433C189.243 27.3139 191.132 32.7896 191.132 39.7702C191.132 45.9823 189.307 51.1698 185.656 55.3326C182.07 59.4313 176.562 61.4806 169.133 61.4806Z" fill="#203582"/>
<path d="M120.266 60.5202V58.5029C123.724 58.5029 125.742 57.8625 126.318 56.5816V24.112C122.347 23.7918 120.33 23.6317 120.266 23.6317V21.4222C121.483 21.4222 123.852 20.7498 127.375 19.4049C130.961 17.996 133.491 17.2915 134.964 17.2915V56.5816C135.54 57.8625 137.557 58.5029 141.016 58.5029V60.5202H120.266ZM130.353 11.1434C128.944 11.1434 127.695 10.6311 126.606 9.60639C125.581 8.51766 125.069 7.14075 125.069 5.47564C125.069 4.00266 125.517 2.72181 126.414 1.63309C127.375 0.544362 128.591 0 130.064 0C131.473 0 132.722 0.544362 133.811 1.63309C134.9 2.72181 135.444 4.09873 135.444 5.76383C135.444 7.23681 134.964 8.51766 134.003 9.60639C133.042 10.6311 131.826 11.1434 130.353 11.1434Z" fill="#203582"/>
<path d="M98.241 58.5987C100.034 58.5987 101.988 58.0223 104.101 56.8696C106.278 55.7168 107.367 53.9877 107.367 51.6821C107.367 47.9677 103.557 44.7655 95.9355 42.0758C94.0783 41.4353 92.5412 40.8269 91.3244 40.2505C90.1717 39.6742 88.8908 38.8736 87.4819 37.8489C86.0729 36.8243 85.0162 35.5754 84.3118 34.1025C83.6073 32.6295 83.2551 30.9003 83.2551 28.915C83.2551 25.3286 84.5679 22.5107 87.1937 20.4614C89.8194 18.348 92.9895 17.2913 96.704 17.2913C98.8815 17.2913 101.091 17.7716 103.332 18.7322C105.638 19.6929 106.951 20.1732 107.271 20.1732C108.04 20.1732 108.424 19.5328 108.424 18.2519H110.633V29.7796H108.52C108.136 27.0898 106.823 24.8163 104.581 22.959C102.404 21.1018 99.8741 20.1732 96.9922 20.1732C94.9428 20.1732 93.2137 20.6535 91.8048 21.6141C90.4599 22.5748 89.7874 23.8877 89.7874 25.5528C89.7874 26.5134 89.9795 27.41 90.3638 28.2426C90.7481 29.0111 91.1323 29.6515 91.5166 30.1638C91.9008 30.6121 92.6053 31.1245 93.63 31.7009C94.7187 32.2772 95.5192 32.6935 96.0316 32.9497C96.608 33.1418 97.6006 33.494 99.0096 34.0064C100.483 34.5187 101.475 34.871 101.988 35.0631C105.318 36.3439 108.168 38.1692 110.537 40.5387C112.907 42.8443 114.092 45.534 114.092 48.6081C114.092 52.5147 112.523 55.6528 109.384 58.0223C106.246 60.3279 102.276 61.4806 97.4725 61.4806C95.167 61.4806 92.9255 60.9363 90.7481 59.8476C88.5706 58.7588 87.3538 58.2145 87.0976 58.2145C86.7134 58.2145 86.2651 58.4706 85.7527 58.983C85.2404 59.4953 84.9842 60.0077 84.9842 60.52H82.6787V46.975H84.7921C85.2404 50.2412 86.7454 52.995 89.3071 55.2365C91.9328 57.478 94.9108 58.5987 98.241 58.5987Z" fill="#203582"/>
<path d="M55.6292 60.5202V58.5029C59.0875 58.5029 61.1048 57.8625 61.6812 56.5816V24.112C57.7106 23.7918 55.6933 23.6317 55.6292 23.6317V21.4222C56.846 21.4222 59.2156 20.7498 62.7379 19.4049C66.3243 17.996 68.854 17.2915 70.327 17.2915V56.5816C70.9034 57.8625 72.9207 58.5029 76.379 58.5029V60.5202H55.6292ZM65.7159 11.1434C64.307 11.1434 63.0582 10.6311 61.9694 9.60639C60.9448 8.51766 60.4324 7.14075 60.4324 5.47564C60.4324 4.00266 60.8807 2.72181 61.7773 1.63309C62.7379 0.544362 63.9548 0 65.4277 0C66.8367 0 68.0855 0.544362 69.1742 1.63309C70.2629 2.72181 70.8073 4.09873 70.8073 5.76383C70.8073 7.23681 70.327 8.51766 69.3664 9.60639C68.4057 10.6311 67.1889 11.1434 65.7159 11.1434Z" fill="#203582"/>
<path d="M21.038 4.3227V6.34004C18.092 6.34004 16.2348 6.72429 15.4663 7.4928L30.164 47.7436L44.2854 8.06919C43.645 6.91642 41.6597 6.34004 38.3295 6.34004V4.3227H54.084V6.34004C50.4976 6.34004 48.5443 6.85238 48.224 7.87706L29.3955 60.5201H24.7845L6.14807 8.35738C5.63573 7.01248 3.58638 6.34004 0 6.34004V4.3227H21.038Z" fill="#203582"/>
</svg>
