<svg width="20" height="20" viewBox="0 0 20 20" fill="none" xmlns="http://www.w3.org/2000/svg">
<path d="M8.55728 2.87589C9.22193 1.81916 10.7777 1.81916 11.4424 2.87589L13.0498 5.43151C13.2836 5.80331 13.6551 6.07012 14.0851 6.17508L17.0405 6.89654C18.2626 7.19486 18.7434 8.65757 17.9321 9.60898L15.9701 11.9099C15.6846 12.2446 15.5427 12.6764 15.5746 13.113L15.7938 16.1145C15.8844 17.3556 14.6257 18.2596 13.4597 17.7909L10.6397 16.6573C10.2294 16.4924 9.77024 16.4924 9.35998 16.6573L6.53999 17.7909C5.37395 18.2596 4.11526 17.3556 4.20589 16.1145L4.42506 13.113C4.45694 12.6764 4.31504 12.2446 4.0296 11.9099L2.06758 9.60898C1.2563 8.65757 1.73708 7.19486 2.95913 6.89654L5.91458 6.17508C6.34454 6.07012 6.71604 5.80331 6.94989 5.43151L8.55728 2.87589Z" fill="#F5B546"/>
</svg>
