<svg width="40" height="40" viewBox="0 0 40 40" fill="none" xmlns="http://www.w3.org/2000/svg">
<path d="M20 0C21.8359 0 23.6068 0.234375 25.3125 0.703125C27.0182 1.17188 28.6133 1.84245 30.0977 2.71484C31.582 3.58724 32.9297 4.62891 34.1406 5.83984C35.3516 7.05078 36.3932 8.40495 37.2656 9.90234C38.138 11.3997 38.8086 12.9948 39.2773 14.6875C39.7461 16.3802 39.987 18.151 40 20C40 21.8359 39.7656 23.6068 39.2969 25.3125C38.8281 27.0182 38.1576 28.6133 37.2852 30.0977C36.4128 31.582 35.3711 32.9297 34.1602 34.1406C32.9492 35.3516 31.5951 36.3932 30.0977 37.2656C28.6003 38.138 27.0052 38.8086 25.3125 39.2773C23.6198 39.7461 21.849 39.987 20 40C18.1641 40 16.3932 39.7656 14.6875 39.2969C12.9818 38.8281 11.3867 38.1576 9.90234 37.2852C8.41797 36.4128 7.07031 35.3711 5.85938 34.1602C4.64844 32.9492 3.60677 31.5951 2.73438 30.0977C1.86198 28.6003 1.19141 27.0117 0.722656 25.332C0.253906 23.6523 0.0130208 21.875 0 20C0 18.1641 0.234375 16.3932 0.703125 14.6875C1.17188 12.9818 1.84245 11.3867 2.71484 9.90234C3.58724 8.41797 4.62891 7.07031 5.83984 5.85938C7.05078 4.64844 8.40495 3.60677 9.90234 2.73438C11.3997 1.86198 12.9883 1.19141 14.668 0.722656C16.3477 0.253906 18.125 0.0130208 20 0ZM20 37.5C21.6016 37.5 23.1445 37.2917 24.6289 36.875C26.1133 36.4583 27.5065 35.8724 28.8086 35.1172C30.1107 34.362 31.2956 33.444 32.3633 32.3633C33.431 31.2826 34.3424 30.1042 35.0977 28.8281C35.8529 27.5521 36.4453 26.1589 36.875 24.6484C37.3047 23.138 37.513 21.5885 37.5 20C37.5 18.3984 37.2917 16.8555 36.875 15.3711C36.4583 13.8867 35.8724 12.4935 35.1172 11.1914C34.362 9.88932 33.444 8.70443 32.3633 7.63672C31.2826 6.56901 30.1042 5.65755 28.8281 4.90234C27.5521 4.14714 26.1589 3.55469 24.6484 3.125C23.138 2.69531 21.5885 2.48698 20 2.5C18.3984 2.5 16.8555 2.70833 15.3711 3.125C13.8867 3.54167 12.4935 4.1276 11.1914 4.88281C9.88932 5.63802 8.70443 6.55599 7.63672 7.63672C6.56901 8.71745 5.65755 9.89583 4.90234 11.1719C4.14714 12.4479 3.55469 13.8411 3.125 15.3516C2.69531 16.862 2.48698 18.4115 2.5 20C2.5 21.6016 2.70833 23.1445 3.125 24.6289C3.54167 26.1133 4.1276 27.5065 4.88281 28.8086C5.63802 30.1107 6.55599 31.2956 7.63672 32.3633C8.71745 33.431 9.89583 34.3424 11.1719 35.0977C12.4479 35.8529 13.8411 36.4453 15.3516 36.875C16.862 37.3047 18.4115 37.513 20 37.5ZM12.5 10C12.8516 10 13.1771 10.0651 13.4766 10.1953C13.776 10.3255 14.0365 10.5013 14.2578 10.7227C14.4792 10.944 14.6615 11.2109 14.8047 11.5234C14.9479 11.8359 15.013 12.1615 15 12.5H10C10 12.1484 10.0651 11.8229 10.1953 11.5234C10.3255 11.224 10.5013 10.9635 10.7227 10.7422C10.944 10.5208 11.2109 10.3385 11.5234 10.1953C11.8359 10.0521 12.1615 9.98698 12.5 10ZM27.5 10C27.8516 10 28.1771 10.0651 28.4766 10.1953C28.776 10.3255 29.0365 10.5013 29.2578 10.7227C29.4792 10.944 29.6615 11.2109 29.8047 11.5234C29.9479 11.8359 30.013 12.1615 30 12.5H25C25 12.1484 25.0651 11.8229 25.1953 11.5234C25.3255 11.224 25.5013 10.9635 25.7227 10.7422C25.944 10.5208 26.2109 10.3385 26.5234 10.1953C26.8359 10.0521 27.1615 9.98698 27.5 10ZM28.75 15C29.2708 15 29.7591 15.0977 30.2148 15.293C30.6706 15.4883 31.0677 15.7552 31.4062 16.0938C31.7448 16.4323 32.0117 16.8294 32.207 17.2852C32.4023 17.7409 32.5 18.2292 32.5 18.75V20C32.5 21.7318 32.1745 23.3529 31.5234 24.8633C30.8724 26.3737 29.9805 27.7018 28.8477 28.8477C27.7148 29.9935 26.3932 30.8854 24.8828 31.5234C23.3724 32.1615 21.7448 32.487 20 32.5C18.2682 32.5 16.6471 32.1745 15.1367 31.5234C13.6263 30.8724 12.2982 29.9805 11.1523 28.8477C10.0065 27.7148 9.11458 26.3932 8.47656 24.8828C7.83854 23.3724 7.51302 21.7448 7.5 20C7.5 19.375 7.55208 18.763 7.65625 18.1641C7.76042 17.5651 7.94922 17.0312 8.22266 16.5625C8.49609 16.0938 8.8737 15.7161 9.35547 15.4297C9.83724 15.1432 10.4688 15 11.25 15C12.2135 15 13.0534 15.1302 13.7695 15.3906C14.4857 15.651 15.1628 15.9375 15.8008 16.25C16.4388 16.5625 17.0898 16.849 17.7539 17.1094C18.418 17.3698 19.1667 17.5 20 17.5C20.8333 17.5 21.5755 17.3698 22.2266 17.1094C22.8776 16.849 23.5286 16.5625 24.1797 16.25C24.8307 15.9375 25.5143 15.651 26.2305 15.3906C26.9466 15.1302 27.7865 15 28.75 15ZM30 18.75C30 18.4115 29.8763 18.1185 29.6289 17.8711C29.3815 17.6237 29.0885 17.5 28.75 17.5C28.1901 17.5 27.6758 17.5586 27.207 17.6758C26.7383 17.793 26.2891 17.9492 25.8594 18.1445C25.4297 18.3398 25 18.5417 24.5703 18.75C24.1406 18.9583 23.6979 19.1602 23.2422 19.3555C22.7865 19.5508 22.2917 19.7005 21.7578 19.8047C21.224 19.9089 20.638 19.974 20 20C19.362 20 18.7826 19.9414 18.2617 19.8242C17.7409 19.707 17.2461 19.5508 16.7773 19.3555C16.3086 19.1602 15.8659 18.9583 15.4492 18.75C15.0326 18.5417 14.6029 18.3398 14.1602 18.1445C13.7174 17.9492 13.2617 17.7995 12.793 17.6953C12.3242 17.5911 11.8099 17.526 11.25 17.5C10.9115 17.5 10.6185 17.6237 10.3711 17.8711C10.1237 18.1185 10 18.4115 10 18.75V20C10 21.3802 10.2604 22.6758 10.7812 23.8867C11.3021 25.0977 12.0182 26.1523 12.9297 27.0508C13.8411 27.9492 14.9023 28.6654 16.1133 29.1992C17.3242 29.7331 18.6198 30 20 30C21.3802 30 22.6758 29.7396 23.8867 29.2188C25.0977 28.6979 26.1523 27.9818 27.0508 27.0703C27.9492 26.1589 28.6654 25.0977 29.1992 23.8867C29.7331 22.6758 30 21.3802 30 20V18.75Z" fill="white"/>
</svg>
