<svg width="57" height="78" viewBox="0 0 57 78" fill="none" xmlns="http://www.w3.org/2000/svg">
<path d="M24.0914 21.4945C25.9596 15.1346 26.8937 11.9546 28.5 11.9546C30.1063 11.9546 31.0404 15.1346 32.9086 21.4945L32.9955 21.7907C34.051 25.3837 34.5787 27.1802 35.6542 28.2722C36.7297 29.3642 38.1416 29.5368 40.9652 29.8821L41.4757 29.9446C46.097 30.5098 48.4077 30.7923 48.9021 32.7998C49.3965 34.8073 47.6805 36.9392 44.2486 41.2031L43.1031 42.6261C41.3658 44.7845 40.4972 45.8637 40.0923 47.2782C40.0168 47.542 39.954 47.8124 39.9043 48.0874C39.6382 49.562 39.8926 51.1276 40.4013 54.2588L40.5597 55.2335C41.4946 60.988 41.9621 63.8653 41.1459 65.1064C40.8409 65.5701 40.4445 65.904 40.0041 66.0681C38.8256 66.5072 37.1525 64.6455 33.8062 60.922C31.609 58.477 30.5103 57.2545 29.2489 56.9794C28.7528 56.8712 28.2472 56.8712 27.7511 56.9794C26.4897 57.2545 25.391 58.477 23.1938 60.922C19.8475 64.6455 18.1744 66.5072 16.9959 66.0681C16.5555 65.904 16.1591 65.5701 15.8541 65.1064C15.0379 63.8653 15.5054 60.988 16.4403 55.2335L16.5987 54.2588C17.1074 51.1276 17.3618 49.562 17.0957 48.0874C17.046 47.8124 16.9832 47.542 16.9077 47.2782C16.5028 45.8637 15.6342 44.7845 13.8969 42.6261L12.7514 41.2031C9.31946 36.9392 7.60347 34.8073 8.09789 32.7998C8.59232 30.7923 10.903 30.5098 15.5243 29.9446L16.0348 29.8821C18.8584 29.5368 20.2703 29.3642 21.3458 28.2722C22.4213 27.1802 22.949 25.3837 24.0045 21.7907L24.0914 21.4945Z" stroke="#222222"/>
</svg>
