<svg width="30" height="22" viewBox="0 0 30 22" fill="none" xmlns="http://www.w3.org/2000/svg">
<path d="M15 1.77393C8.1075 1.77393 2.5 5.75258 2.5 10.643C2.5 15.5334 8.1075 19.512 15 19.512C21.8925 19.512 27.5 15.5334 27.5 10.643C27.5 5.75258 21.8925 1.77393 15 1.77393ZM15 17.7382C9.48625 17.7382 5 14.5551 5 10.643C5 6.73084 9.48625 3.54774 15 3.54774C20.5137 3.54774 25 6.73084 25 10.643C25 14.5551 20.5137 17.7382 15 17.7382Z" fill="black"/>
<path d="M16.25 6.2085H13.75V11.5299H21.25V9.75612H16.25V6.2085Z" fill="black"/>
</svg>
