<svg width="90" height="88" viewBox="0 0 90 88" fill="none" xmlns="http://www.w3.org/2000/svg">
<g filter="url(#filter0_d_0_25)">
<rect x="4" width="82" height="80" rx="20" fill="white"/>
</g>
<path d="M26 20V53.75H36.5469V65H68.1875V31.25H57.6406V20H26ZM29.5156 23.75H54.125V32.3056L37.5348 50H29.5156V23.75ZM38.3047 27.5V29.375H33.0312V33.125H41.7113C41.4828 35.2775 40.8658 36.9781 39.8428 38.165C39.2874 37.9735 38.7533 37.7176 38.2502 37.4019C37.0145 36.6181 36.5469 35.7838 36.5469 35H33.0312C33.0312 37.2331 34.3215 39.095 36.0529 40.3325C35.058 40.5422 34.0453 40.6402 33.0312 40.625V44.375C36.1479 44.375 38.7441 43.6138 40.7217 42.2075C41.641 42.3763 42.5762 42.5 43.5781 42.5V38.9844C44.5326 37.2781 45.0406 35.285 45.227 33.125H47.0938V29.375H41.8203V27.5H38.3047ZM56.6527 35H64.6719V61.25H40.0625V52.6944L56.6527 35ZM54.125 38.4575L52.4762 43.79L48.9605 55.04L48.8516 55.3325V57.5H52.3672V55.8594L52.4217 55.625H55.8283L55.8828 55.8594V57.5H59.3984V55.3325L59.2877 55.0381L55.7721 43.7881L54.125 38.4575ZM54.125 50.2344L54.6189 51.875H53.6311L54.125 50.2344Z" fill="black"/>
<defs>
<filter id="filter0_d_0_25" x="0" y="0" width="90" height="88" filterUnits="userSpaceOnUse" color-interpolation-filters="sRGB">
<feFlood flood-opacity="0" result="BackgroundImageFix"/>
<feColorMatrix in="SourceAlpha" type="matrix" values="0 0 0 0 0 0 0 0 0 0 0 0 0 0 0 0 0 0 127 0" result="hardAlpha"/>
<feOffset dy="4"/>
<feGaussianBlur stdDeviation="2"/>
<feComposite in2="hardAlpha" operator="out"/>
<feColorMatrix type="matrix" values="0 0 0 0 0 0 0 0 0 0 0 0 0 0 0 0 0 0 0.25 0"/>
<feBlend mode="normal" in2="BackgroundImageFix" result="effect1_dropShadow_0_25"/>
<feBlend mode="normal" in="SourceGraphic" in2="effect1_dropShadow_0_25" result="shape"/>
</filter>
</defs>
</svg>
