<svg width="207" height="219" viewBox="0 0 207 219" fill="none" xmlns="http://www.w3.org/2000/svg">
<path d="M205.195 132.214L97.5393 217.082C95.9234 218.352 94.0896 219.014 92.2251 219C90.3606 218.986 88.5322 218.296 86.9266 217.002L1.33396 147.769C0.927513 147.44 0.590776 146.973 0.356895 146.412C0.122997 145.851 0 145.217 0 144.572C0 143.927 0.122997 143.293 0.356895 142.732C0.590776 142.171 0.927513 141.704 1.33396 141.375C20.3643 126.403 100.536 63.3091 113.578 53.2132C114.118 52.7881 114.729 52.5642 115.352 52.5642C115.975 52.5642 116.587 52.7881 117.126 53.2132L205.218 123.829C205.755 124.257 206.201 124.871 206.509 125.608C206.818 126.346 206.979 127.181 206.977 128.031C206.974 128.88 206.809 129.714 206.496 130.448C206.183 131.182 205.734 131.791 205.195 132.214Z" fill="#DAF2E9"/>
<path d="M98.552 180.344L120.439 197.93C120.439 197.93 117.301 201.239 104.763 211.407L99.5706 215.499L79.668 193.637" fill="url(#paint0_linear_27_3652)"/>
<path d="M42.8191 136.035L73.6329 161.311C73.6329 161.311 64.3958 168.505 51.8572 178.705L37.2229 162.094L25.3634 147.386" fill="url(#paint1_linear_27_3652)"/>
<path d="M172.168 114.684L199.511 135.523C199.511 135.523 152.096 173.773 139.575 183.949L111.389 159.968" fill="url(#paint2_linear_27_3652)"/>
<path d="M141.091 0.799468L131.93 7.47412L156.949 39.6483L179.011 49.1128L186.352 35.5077" fill="#FFE8BC"/>
<path d="M175.633 42.2621L184.139 35.6514L141.091 0.799359L142.104 0L186.352 35.5075V126.187L176.699 133.685L173.017 128.441" fill="#68E1FD"/>
<path opacity="0.42" d="M175.633 42.2621L184.139 35.6514L141.091 0.799359L142.104 0L186.352 35.5075V126.187L176.699 133.685L173.017 128.441" fill="#1371A5"/>
<path d="M131.93 7.47394L176.699 43.1174V133.685L131.222 96.5706L131.93 7.47394Z" fill="#68E1FD"/>
<path d="M175.007 37.1703L172.273 39.5364V58.8489L170.541 55.8113L169.323 57.6898V37.2422L171.875 34.7322L175.007 37.1703Z" fill="#E85858"/>
<path d="M170.429 134.428C170.646 134.428 172.578 133.373 170.95 131.67C169.871 130.525 168.741 129.47 167.567 128.513" fill="#E27825"/>
<path d="M170.429 120.432C170.429 120.432 168.802 128.657 170.429 133.046L148.308 150.807L126.427 168.097V155.308" fill="#FFE8BC"/>
<path d="M171.179 119.153C171.128 119.723 171.075 120.293 171.021 120.863L126.445 155.316V168.105L170.974 132.614V134.133L124.7 170.703V153.277L171.179 119.153Z" fill="#E27825"/>
<path d="M170.921 119.376L124.946 155.348L60.4387 103.629L105.424 68.3692C106.105 67.836 106.877 67.5588 107.661 67.5658C108.446 67.5729 109.215 67.8639 109.891 68.4092L170.927 117.81C171.026 117.891 171.108 118.006 171.165 118.144C171.222 118.282 171.251 118.437 171.251 118.595C171.25 118.753 171.219 118.908 171.162 119.045C171.104 119.182 171.021 119.296 170.921 119.376Z" fill="#FDBA45"/>
<path d="M124.712 170.695C124.712 170.695 60.2454 118.849 60.4386 118.601C60.6318 118.353 60.4386 103.597 60.4386 103.597L124.935 155.316L124.712 170.695Z" fill="#E27825"/>
<path d="M170.927 117.81C171.116 117.996 171.274 118.234 171.39 118.51C171.506 118.786 171.578 119.092 171.6 119.408C171.676 120.479 170.839 121.007 170.547 121.223" fill="#FDBA45"/>
<path d="M39.4298 193.837C39.4382 193.768 39.4643 193.705 39.5034 193.66C39.5426 193.614 39.5922 193.589 39.6435 193.589C39.6948 193.589 39.7444 193.614 39.7835 193.66C39.8226 193.705 39.8487 193.768 39.8571 193.837" fill="#7A9F36"/>
<path d="M51.1605 130.448L39.2073 139.041L38.8502 143.07L51.5 133.325" fill="#E27623"/>
<path d="M51.6463 123.901L56.5693 148.145L55.6678 148.857C55.434 148.689 55.209 148.5 54.9947 148.289C54.7312 148.009 48.6083 122.805 48.6083 122.805" fill="#E27623"/>
<path d="M40.2903 119.137L36.9303 133.453L37.2172 162.094L37.9723 162.774L39.0142 161.886L39.7869 133.437L42.8191 119.137" fill="#E27623"/>
<path d="M53.4845 117.418C53.4845 117.418 53.8591 120.615 53.0571 122.35C52.2552 124.085 50.1303 119.728 50.1303 119.728" fill="#FFB469"/>
<path d="M42.345 100.112L42.8191 111.71L40.5947 113.285L40.1791 100.855" fill="#CA6B00"/>
<path d="M28.3663 108.649L26.8678 124.324L25.3575 147.386L26.3292 148.177L27.2951 147.346L29.4492 124.684L30.8951 108.649" fill="#E27623"/>
<path d="M29.8766 110.607C29.2502 110.871 27.9039 109.52 27.5 108.649C25.2931 103.908 25.9312 97.4576 29.9 94.476C31.6561 93.149 33.4766 91.8221 35.2269 90.4792C36.7839 89.2641 38.4288 88.233 39.9098 86.914C40.1061 86.7276 40.316 86.5696 40.5362 86.4424C40.9469 86.2922 41.3812 86.3123 41.7836 86.5002C42.1859 86.6881 42.5383 87.0353 42.7957 87.4975" fill="#FFB469"/>
<path d="M29.7127 110.4C28.6473 110.352 28.0385 108.425 27.7283 107.29C26.8678 104.181 26.698 98.2655 29.2912 96.491C29.3401 96.4611 29.3825 96.4146 29.4143 96.3557C29.4461 96.2969 29.4662 96.2278 29.4727 96.1552L34.4542 92.2304L38.3059 89.1928C38.9791 88.6652 39.6171 88.0577 40.2903 87.5221C40.9635 86.9866 41.6249 86.3711 42.3684 86.9786C43.1118 87.5861 43.2932 88.905 43.422 90.0801C43.7576 92.7903 43.6537 95.5681 43.1176 98.2176C42.6531 99.9019 41.7392 101.284 40.5595 102.086L36.983 104.916L30.3507 110.144C30.2432 110.237 30.127 110.309 30.0053 110.36C29.9098 110.393 29.8111 110.406 29.7127 110.4Z" fill="#FCBD4C"/>
<path d="M28.9868 122.958L28.7819 123.118C28.2205 123.495 27.7161 124.013 27.295 124.644C26.2882 126.371 27.2599 128.337 28.2609 129.544C30.9595 132.822 35.0512 135.5 38.7097 134.293C41.8772 133.128 44.8969 131.314 47.6659 128.913C49.9547 127.034 52.8171 124.764 53.4142 120.919C53.5189 120.059 53.4749 119.178 53.2859 118.345C53.0969 117.512 52.768 116.752 52.3254 116.123C46.5829 107.035 38.499 115.564 32.8209 120.016L28.9868 122.958Z" fill="#FFB469"/>
<path d="M26.9966 123.309C26.827 124.402 26.7874 125.525 26.8795 126.635C27.2571 127.846 27.8176 128.936 28.5244 129.832C29.1917 130.567 28.7937 125.436 28.7937 125.436" fill="#FFB469"/>
<path d="M28.9868 120.775L28.7819 120.935C28.2205 121.312 27.7161 121.83 27.295 122.462C26.2882 124.188 27.2599 126.155 28.2609 127.362C30.9595 130.639 35.0512 133.317 38.7097 132.11C41.8772 130.946 44.8969 129.132 47.6659 126.73C49.9547 124.852 52.8171 122.582 53.4142 118.737C53.5189 117.877 53.4749 116.995 53.2859 116.163C53.0969 115.33 52.768 114.569 52.3254 113.941C46.5829 104.852 38.499 113.381 32.8209 117.834L28.9868 120.775Z" fill="#FCBD4C"/>
<path d="M175.03 109.936C175.247 109.936 177.179 108.881 175.551 107.178C174.472 106.033 173.342 104.978 172.168 104.021" fill="#9A433A"/>
<path d="M175.03 95.923C175.03 95.923 173.403 104.148 175.03 108.537L152.909 126.299L131.028 143.589V130.799" fill="#FFE8BC"/>
<path d="M175.762 94.6603C175.711 95.2305 175.659 95.8007 175.604 96.3709L131.028 130.823V143.613L175.569 108.114V109.632L129.296 146.203V128.785L175.762 94.6603Z" fill="#9A433A"/>
<path d="M175.516 94.8841L129.541 130.855L65.0338 79.1367L110.019 43.8769C110.7 43.3437 111.472 43.0665 112.257 43.0735C113.041 43.0806 113.81 43.3716 114.486 43.9169L175.522 93.3093C175.623 93.3902 175.706 93.5057 175.764 93.6443C175.821 93.7829 175.851 93.9396 175.851 94.099C175.85 94.2583 175.819 94.4147 175.76 94.5524C175.702 94.6902 175.617 94.8045 175.516 94.8841Z" fill="#F26250"/>
<path d="M129.307 146.203C129.307 146.203 64.8407 94.3244 65.0338 94.1085C65.227 93.8927 65.0338 79.1045 65.0338 79.1045L129.541 130.823L129.307 146.203Z" fill="#9A433A"/>
<path d="M175.522 93.3092C175.711 93.4951 175.869 93.7338 175.985 94.0095C176.101 94.2852 176.173 94.5915 176.195 94.908C176.271 95.9791 175.434 96.5067 175.142 96.7225" fill="#F26250"/>
<path d="M137.151 132.294L137.62 143.893L135.343 141.327L133.604 147.25L132.902 135.34L137.151 132.294Z" fill="#2AE400"/>
<path d="M94.9696 184.796C95.3636 184.794 95.7562 184.732 96.1403 184.612C97.5187 184.192 98.7759 183.227 99.7546 181.836C100.733 180.446 101.39 178.692 101.643 176.794C101.742 175.531 101.719 171.926 101.684 169.121C101.679 168.701 101.596 168.29 101.442 167.926C101.288 167.562 101.069 167.258 100.806 167.042C100.542 166.826 100.243 166.705 99.9352 166.691C99.628 166.677 99.3231 166.771 99.0496 166.962L89.8944 173.973L90.0407 174.772C90.0407 174.772 90.1637 175.491 90.4681 177.969C90.6612 179.568 91.2115 182.366 92.8095 183.829C93.4427 184.438 94.195 184.775 94.9696 184.796ZM99.8515 168.889C99.8887 168.888 99.9252 168.902 99.9569 168.929C99.9872 168.952 100.012 168.985 100.03 169.026C100.047 169.067 100.057 169.113 100.056 169.161C100.109 173.029 100.097 175.659 100.027 176.555C99.8114 177.994 99.2954 179.318 98.5414 180.366C97.7874 181.414 96.8275 182.142 95.7774 182.462C95.4235 182.603 95.0517 182.641 94.6865 182.572C94.3213 182.503 93.9708 182.329 93.6583 182.062C92.5344 181.023 92.1305 178.641 92.0134 177.658C91.8671 176.435 91.7559 175.619 91.6856 175.1L99.7637 168.921C99.7908 168.901 99.8208 168.89 99.8515 168.889Z" fill="#E27623"/>
<path d="M81.9158 194.524C82.3098 194.522 82.7024 194.46 83.0865 194.34C84.4649 193.92 85.7221 192.955 86.7008 191.564C87.6795 190.174 88.3363 188.42 88.589 186.523C88.6709 185.491 88.6826 183.125 88.6358 179.328C88.6312 178.84 88.5378 178.361 88.3642 177.934C88.1905 177.507 87.9419 177.146 87.6407 176.882C87.4147 176.691 87.1562 176.582 86.8904 176.568C86.6246 176.554 86.3607 176.635 86.1246 176.802L76.8289 183.741L76.9753 184.54C76.9753 184.54 77.0982 185.26 77.4026 187.738C77.5957 189.336 78.146 192.134 79.7441 193.597C80.3839 194.195 81.1403 194.518 81.9158 194.524ZM86.8095 178.745C86.8712 178.819 86.9208 178.91 86.9551 179.012C86.9894 179.113 87.0076 179.224 87.0085 179.336C87.067 183.933 87.0085 185.659 86.9734 186.291C86.7576 187.73 86.2416 189.054 85.4876 190.102C84.7336 191.15 83.7737 191.878 82.7236 192.198C82.3697 192.339 81.9979 192.377 81.6327 192.308C81.2675 192.239 80.9171 192.065 80.6045 191.798C79.4806 190.759 79.0767 188.377 78.9597 187.394C78.8133 186.179 78.7021 185.371 78.6318 184.844L86.8095 178.745Z" fill="#E27623"/>
<path d="M77.3149 185.228L78.1051 183.325L66.3977 174.037C65.4373 173.289 64.3011 173.082 63.2309 173.461C62.8117 173.667 62.4305 173.995 62.114 174.423C61.7975 174.851 61.5534 175.369 61.3987 175.939L62.8797 176.794C62.9481 176.511 63.0612 176.252 63.2109 176.036C63.3605 175.819 63.5432 175.649 63.746 175.539C64.3759 175.366 65.0304 175.508 65.5899 175.939L77.3149 185.228Z" fill="#E27623"/>
<path d="M99.6232 168.769L100.431 166.866L88.7237 157.578C87.7632 156.83 86.627 156.624 85.5568 157.002C85.1376 157.208 84.7564 157.536 84.4399 157.964C84.1234 158.392 83.8793 158.91 83.7246 159.48L85.2056 160.336C85.2738 160.054 85.386 159.795 85.5346 159.579C85.6832 159.362 85.8646 159.192 86.0661 159.081C86.6997 158.902 87.3591 159.044 87.9217 159.48L99.6232 168.769Z" fill="#E27623"/>
<path d="M91.1523 175.537L90.383 173.606L86.0843 176.799L86.8537 178.73L91.1523 175.537Z" fill="#E27623"/>
<path d="M97.7266 125.819L95.5256 124.356C95.5256 124.356 95.35 121.718 96.111 121.159C96.872 120.599 97.7266 125.819 97.7266 125.819Z" fill="#196132"/>
<path d="M92.3705 118.305C92.3705 118.305 92.0661 124.788 91.7383 125.452C91.4105 126.115 87.19 129.137 86.8446 130.248C86.4992 131.359 91.5276 130.152 93.2134 129.584C94.8993 129.017 96.4212 127.882 96.4798 127.034C96.5383 126.187 95.8944 121.83 96.4798 121.926C97.0651 122.022 97.7266 125.787 97.7266 125.787L99.1783 124.636L95.9471 109.448" fill="#196132"/>
<path d="M87.7228 119.36L85.5218 117.898C85.5218 117.898 85.3462 115.26 86.1071 114.7C86.8681 114.141 87.7228 119.36 87.7228 119.36Z" fill="#196132"/>
<path d="M82.3666 111.854C82.3666 111.854 82.0622 118.337 81.7344 119C81.4066 119.664 77.1861 122.685 76.8407 123.797C76.4954 124.908 81.5237 123.701 83.2096 123.133C84.8954 122.566 86.4174 121.43 86.4759 120.583C86.5345 119.736 85.8906 115.379 86.4759 115.475C87.0613 115.571 87.7228 119.336 87.7228 119.336L89.1803 118.153L85.9491 102.965" fill="#196132"/>
<path d="M98.7335 63.2214C99.5062 64.2366 101.315 78.3533 100.109 85.1318C98.9032 91.9104 86.8446 94.7241 86.8446 94.7241L89.6778 111.998C89.6778 111.998 85.0593 116.794 80.6456 114.812C79.0534 114.109 75.4241 89.3045 76.829 85.8513C78.2339 82.398 94.3901 70.4396 94.3901 70.4396" fill="#FFF0D7"/>
<path d="M108.252 68.3691C109.024 69.3843 111.249 77.3219 108.252 87.0661C106.273 93.461 95.514 98.0333 95.514 98.0333L99.1784 117.162C99.1784 117.162 94.3608 122.614 90.1462 119.976C85.9315 117.338 84.7491 93.8367 86.154 90.3995C87.5589 86.9622 101.555 74.78 101.555 74.78" fill="#FFF0D7"/>
<path d="M104.447 49.3847C104.447 49.3847 112.425 53.9091 110.195 69.3687C108.626 80.24 100.735 81.439 100.735 81.439C100.735 81.439 95.5666 76.9946 96.1461 75.5078L103.171 70.5118L95.2154 65.0202L89.4729 73.2456L85.3753 68.8811C85.3753 68.8811 91.2993 56.1873 93.8749 50.9435C96.4505 45.6997 104.447 49.3847 104.447 49.3847Z" fill="#FF9A22"/>
<path d="M81.5529 67.426L82.2729 66.4667L81.5529 67.426Z" fill="#FFF7F0"/>
<path d="M94.1032 75.6275L95.508 74.0848C95.508 74.0848 92.3763 70.1759 88.1031 70.6875C86.9765 68.3182 85.2849 66.5533 83.3148 65.6915L81.5587 67.4261" fill="#FFE8BC"/>
<path d="M95.5081 74.0843L96.6203 85.1874L94.1091 87.0659L92.1306 76.922" fill="#FFE8BC"/>
<path d="M94.1032 75.6273L95.274 86.1388L94.1032 87.0661C94.1032 87.0661 82.1558 78.0973 82.2729 77.9374C82.39 77.7775 81.5529 67.4338 81.5529 67.4338" fill="#68E1FD"/>
<path d="M82.4193 66.5788L94.1091 75.6276L93.0086 76.4749L81.5529 67.4261L82.4193 66.5788Z" fill="#68E1FD"/>
<path opacity="0.42" d="M82.4193 66.5788L94.1091 75.6276L93.0086 76.4749L81.5529 67.4261L82.4193 66.5788Z" fill="#1371A5"/>
<path d="M92.6047 77.0903C92.5766 76.9433 92.5771 76.7887 92.6063 76.642C92.6355 76.4953 92.6922 76.3616 92.7709 76.2541C92.8496 76.1466 92.9475 76.0692 93.055 76.0293C93.1624 75.9895 93.2756 75.9888 93.3833 76.0272C94.2934 76.4858 95.2582 76.7081 96.2282 76.6827C96.3321 76.6778 96.4352 76.7109 96.5267 76.7786C97.4382 78.0292 98.4494 79.1366 99.5413 80.0799L99.2135 80.2878C98.7798 81.4482 98.2828 82.5624 97.7267 83.6211C97.6002 83.866 97.4328 84.0663 97.2384 84.2053C97.044 84.3443 96.8281 84.4181 96.6086 84.4205C96.4642 84.5696 96.3116 84.7032 96.1521 84.8201C95.9231 84.9937 95.6614 85.0697 95.4006 85.0384C95.1398 85.007 94.8918 84.8698 94.6886 84.6443C94.5372 84.7747 94.3548 84.8205 94.1794 84.7722C94.0653 84.8524 93.9367 84.886 93.809 84.869C93.6813 84.852 93.5599 84.7851 93.4594 84.6763C93.1721 84.4455 92.962 84.0711 92.8735 83.6324C92.785 83.1937 92.8251 82.7252 92.9852 82.3261C92.7816 82.0072 92.6655 81.6015 92.657 81.1785C92.6484 80.7556 92.7479 80.3417 92.9384 80.008C93.2021 79.4909 93.5288 79.0394 93.9042 78.6731C93.6011 78.6008 93.3188 78.4144 93.0892 78.1347C92.8596 77.8551 92.6918 77.4933 92.6047 77.0903Z" fill="#FDBA45"/>
<path d="M81.1138 73.4055C81.0436 73.2616 80.9792 73.1097 80.9148 72.9658C80.8661 72.8652 80.8347 72.7508 80.823 72.6313C80.8113 72.5117 80.8196 72.3901 80.8472 72.2755C80.8748 72.1609 80.921 72.0564 80.9824 71.9697C81.0438 71.8829 81.1187 71.8163 81.2016 71.7748L81.2894 71.6629C81.2276 71.4688 81.2197 71.2506 81.2671 71.049C81.3145 70.8475 81.414 70.6764 81.547 70.5677C81.6378 70.5052 81.738 70.4726 81.8397 70.4726C81.9414 70.4726 82.0416 70.5052 82.1324 70.5677C82.1879 70.5864 82.2412 70.616 82.2904 70.6557C82.7394 71.0438 83.0828 71.6222 83.268 72.3024C83.3049 72.4862 83.2962 72.6816 83.2433 72.858C83.1903 73.0345 83.0961 73.182 82.9753 73.2776C82.9058 73.327 82.8305 73.3594 82.7529 73.3735C82.9763 73.7711 83.1576 74.2097 83.2914 74.6765C83.4553 75.284 82.9987 75.8195 82.5948 75.7636L82.6885 75.9394C83.0397 76.5629 82.4602 77.4023 81.9743 77.2104C81.8018 77.1319 81.643 77.0054 81.508 76.839C81.373 76.6725 81.2647 76.4696 81.1899 76.2432C80.9851 75.7316 80.786 75.22 80.6046 74.7004C80.5581 74.5715 80.5348 74.4292 80.5366 74.2855C80.5385 74.1417 80.5654 74.0007 80.6152 73.874C80.665 73.7474 80.7363 73.6388 80.823 73.5573C80.9097 73.4758 81.0094 73.4238 81.1138 73.4055Z" fill="#FDBA45"/>
<path d="M94.9345 61.0714C94.9345 61.0714 94.7413 70.8715 95.1686 71.9426C95.5959 73.0138 103.176 77.4103 103.176 77.4103L107.859 69.3367L94.9345 61.0714Z" fill="#FF9A22"/>
<path d="M98.7921 44.3004C98.7921 44.3004 97.4574 48.2972 97.9725 49.7041C98.4877 51.1109 101.297 50.1517 101.297 50.1517" fill="#1B6333"/>
<path d="M98.552 42.2701C98.552 42.2701 98.4701 50.3436 100.894 51.2149C103.317 52.0862 104.605 48.0175 104.605 48.0175C104.605 48.0175 105.096 42.5658 104.312 41.4227C103.528 40.2797 99.834 39.9679 98.552 42.2701Z" fill="#FDBA45"/>
<path d="M97.6155 41.3747C97.6155 41.3747 99.2487 44.5722 100.215 45.3715C101.18 46.1709 102.275 45.7152 102.615 46.8104C102.954 47.9055 101.742 54.3963 102.855 55.6033C103.967 56.8104 106.133 53.3092 107.087 55.0278C108.041 56.7464 107.526 59.9119 109.024 60.6233C110.523 61.3347 112.291 58.1533 110.862 55.6273C109.434 53.1013 109.294 51.8623 110.113 51.031C111.337 49.792 110.072 45.2276 108.644 44.3643C107.216 43.501 106.829 39.0726 104.259 37.9695C101.69 36.8663 98.1716 38.8727 97.6155 41.3747Z" fill="#1B6333"/>
<path d="M95.5081 57.9619C95.5081 62.4809 95.5725 67.0106 95.7013 71.551C95.7013 72.0626 95.1159 72.0626 95.1159 71.551C94.9793 67.032 94.9149 62.5023 94.9227 57.9619C94.9227 57.8559 94.9536 57.7542 95.0085 57.6793C95.0633 57.6043 95.1378 57.5622 95.2154 57.5622C95.293 57.5622 95.3675 57.6043 95.4224 57.6793C95.4773 57.7542 95.5081 57.8559 95.5081 57.9619Z" fill="#F26250"/>
<path d="M96.2515 75.196C98.1361 74.0234 99.7945 72.2671 101.095 70.0663C102.396 67.8656 103.303 65.2812 103.744 62.5182C103.826 62.0146 104.388 62.2304 104.33 62.734C103.868 65.6003 102.925 68.281 101.575 70.5644C100.225 72.8478 98.5047 74.6715 96.5501 75.8914C96.1871 76.0993 95.8886 75.4118 96.2515 75.196Z" fill="#F26250"/>
<defs>
<linearGradient id="paint0_linear_27_3652" x1="105.787" y1="202.814" x2="76.8512" y2="183.687" gradientUnits="userSpaceOnUse">
<stop stop-color="#DAF2E9"/>
<stop offset="1" stop-color="#C4E0D1"/>
</linearGradient>
<linearGradient id="paint1_linear_27_3652" x1="59.3909" y1="172.598" x2="45.5626" y2="158.929" gradientUnits="userSpaceOnUse">
<stop stop-color="#DAF2E9"/>
<stop offset="1" stop-color="#C4E0D1"/>
</linearGradient>
<linearGradient id="paint2_linear_27_3652" x1="165.653" y1="166.555" x2="151.398" y2="152.463" gradientUnits="userSpaceOnUse">
<stop stop-color="#DAF2E9"/>
<stop offset="1" stop-color="#C4E0D1"/>
</linearGradient>
</defs>
</svg>
