<svg width="16" height="16" viewBox="0 0 16 16" fill="none" xmlns="http://www.w3.org/2000/svg">
<path fill-rule="evenodd" clip-rule="evenodd" d="M6.66634 1.33333C5.92996 1.33333 5.33301 1.93029 5.33301 2.66667V5.33333H2.66634C1.92996 5.33333 1.33301 5.93029 1.33301 6.66667V9.33333C1.33301 10.0697 1.92996 10.6667 2.66634 10.6667H5.33301V13.3333C5.33301 14.0697 5.92996 14.6667 6.66634 14.6667H9.33301C10.0694 14.6667 10.6663 14.0697 10.6663 13.3333V10.6667H13.333C14.0694 10.6667 14.6663 10.0697 14.6663 9.33333V6.66667C14.6663 5.93029 14.0694 5.33333 13.333 5.33333H10.6663V2.66667C10.6663 1.93029 10.0694 1.33333 9.33301 1.33333H6.66634ZM5.33301 6.66667C6.06939 6.66667 6.66634 6.06971 6.66634 5.33333V2.66667H9.33301V5.33333C9.33301 6.06971 9.92996 6.66667 10.6663 6.66667H13.333V9.33333H10.6663C9.92996 9.33333 9.33301 9.93029 9.33301 10.6667V13.3333H6.66634V10.6667C6.66634 9.93029 6.06939 9.33333 5.33301 9.33333H2.66634V6.66667H5.33301Z" fill="#F56630"/>
</svg>
