<svg width="35" height="35" viewBox="0 0 35 35" fill="none" xmlns="http://www.w3.org/2000/svg">
<path d="M32.7852 27.3243L27.2423 21.7815L22.9789 20.0201C24.3985 18.0013 25.159 15.5929 25.1562 13.125C25.1562 6.49093 19.7591 1.09375 13.125 1.09375C6.49093 1.09375 1.09375 6.49093 1.09375 13.125C1.09375 19.7591 6.49093 25.1563 13.125 25.1563C15.6144 25.1591 18.0427 24.3854 20.0716 22.943L21.8284 27.1949L27.3711 32.7381C27.7266 33.0936 28.1486 33.3755 28.613 33.5679C29.0775 33.7603 29.5753 33.8594 30.078 33.8594C30.5807 33.8594 31.0785 33.7604 31.543 33.568C32.0075 33.3757 32.4295 33.0937 32.785 32.7382C33.1405 32.3828 33.4225 31.9608 33.6149 31.4963C33.8073 31.0318 33.9063 30.534 33.9063 30.0313C33.9063 29.5286 33.8073 29.0308 33.615 28.5663C33.4226 28.1019 33.1406 27.6798 32.7852 27.3243ZM3.28125 13.125C3.28125 7.69727 7.69727 3.28125 13.125 3.28125C18.5527 3.28125 22.9688 7.69727 22.9688 13.125C22.9688 18.5527 18.5527 22.9688 13.125 22.9688C7.69727 22.9688 3.28125 18.5527 3.28125 13.125ZM31.2383 31.1913C30.9303 31.4985 30.5131 31.6711 30.0781 31.6711C29.6431 31.6711 29.2259 31.4985 28.918 31.1913L23.6836 25.9569L22.0502 22.0033L26.0039 23.6367L31.2384 28.8711C31.5456 29.179 31.7181 29.5963 31.7181 30.0312C31.718 30.4662 31.5455 30.8834 31.2383 31.1913Z" fill="#1B3764"/>
</svg>
