<svg width="16" height="16" viewBox="0 0 16 16" fill="none" xmlns="http://www.w3.org/2000/svg">
<path d="M4.00016 6.66666C4.00016 6.29847 4.29864 6 4.66683 6H8.00016C8.36835 6 8.66683 6.29847 8.66683 6.66666C8.66683 7.03485 8.36835 7.33333 8.00016 7.33333H4.66683C4.29864 7.33333 4.00016 7.03485 4.00016 6.66666Z" fill="#F56630"/>
<path d="M4.66683 8.66666C4.29864 8.66666 4.00016 8.96514 4.00016 9.33333C4.00016 9.70152 4.29864 10 4.66683 10H10.6668C11.035 10 11.3335 9.70152 11.3335 9.33333C11.3335 8.96514 11.035 8.66666 10.6668 8.66666H4.66683Z" fill="#F56630"/>
<path fill-rule="evenodd" clip-rule="evenodd" d="M1.3335 8C1.3335 4.3181 4.31826 1.33333 8.00016 1.33333C11.6821 1.33333 14.6668 4.3181 14.6668 8C14.6668 11.6819 11.6821 14.6667 8.00016 14.6667C7.44528 14.6667 6.90535 14.5987 6.38862 14.4704L2.69268 14.0084C1.89382 13.9086 1.33865 13.1639 1.471 12.3698L1.69959 10.9982C1.70092 10.9903 1.70108 10.9822 1.70008 10.9742L1.52975 9.61154C1.40143 9.0948 1.3335 8.55488 1.3335 8ZM8.00016 2.66666C5.05464 2.66666 2.66683 5.05448 2.66683 8C2.66683 8.4577 2.72433 8.901 2.83217 9.3235L2.84253 9.3641L3.02312 10.8088C3.04011 10.9447 3.0373 11.0823 3.01479 11.2174L2.78619 12.589C2.77841 12.6357 2.81107 12.6795 2.85806 12.6854L6.63606 13.1576L6.67666 13.168C7.09915 13.2758 7.54246 13.3333 8.00016 13.3333C10.9457 13.3333 13.3335 10.9455 13.3335 8C13.3335 5.05448 10.9457 2.66666 8.00016 2.66666Z" fill="#F56630"/>
</svg>
