<svg width="40" height="30" viewBox="0 0 40 30" fill="none" xmlns="http://www.w3.org/2000/svg">
<path d="M23.3333 18.75L16.6666 23.75L23.3333 28.75" stroke="white"/>
<path d="M30.1036 10.625C31.1896 12.0358 31.729 13.6459 31.6609 15.2742C31.5928 16.9024 30.9201 18.484 29.7184 19.841C28.5167 21.198 26.8338 22.2765 24.8591 22.9549C22.8844 23.6334 20.6964 23.885 18.5414 23.6814" stroke="white" stroke-linecap="round"/>
<path d="M16.6667 11.25L23.3334 6.25L16.6667 1.25" stroke="white"/>
<path d="M9.89641 19.375C8.79463 17.9437 8.25583 16.3077 8.34238 14.6563C8.42892 13.005 9.13727 11.4057 10.3854 10.0437C11.6336 8.68175 13.3705 7.61273 15.3952 6.96042C17.4198 6.30811 19.6494 6.09918 21.8258 6.35781" stroke="white" stroke-linecap="round"/>
</svg>
