<svg width="49" height="51" viewBox="0 0 49 51" fill="none" xmlns="http://www.w3.org/2000/svg">
<path fill-rule="evenodd" clip-rule="evenodd" d="M20.4163 4.25C18.1612 4.25 16.333 6.15279 16.333 8.5V17H8.16634C5.91118 17 4.08301 18.9028 4.08301 21.25V29.75C4.08301 32.0972 5.91118 34 8.16634 34H16.333V42.5C16.333 44.8472 18.1612 46.75 20.4163 46.75H28.583C30.8382 46.75 32.6663 44.8472 32.6663 42.5V34H40.833C43.0882 34 44.9163 32.0972 44.9163 29.75V21.25C44.9163 18.9028 43.0882 17 40.833 17H32.6663V8.5C32.6663 6.15279 30.8382 4.25 28.583 4.25H20.4163ZM16.333 21.25C18.5882 21.25 20.4163 19.3472 20.4163 17V8.5H28.583V17C28.583 19.3472 30.4112 21.25 32.6663 21.25H40.833V29.75H32.6663C30.4112 29.75 28.583 31.6528 28.583 34V42.5H20.4163V34C20.4163 31.6528 18.5882 29.75 16.333 29.75H8.16634V21.25H16.333Z" fill="#667185"/>
</svg>
