<svg width="157" height="29" viewBox="0 0 157 29" fill="none" xmlns="http://www.w3.org/2000/svg">
<path d="M0.502369 14.0727L156.498 14.0727" stroke="#E5D8F1" stroke-linecap="round"/>
<line x1="5.66128" y1="9.88352" x2="5.66128" y2="18.2605" stroke="#E5D8F1" stroke-linecap="round"/>
<line x1="10.3179" y1="9.88352" x2="10.3179" y2="18.2605" stroke="#E5D8F1" stroke-linecap="round"/>
<line x1="33.6008" y1="9.88352" x2="33.6008" y2="18.2605" stroke="#E5D8F1" stroke-linecap="round"/>
<line x1="42.914" y1="7.53848" x2="42.914" y2="20.6062" stroke="#E5D8F1" stroke-linecap="round"/>
<line x1="70.8533" y1="7.53848" x2="70.8533" y2="20.6062" stroke="#E5D8F1" stroke-linecap="round"/>
<line x1="80.1665" y1="9.88352" x2="80.1665" y2="18.2605" stroke="#E5D8F1" stroke-linecap="round"/>
<line x1="84.823" y1="7.53848" x2="84.823" y2="20.6062" stroke="#E5D8F1" stroke-linecap="round"/>
<line x1="89.4797" y1="0.502369" x2="89.4797" y2="27.6426" stroke="#E5D8F1" stroke-linecap="round"/>
<line x1="94.1363" y1="2.8479" x2="94.1363" y2="25.2973" stroke="#E5D8F1" stroke-linecap="round"/>
<line x1="98.7929" y1="7.53848" x2="98.7929" y2="20.6062" stroke="#E5D8F1" stroke-linecap="round"/>
<line x1="108.106" y1="7.53848" x2="108.106" y2="20.6062" stroke="#E5D8F1" stroke-linecap="round"/>
<line x1="112.763" y1="2.8479" x2="112.763" y2="25.2973" stroke="#E5D8F1" stroke-linecap="round"/>
<line x1="117.419" y1="7.53848" x2="117.419" y2="20.6062" stroke="#E5D8F1" stroke-linecap="round"/>
<line x1="122.076" y1="9.88352" x2="122.076" y2="18.2605" stroke="#E5D8F1" stroke-linecap="round"/>
<line x1="126.732" y1="12.23" x2="126.732" y2="15.9161" stroke="#E5D8F1" stroke-linecap="round"/>
<line x1="131.389" y1="7.53848" x2="131.389" y2="20.6062" stroke="#E5D8F1" stroke-linecap="round"/>
<line x1="136.045" y1="12.23" x2="136.045" y2="15.9161" stroke="#E5D8F1" stroke-linecap="round"/>
</svg>
