<svg width="217" height="19" viewBox="0 0 217 19" fill="none" xmlns="http://www.w3.org/2000/svg">
<path d="M213.106 14.0584C212.277 14.0584 211.535 13.8478 210.88 13.4267C210.231 12.9988 209.716 12.4072 209.335 11.6518C208.961 10.8964 208.774 10.0274 208.774 9.04471C208.774 7.99517 208.961 7.0927 209.335 6.3373C209.71 5.58191 210.221 5.00366 210.87 4.60256C211.525 4.19478 212.27 3.99089 213.106 3.99089C213.834 3.99089 214.456 4.13796 214.971 4.4321C215.486 4.72623 215.9 5.12399 216.214 5.62536C216.528 6.12673 216.746 6.69495 216.866 7.33002C216.993 7.9584 217.03 8.61018 216.976 9.28536H210.037V8.32273H215.943L215.482 8.62355C215.502 8.22914 215.479 7.83473 215.412 7.44032C215.352 7.04591 215.235 6.68492 215.061 6.35736C214.887 6.02311 214.643 5.75571 214.329 5.55517C214.015 5.35462 213.614 5.25434 213.126 5.25434C212.511 5.25434 211.996 5.41144 211.582 5.72563C211.167 6.03982 210.856 6.45429 210.649 6.96903C210.442 7.47709 210.338 8.02859 210.338 8.62355V9.26531C210.338 9.9338 210.438 10.5321 210.639 11.0602C210.846 11.5883 211.154 12.0061 211.561 12.3136C211.969 12.6211 212.484 12.7749 213.106 12.7749C213.727 12.7749 214.239 12.6245 214.64 12.3237C215.041 12.0228 215.285 11.5783 215.372 10.99H216.996C216.896 11.6251 216.669 12.1733 216.314 12.6345C215.96 13.0891 215.509 13.4401 214.961 13.6874C214.413 13.9347 213.794 14.0584 213.106 14.0584Z" fill="#706E6E"/>
<path d="M202.53 13.8178V4.21155H204.094V13.8178H202.53ZM203.613 9.48597C203.613 8.26931 203.73 7.25989 203.964 6.45769C204.198 5.64881 204.539 5.04717 204.987 4.65276C205.441 4.25166 205.993 4.05111 206.641 4.05111C206.855 4.05111 207.049 4.06783 207.223 4.10125C207.404 4.12799 207.584 4.17144 207.765 4.23161L207.664 5.77583C207.477 5.71566 207.273 5.66553 207.053 5.62542C206.832 5.57862 206.635 5.55523 206.461 5.55523C205.893 5.55523 205.435 5.71901 205.087 6.04657C204.74 6.36745 204.486 6.82202 204.325 7.4103C204.171 7.99857 204.094 8.69046 204.094 9.48597H203.613Z" fill="#706E6E"/>
<path d="M195.558 14.0584C194.729 14.0584 193.987 13.8478 193.332 13.4267C192.683 12.9988 192.168 12.4072 191.787 11.6518C191.413 10.8964 191.226 10.0274 191.226 9.04471C191.226 7.99517 191.413 7.0927 191.787 6.3373C192.162 5.58191 192.673 5.00366 193.322 4.60256C193.977 4.19478 194.722 3.99089 195.558 3.99089C196.286 3.99089 196.908 4.13796 197.423 4.4321C197.938 4.72623 198.352 5.12399 198.666 5.62536C198.98 6.12673 199.198 6.69495 199.318 7.33002C199.445 7.9584 199.482 8.61018 199.428 9.28536H192.489V8.32273H198.395L197.934 8.62355C197.954 8.22914 197.931 7.83473 197.864 7.44032C197.804 7.04591 197.687 6.68492 197.513 6.35736C197.339 6.02311 197.095 5.75571 196.781 5.55517C196.467 5.35462 196.066 5.25434 195.578 5.25434C194.963 5.25434 194.448 5.41144 194.034 5.72563C193.619 6.03982 193.308 6.45429 193.101 6.96903C192.894 7.47709 192.79 8.02859 192.79 8.62355V9.26531C192.79 9.9338 192.89 10.5321 193.091 11.0602C193.298 11.5883 193.606 12.0061 194.013 12.3136C194.421 12.6211 194.936 12.7749 195.558 12.7749C196.179 12.7749 196.691 12.6245 197.092 12.3237C197.493 12.0228 197.737 11.5783 197.824 10.99H199.448C199.348 11.6251 199.121 12.1733 198.766 12.6345C198.412 13.0891 197.961 13.4401 197.413 13.6874C196.865 13.9347 196.246 14.0584 195.558 14.0584Z" fill="#706E6E"/>
<path d="M186.944 13.8179V8.18251C186.944 7.26667 186.723 6.57143 186.282 6.0968C185.848 5.61549 185.253 5.37483 184.497 5.37483C183.922 5.37483 183.424 5.53193 183.003 5.84612C182.582 6.16031 182.258 6.61154 182.03 7.19982C181.803 7.78141 181.689 8.47664 181.689 9.28552H181.088C181.088 8.16914 181.235 7.21653 181.529 6.42771C181.823 5.63889 182.251 5.03724 182.813 4.62277C183.381 4.20162 184.069 3.99105 184.878 3.99105C185.634 3.99105 186.279 4.16151 186.813 4.50245C187.355 4.83669 187.769 5.31801 188.057 5.94639C188.344 6.57478 188.488 7.32015 188.488 8.18251V13.8179H186.944ZM180.125 13.8179V0.140521H181.689V13.8179H180.125Z" fill="#706E6E"/>
<path d="M168.279 14.0584C167.35 14.0584 166.574 13.9281 165.953 13.6673C165.331 13.3999 164.86 13.0356 164.539 12.5744C164.218 12.1064 164.047 11.5716 164.027 10.97H165.531C165.565 11.5783 165.809 12.0362 166.263 12.3437C166.725 12.6445 167.35 12.795 168.138 12.795C168.553 12.795 168.934 12.7281 169.282 12.5944C169.629 12.4607 169.907 12.2769 170.114 12.0429C170.321 11.8089 170.425 11.5449 170.425 11.2507C170.425 10.8764 170.288 10.5822 170.014 10.3683C169.74 10.1544 169.302 9.96723 168.7 9.80679L166.835 9.20514C166.026 8.95112 165.404 8.6035 164.97 8.16229C164.542 7.7144 164.328 7.17961 164.328 6.55791C164.328 5.78245 164.669 5.16075 165.351 4.69281C166.033 4.22486 166.929 3.99089 168.038 3.99089C169.215 3.99089 170.127 4.23155 170.776 4.71286C171.424 5.19418 171.762 5.79582 171.788 6.5178H170.244C170.184 6.09665 169.97 5.77911 169.602 5.56519C169.235 5.34459 168.713 5.23429 168.038 5.23429C167.39 5.23429 166.882 5.38136 166.514 5.67549C166.153 5.96295 165.973 6.28383 165.973 6.63813C165.973 7.29994 166.541 7.78794 167.677 8.10213L169.582 8.74388C170.405 8.99123 171.033 9.31545 171.468 9.71654C171.909 10.1176 172.129 10.629 172.129 11.2507C172.129 11.7321 171.972 12.1866 171.658 12.6145C171.344 13.0423 170.899 13.3899 170.324 13.6573C169.75 13.9247 169.068 14.0584 168.279 14.0584Z" fill="#706E6E"/>
<path d="M157.857 14.0584C157.028 14.0584 156.286 13.8478 155.631 13.4267C154.982 12.9988 154.468 12.4072 154.087 11.6518C153.712 10.8964 153.525 10.0274 153.525 9.04471C153.525 7.99517 153.712 7.0927 154.087 6.3373C154.461 5.58191 154.972 5.00366 155.621 4.60256C156.276 4.19478 157.021 3.99089 157.857 3.99089C158.586 3.99089 159.207 4.13796 159.722 4.4321C160.237 4.72623 160.651 5.12399 160.965 5.62536C161.28 6.12673 161.497 6.69495 161.617 7.33002C161.744 7.9584 161.781 8.61018 161.728 9.28536H154.789V8.32273H160.695L160.233 8.62355C160.254 8.22914 160.23 7.83473 160.163 7.44032C160.103 7.04591 159.986 6.68492 159.812 6.35736C159.639 6.02311 159.395 5.75571 159.08 5.55517C158.766 5.35462 158.365 5.25434 157.877 5.25434C157.262 5.25434 156.747 5.41144 156.333 5.72563C155.918 6.03982 155.608 6.45429 155.4 6.96903C155.193 7.47709 155.089 8.02859 155.089 8.62355V9.26531C155.089 9.9338 155.19 10.5321 155.39 11.0602C155.597 11.5883 155.905 12.0061 156.313 12.3136C156.721 12.6211 157.235 12.7749 157.857 12.7749C158.479 12.7749 158.99 12.6245 159.391 12.3237C159.792 12.0228 160.036 11.5783 160.123 10.99H161.748C161.647 11.6251 161.42 12.1733 161.066 12.6345C160.711 13.0891 160.26 13.4401 159.712 13.6874C159.164 13.9347 158.546 14.0584 157.857 14.0584Z" fill="#706E6E"/>
<path d="M146.597 18.7511C145.615 18.7511 144.762 18.6108 144.04 18.33C143.318 18.0559 142.757 17.6849 142.356 17.2169C141.961 16.7557 141.764 16.2443 141.764 15.6828C141.764 14.9407 142.035 14.3725 142.576 13.9781C143.124 13.5904 143.83 13.3965 144.692 13.3965L145.554 13.938C144.832 13.938 144.274 14.0884 143.88 14.3892C143.485 14.69 143.288 15.1012 143.288 15.6226C143.288 16.144 143.569 16.5852 144.13 16.9462C144.692 17.3072 145.514 17.4877 146.597 17.4877C147.399 17.4877 148.101 17.3707 148.703 17.1367C149.311 16.9094 149.783 16.6086 150.117 16.2343C150.458 15.8666 150.628 15.4688 150.628 15.041C150.628 14.7402 150.518 14.4795 150.297 14.2589C150.077 14.0449 149.739 13.938 149.285 13.938H145.554C144.906 13.938 144.344 13.8411 143.87 13.6472C143.402 13.4466 143.041 13.1859 142.787 12.8651C142.533 12.5442 142.406 12.1932 142.406 11.8122C142.406 11.4111 142.519 11.0701 142.747 10.7894C142.974 10.5086 143.268 10.2947 143.629 10.1476C143.997 10.0006 144.391 9.92702 144.812 9.92702L145.113 10.5086C144.913 10.5086 144.709 10.5554 144.501 10.649C144.301 10.7359 144.13 10.8696 143.99 11.0501C143.856 11.2239 143.79 11.4445 143.79 11.7119C143.79 12.0194 143.917 12.2768 144.171 12.484C144.425 12.6912 144.886 12.7949 145.554 12.7949H149.285C150.187 12.7949 150.896 12.9854 151.41 13.3664C151.932 13.7475 152.192 14.2789 152.192 14.9608C152.192 15.5892 151.969 16.1908 151.521 16.7657C151.073 17.3473 150.431 17.8219 149.595 18.1896C148.76 18.564 147.76 18.7511 146.597 18.7511ZM146.878 11.01C146.143 11.01 145.477 10.8629 144.883 10.5688C144.294 10.2746 143.826 9.86351 143.479 9.3354C143.138 8.80729 142.967 8.19562 142.967 7.50039C142.967 6.79847 143.138 6.18345 143.479 5.65534C143.826 5.12723 144.294 4.71945 144.883 4.432C145.477 4.13786 146.143 3.99079 146.878 3.99079C147.593 3.99079 148.242 4.13786 148.823 4.432C149.412 4.71945 149.88 5.12723 150.227 5.65534C150.575 6.18345 150.749 6.79847 150.749 7.50039C150.749 8.19562 150.575 8.80729 150.227 9.3354C149.88 9.86351 149.412 10.2746 148.823 10.5688C148.242 10.8629 147.593 11.01 146.878 11.01ZM146.878 9.88691C147.613 9.88691 148.185 9.65962 148.593 9.20505C149 8.75047 149.204 8.18225 149.204 7.50039C149.204 6.79847 149 6.23025 148.593 5.79573C148.185 5.35452 147.613 5.13392 146.878 5.13392C146.149 5.13392 145.574 5.35452 145.153 5.79573C144.739 6.23025 144.532 6.79847 144.532 7.50039C144.532 8.18225 144.739 8.75047 145.153 9.20505C145.574 9.65962 146.149 9.88691 146.878 9.88691ZM150.027 5.51496L149.285 5.21414C149.285 4.6526 149.395 4.16126 149.615 3.74011C149.836 3.31227 150.15 2.98137 150.558 2.74739C150.966 2.50674 151.45 2.38641 152.012 2.38641L151.892 3.93063C151.29 3.93063 150.829 4.06098 150.508 4.3217C150.187 4.57573 150.027 4.97348 150.027 5.51496Z" fill="#706E6E"/>
<path d="M138.098 13.8178L137.898 11.712V7.60076C137.898 6.7384 137.714 6.12004 137.346 5.74569C136.979 5.36464 136.427 5.17412 135.692 5.17412C135.277 5.17412 134.9 5.23429 134.559 5.35462C134.224 5.47495 133.957 5.66213 133.756 5.91615C133.563 6.1635 133.466 6.48437 133.466 6.87878H131.721C131.721 6.18355 131.891 5.62536 132.232 5.20421C132.573 4.77637 133.041 4.46886 133.636 4.28169C134.238 4.08782 134.923 3.99089 135.692 3.99089C136.427 3.99089 137.079 4.11456 137.647 4.3619C138.215 4.60925 138.66 5.00366 138.981 5.54514C139.302 6.07993 139.462 6.77851 139.462 7.64087V13.8178H138.098ZM134.829 14.0584C134.041 14.0584 133.389 13.918 132.874 13.6373C132.359 13.3565 131.975 12.9922 131.721 12.5443C131.467 12.0964 131.34 11.6251 131.34 11.1304C131.34 10.482 131.5 9.95386 131.821 9.54608C132.149 9.13829 132.593 8.84081 133.155 8.65364C133.716 8.45977 134.348 8.36284 135.05 8.36284C135.551 8.36284 136.053 8.41298 136.554 8.51325C137.062 8.61353 137.557 8.75057 138.038 8.92438V9.90706C137.637 9.74662 137.183 9.61961 136.674 9.52602C136.173 9.43243 135.712 9.38564 135.291 9.38564C134.649 9.38564 134.107 9.51934 133.666 9.78673C133.225 10.0474 133.004 10.4953 133.004 11.1304C133.004 11.5984 133.172 11.9994 133.506 12.3337C133.847 12.6679 134.388 12.8351 135.13 12.8351C135.652 12.8351 136.12 12.7147 136.534 12.4741C136.955 12.2267 137.286 11.9192 137.527 11.5516C137.774 11.1839 137.898 10.8162 137.898 10.4485H138.279C138.279 11.0903 138.138 11.6853 137.858 12.2334C137.584 12.7816 137.189 13.2228 136.674 13.557C136.16 13.8913 135.545 14.0584 134.829 14.0584Z" fill="#706E6E"/>
<path d="M126.877 13.8178V8.18235C126.877 7.26651 126.656 6.57128 126.215 6.09665C125.78 5.61533 125.192 5.37467 124.45 5.37467C123.581 5.37467 122.916 5.71226 122.455 6.38744C121.993 7.05594 121.763 7.9818 121.763 9.16503H121.041C121.041 8.30268 121.124 7.54728 121.291 6.89884C121.465 6.2504 121.716 5.71226 122.043 5.28443C122.371 4.8499 122.769 4.52569 123.237 4.31177C123.705 4.09785 124.236 3.99089 124.831 3.99089C125.586 3.99089 126.232 4.16136 126.766 4.50229C127.308 4.83654 127.722 5.31785 128.01 5.94624C128.297 6.57462 128.441 7.31999 128.441 8.18235V13.8178H126.877ZM113.4 13.8178V4.23155H114.744L114.924 6.15681C115.225 5.46158 115.646 4.92678 116.187 4.55243C116.736 4.17807 117.391 3.99089 118.153 3.99089C118.908 3.99089 119.553 4.16136 120.088 4.50229C120.63 4.83654 121.044 5.31785 121.332 5.94624C121.619 6.57462 121.763 7.31999 121.763 8.18235V13.8178H120.218V8.18235C120.218 7.26651 119.998 6.57128 119.557 6.09665C119.122 5.61533 118.527 5.37467 117.772 5.37467C117.197 5.37467 116.699 5.53177 116.278 5.84596C115.857 6.16015 115.532 6.61139 115.305 7.19966C115.078 7.78125 114.964 8.47649 114.964 9.28536V13.8178H113.4Z" fill="#706E6E"/>
<path d="M108.309 1.96537C107.988 1.96537 107.734 1.87513 107.547 1.69463C107.36 1.50745 107.266 1.26345 107.266 0.962631C107.266 0.668493 107.36 0.43452 107.547 0.260711C107.734 0.0869037 107.988 0 108.309 0C108.63 0 108.884 0.0869037 109.071 0.260711C109.258 0.43452 109.352 0.668493 109.352 0.962631C109.352 1.26345 109.258 1.50745 109.071 1.69463C108.884 1.87513 108.63 1.96537 108.309 1.96537ZM107.527 13.8178V4.21151H109.091V13.8178H107.527Z" fill="#706E6E"/>
<path d="M94.1931 14.0584C93.1904 14.0584 92.2779 13.7977 91.4556 13.2763C90.6334 12.7549 89.9783 12.0162 89.4903 11.0602C89.0023 10.1043 88.7583 8.97119 88.7583 7.66094C88.7583 6.5713 88.9154 5.61201 89.2295 4.78308C89.5437 3.95414 89.9749 3.25891 90.5231 2.69737C91.0713 2.13584 91.6996 1.71469 92.4082 1.43392C93.1235 1.14647 93.8789 1.00274 94.6744 1.00274C95.6571 1.00274 96.5195 1.20663 97.2615 1.61441C98.0035 2.01551 98.6386 2.65392 99.1667 3.52965L97.6827 4.05107C97.2348 3.49622 96.7535 3.08844 96.2387 2.82773C95.7307 2.56033 95.1892 2.42663 94.6143 2.42663C93.8589 2.42663 93.1636 2.63721 92.5286 3.05836C91.8935 3.47951 91.3821 4.08116 90.9944 4.8633C90.6133 5.64543 90.4228 6.57798 90.4228 7.66094C90.4228 8.62357 90.5799 9.47925 90.8941 10.228C91.2083 10.97 91.6528 11.5549 92.2277 11.9828C92.8093 12.4039 93.4979 12.6145 94.2934 12.6145C94.9017 12.6145 95.4465 12.4741 95.9279 12.1933C96.4159 11.9126 96.8002 11.4914 97.081 10.9299C97.3618 10.3617 97.5022 9.64637 97.5022 8.78401H97.9835C97.9835 9.8536 97.8565 10.7828 97.6024 11.5716C97.3484 12.3605 96.9406 12.9721 96.3791 13.4066C95.8242 13.8412 95.0956 14.0584 94.1931 14.0584ZM97.7829 13.8178L97.5022 10.8497V8.7439L94.3335 8.64363V7.58072H99.0263V13.8178H97.7829Z" fill="#706E6E"/>
<path d="M78.6163 13.818V1.22356H82.6674C84.0512 1.22356 85.1074 1.57452 85.8361 2.27644C86.5714 2.97167 86.9391 3.91759 86.9391 5.1142C86.9391 6.29743 86.5714 7.23666 85.8361 7.9319C85.1074 8.62045 84.0512 8.96472 82.6674 8.96472H80.2007V13.818H78.6163ZM80.2007 7.60099H82.6674C83.5431 7.60099 84.2049 7.37705 84.6528 6.92916C85.1074 6.48127 85.3347 5.87628 85.3347 5.1142C85.3347 4.33874 85.1074 3.72039 84.6528 3.25912C84.2049 2.79786 83.5431 2.56723 82.6674 2.56723H80.2007V7.60099Z" fill="#706E6E"/>
<path d="M68.7028 13.1963V11.5718C69.1775 11.8794 69.6521 12.1167 70.1267 12.2838C70.6013 12.4509 71.0626 12.5345 71.5105 12.5345C72.2124 12.5345 72.7104 12.3272 73.0046 11.9128C73.3054 11.4983 73.4558 10.9167 73.4558 10.168V1.22356H75.0201V10.168C75.0201 11.0838 74.8797 11.8292 74.5989 12.4041C74.3249 12.9723 73.9304 13.3902 73.4157 13.6576C72.9076 13.9249 72.306 14.0586 71.6108 14.0586C71.0693 14.0586 70.5579 13.9784 70.0766 13.818C69.6019 13.6509 69.144 13.4436 68.7028 13.1963Z" fill="#706E6E"/>
<path d="M58.4294 14.0584C57.7275 14.0584 57.1158 13.898 56.5944 13.5771C56.0797 13.2562 55.6819 12.7883 55.4011 12.1733C55.1204 11.5516 54.98 10.7962 54.98 9.90706H55.6418C55.6418 10.502 55.7655 11.0034 56.0128 11.4112C56.2601 11.819 56.581 12.1298 56.9754 12.3437C57.3765 12.551 57.801 12.6546 58.2489 12.6546C58.7302 12.6546 59.1915 12.5175 59.6327 12.2435C60.0739 11.9627 60.4349 11.5516 60.7157 11.0101C60.9964 10.4686 61.1368 9.8001 61.1368 9.0046C61.1368 8.24251 61.0065 7.59073 60.7457 7.04925C60.4917 6.50777 60.1474 6.0933 59.7129 5.80585C59.2784 5.5184 58.7971 5.37467 58.269 5.37467C57.8144 5.37467 57.3866 5.48497 56.9855 5.70558C56.5844 5.92618 56.2601 6.2504 56.0128 6.67824C55.7655 7.09939 55.6418 7.62081 55.6418 8.24251H54.98C54.98 7.31331 55.1337 6.53451 55.4412 5.90613C55.7488 5.27106 56.1666 4.79308 56.6947 4.47221C57.2228 4.15133 57.8144 3.99089 58.4695 3.99089C59.2182 3.99089 59.9168 4.19144 60.5653 4.59254C61.2137 4.99363 61.7385 5.56854 62.1396 6.31725C62.5407 7.06596 62.7412 7.96175 62.7412 9.0046C62.7412 10.0608 62.5373 10.9666 62.1295 11.722C61.7284 12.4774 61.2003 13.0557 60.5452 13.4568C59.8901 13.8579 59.1848 14.0584 58.4294 14.0584ZM54.0775 18.5306V4.23155H55.3811L55.6418 6.47769V18.5306H54.0775Z" fill="#706E6E"/>
<path d="M46.5795 14.0584C45.7172 14.0584 44.9484 13.8679 44.2732 13.4868C43.6047 13.1058 43.0766 12.5409 42.6889 11.7922C42.3012 11.0435 42.1073 10.121 42.1073 9.02465C42.1073 7.92164 42.3012 6.99911 42.6889 6.25709C43.0766 5.50837 43.6047 4.94349 44.2732 4.56245C44.9484 4.18141 45.7172 3.99089 46.5795 3.99089C47.4352 3.99089 48.1973 4.18141 48.8658 4.56245C49.5409 4.94349 50.0691 5.50837 50.4501 6.25709C50.8378 6.99911 51.0317 7.92164 51.0317 9.02465C51.0317 10.121 50.8378 11.0435 50.4501 11.7922C50.0691 12.5409 49.5409 13.1058 48.8658 13.4868C48.1973 13.8679 47.4352 14.0584 46.5795 14.0584ZM46.5394 12.6947C47.1611 12.6947 47.6892 12.5476 48.1237 12.2535C48.5583 11.9527 48.8858 11.5282 49.1064 10.98C49.3337 10.4318 49.4474 9.78005 49.4474 9.02465C49.4474 7.88153 49.21 6.9824 48.7354 6.32728C48.2608 5.66547 47.5555 5.33456 46.6196 5.33456C45.9912 5.33456 45.4598 5.48497 45.0253 5.7858C44.5974 6.07993 44.2699 6.50443 44.0426 7.05928C43.822 7.60744 43.7117 8.26257 43.7117 9.02465C43.7117 10.1544 43.949 11.0502 44.4236 11.712C44.9049 12.3671 45.6102 12.6947 46.5394 12.6947Z" fill="#706E6E"/>
<path d="M35.8637 13.8178V4.21155H37.4279V13.8178H35.8637ZM36.9466 9.48597C36.9466 8.26931 37.0636 7.25989 37.2976 6.45769C37.5316 5.64881 37.8725 5.04717 38.3204 4.65276C38.775 4.25166 39.3265 4.05111 39.9749 4.05111C40.1888 4.05111 40.3827 4.06783 40.5565 4.10125C40.737 4.12799 40.9175 4.17144 41.098 4.23161L40.9977 5.77583C40.8105 5.71566 40.6066 5.66553 40.386 5.62542C40.1654 5.57862 39.9682 5.55523 39.7944 5.55523C39.2262 5.55523 38.7683 5.71901 38.4207 6.04657C38.073 6.36745 37.819 6.82202 37.6586 7.4103C37.5048 7.99857 37.4279 8.69046 37.4279 9.48597H36.9466Z" fill="#706E6E"/>
<path d="M27.4051 14.0586C26.6297 14.0586 25.9177 13.8513 25.2693 13.4369C24.6208 13.0157 24.1027 12.4274 23.715 11.672C23.3273 10.91 23.1334 10.0142 23.1334 8.9847C23.1334 7.9619 23.3239 7.07615 23.705 6.32743C24.086 5.57872 24.5907 5.00382 25.2191 4.60272C25.8542 4.19494 26.5494 3.99105 27.3048 3.99105C28.0068 3.99105 28.6218 4.16151 29.1499 4.50245C29.6847 4.84338 30.0991 5.33472 30.3933 5.97647C30.6874 6.61823 30.8345 7.39368 30.8345 8.30284H30.2328C30.2328 7.66777 30.1058 7.13297 29.8518 6.69845C29.6045 6.26393 29.2802 5.93637 28.8791 5.71576C28.478 5.48847 28.0469 5.37483 27.5856 5.37483C27.0642 5.37483 26.5862 5.5219 26.1517 5.81604C25.7238 6.10349 25.3796 6.51796 25.1189 7.05944C24.8648 7.59423 24.7378 8.23598 24.7378 8.9847C24.7378 9.74678 24.8648 10.4019 25.1189 10.9501C25.3796 11.4982 25.7238 11.9194 26.1517 12.2135C26.5862 12.5077 27.0642 12.6547 27.5856 12.6547C28.0201 12.6547 28.4379 12.5411 28.839 12.3138C29.2468 12.0865 29.5811 11.7556 29.8418 11.3211C30.1025 10.8799 30.2328 10.3484 30.2328 9.72673H30.8345C30.8345 10.6559 30.6807 11.4448 30.3732 12.0932C30.0724 12.735 29.6613 13.223 29.1398 13.5572C28.6251 13.8914 28.0469 14.0586 27.4051 14.0586ZM30.4935 13.8179L30.2328 11.5718V0.140521H31.7971V13.8179H30.4935Z" fill="#706E6E"/>
<path d="M11.9702 13.8178V4.21155H13.5345V13.8178H11.9702ZM13.0532 9.48597C13.0532 8.26931 13.1702 7.25989 13.4041 6.45769C13.6381 5.64881 13.979 5.04717 14.4269 4.65276C14.8815 4.25166 15.433 4.05111 16.0815 4.05111C16.2954 4.05111 16.4892 4.06783 16.6631 4.10125C16.8435 4.12799 17.024 4.17144 17.2045 4.23161L17.1043 5.77583C16.9171 5.71566 16.7132 5.66553 16.4926 5.62542C16.272 5.57862 16.0748 5.55523 15.901 5.55523C15.3327 5.55523 14.8748 5.71901 14.5272 6.04657C14.1796 6.36745 13.9256 6.82202 13.7651 7.4103C13.6114 7.99857 13.5345 8.69046 13.5345 9.48597H13.0532Z" fill="#706E6E"/>
<path d="M4.47223 14.0584C3.60987 14.0584 2.8411 13.8679 2.16592 13.4868C1.49743 13.1058 0.969316 12.5409 0.58159 11.7922C0.193863 11.0435 0 10.121 0 9.02465C0 7.92164 0.193863 6.99911 0.58159 6.25709C0.969316 5.50837 1.49743 4.94349 2.16592 4.56245C2.8411 4.18141 3.60987 3.99089 4.47223 3.99089C5.3279 3.99089 6.08998 4.18141 6.75848 4.56245C7.43365 4.94349 7.96176 5.50837 8.34281 6.25709C8.73053 6.99911 8.9244 7.92164 8.9244 9.02465C8.9244 10.121 8.73053 11.0435 8.34281 11.7922C7.96176 12.5409 7.43365 13.1058 6.75848 13.4868C6.08998 13.8679 5.3279 14.0584 4.47223 14.0584ZM4.43212 12.6947C5.05382 12.6947 5.58193 12.5476 6.01645 12.2535C6.45097 11.9527 6.77853 11.5282 6.99913 10.98C7.22642 10.4318 7.34007 9.78005 7.34007 9.02465C7.34007 7.88153 7.10275 6.9824 6.62812 6.32728C6.15349 5.66547 5.44823 5.33456 4.51234 5.33456C3.88395 5.33456 3.3525 5.48497 2.91798 5.7858C2.49014 6.07993 2.16258 6.50443 1.93529 7.05928C1.71469 7.60744 1.60439 8.26257 1.60439 9.02465C1.60439 10.1544 1.8417 11.0502 2.31633 11.712C2.79765 12.3671 3.50291 12.6947 4.43212 12.6947Z" fill="#706E6E"/>
</svg>
