<svg width="62" height="57" viewBox="0 0 62 57" fill="none" xmlns="http://www.w3.org/2000/svg">
<path d="M26.2047 15.7405C28.2368 11.0831 29.2528 8.75439 31 8.75439C32.7472 8.75439 33.7632 11.0831 35.7953 15.7405L35.8899 15.9573C37.0379 18.5885 37.6119 19.9041 38.7818 20.7037C39.9516 21.5034 41.4873 21.6298 44.5587 21.8827L45.1139 21.9284C50.1406 22.3423 52.654 22.5492 53.1918 24.0193C53.7296 25.4894 51.863 27.0506 48.13 30.173L46.8841 31.2151C44.9944 32.7957 44.0495 33.586 43.6091 34.6218C43.527 34.815 43.4587 35.013 43.4047 35.2144C43.1152 36.2942 43.3919 37.4407 43.9453 39.7337L44.1175 40.4474C45.1345 44.6615 45.643 46.7685 44.7552 47.6773C44.4234 48.0169 43.9922 48.2614 43.5132 48.3816C42.2314 48.7032 40.4115 47.3398 36.7717 44.6131C34.3817 42.8226 33.1867 41.9274 31.8146 41.726C31.275 41.6468 30.725 41.6468 30.1854 41.726C28.8133 41.9274 27.6183 42.8226 25.2283 44.6131C21.5885 47.3398 19.7686 48.7032 18.4868 48.3816C18.0078 48.2614 17.5766 48.0169 17.2448 47.6773C16.357 46.7685 16.8655 44.6615 17.8825 40.4474L18.0547 39.7337C18.6081 37.4407 18.8848 36.2942 18.5953 35.2144C18.5413 35.013 18.473 34.815 18.3909 34.6218C17.9505 33.586 17.0056 32.7957 15.1159 31.2151L13.87 30.173C10.137 27.0506 8.27044 25.4894 8.80823 24.0193C9.34603 22.5492 11.8594 22.3423 16.8861 21.9284L17.4413 21.8827C20.5127 21.6298 22.0484 21.5034 23.2182 20.7037C24.3881 19.9041 24.9621 18.5885 26.1101 15.9573L26.2047 15.7405Z" stroke="#222222"/>
</svg>
