<svg width="40" height="34" viewBox="0 0 40 34" fill="none" xmlns="http://www.w3.org/2000/svg">
<path d="M11.6667 17C11.6667 16.2176 12.4129 15.5833 13.3333 15.5833H26.6667C27.5871 15.5833 28.3333 16.2176 28.3333 17C28.3333 17.7824 27.5871 18.4167 26.6667 18.4167H13.3333C12.4129 18.4167 11.6667 17.7824 11.6667 17Z" fill="#667185"/>
<path d="M13.3333 22.6667C12.4129 22.6667 11.6667 23.3009 11.6667 24.0833C11.6667 24.8657 12.4129 25.5 13.3333 25.5H26.6667C27.5871 25.5 28.3333 24.8657 28.3333 24.0833C28.3333 23.3009 27.5871 22.6667 26.6667 22.6667H13.3333Z" fill="#667185"/>
<path fill-rule="evenodd" clip-rule="evenodd" d="M11.6667 1.41667C7.98477 1.41667 5 3.95372 5 7.08334V26.9167C5 30.0463 7.98477 32.5833 11.6667 32.5833H28.3333C32.0152 32.5833 35 30.0463 35 26.9167V12.872C35 11.5464 34.4532 10.2627 33.4548 9.24434L27.7796 3.45563C26.513 2.16367 24.6367 1.41667 22.6581 1.41667H11.6667ZM8.33333 7.08334C8.33333 5.51853 9.82572 4.25001 11.6667 4.25001H21.6667V8.5C21.6667 11.6296 24.6514 14.1667 28.3333 14.1667H31.6667V26.9167C31.6667 28.4815 30.1743 29.75 28.3333 29.75H11.6667C9.82572 29.75 8.33333 28.4815 8.33333 26.9167V7.08334ZM31.1323 11.3333C31.0598 11.2381 30.9803 11.1461 30.8941 11.0582L25.2189 5.26948C25.1495 5.19869 25.0764 5.13117 25 5.06705V8.5C25 10.0648 26.4924 11.3333 28.3333 11.3333H31.1323Z" fill="#667185"/>
</svg>
