<svg width="16" height="16" viewBox="0 0 16 16" fill="none" xmlns="http://www.w3.org/2000/svg">
<path d="M2.66699 4C2.66699 3.63181 2.96547 3.33334 3.33366 3.33334H12.667C13.0352 3.33334 13.3337 3.63181 13.3337 4C13.3337 4.36819 13.0352 4.66667 12.667 4.66667H3.33366C2.96547 4.66667 2.66699 4.36819 2.66699 4Z" fill="#667185"/>
<path d="M4.00033 8C4.00033 7.63181 4.2988 7.33334 4.66699 7.33334H11.3337C11.7018 7.33334 12.0003 7.63181 12.0003 8C12.0003 8.36819 11.7018 8.66667 11.3337 8.66667H4.66699C4.2988 8.66667 4.00033 8.36819 4.00033 8Z" fill="#667185"/>
<path d="M6.00033 11.3333C5.63214 11.3333 5.33366 11.6318 5.33366 12C5.33366 12.3682 5.63214 12.6667 6.00033 12.6667H10.0003C10.3685 12.6667 10.667 12.3682 10.667 12C10.667 11.6318 10.3685 11.3333 10.0003 11.3333H6.00033Z" fill="#667185"/>
</svg>
