<svg width="20" height="20" viewBox="0 0 20 20" fill="none" xmlns="http://www.w3.org/2000/svg">
<path d="M10.5891 2.74408C10.4328 2.5878 10.2209 2.5 9.99984 2.5C9.77882 2.5 9.56686 2.5878 9.41058 2.74408L4.41058 7.74408C4.08514 8.06952 4.08514 8.59715 4.41058 8.92259C4.73602 9.24803 5.26366 9.24803 5.58909 8.92259L9.99984 4.51184L14.4106 8.92259C14.736 9.24803 15.2637 9.24803 15.5891 8.92259C15.9145 8.59715 15.9145 8.06952 15.5891 7.74408L10.5891 2.74408Z" fill="#667185"/>
<path d="M10.5891 18.0893C10.4328 18.2455 10.2209 18.3333 9.99984 18.3333C9.77882 18.3333 9.56686 18.2455 9.41058 18.0893L4.41058 13.0893C4.08514 12.7638 4.08514 12.2362 4.41058 11.9107C4.73602 11.5853 5.26366 11.5853 5.58909 11.9107L9.99984 16.3215L14.4106 11.9107C14.736 11.5853 15.2637 11.5853 15.5891 11.9107C15.9145 12.2362 15.9145 12.7638 15.5891 13.0893L10.5891 18.0893Z" fill="#667185"/>
</svg>
