<svg width="42" height="34" viewBox="0 0 42 34" fill="none" xmlns="http://www.w3.org/2000/svg">
<path fill-rule="evenodd" clip-rule="evenodd" d="M12.6 0C13.7598 0 14.7 0.724872 14.7 1.61905V3.2381H27.3V1.61905C27.3 0.724872 28.2402 0 29.4 0C30.5598 0 31.5 0.724872 31.5 1.61905V3.2381H33.6C38.2392 3.2381 42 6.13758 42 9.71429V27.5238C42 31.1005 38.2392 34 33.6 34H8.4C3.76081 34 0 31.1005 0 27.5238V9.71429C0 6.13758 3.76081 3.2381 8.4 3.2381H10.5V1.61905C10.5 0.724872 11.4402 0 12.6 0ZM27.3 6.47619C27.3 7.37037 28.2402 8.09524 29.4 8.09524C30.5598 8.09524 31.5 7.37037 31.5 6.47619H33.6C35.9196 6.47619 37.8 7.92594 37.8 9.71429V10.5238H4.2V9.71429C4.2 7.92594 6.0804 6.47619 8.4 6.47619H10.5C10.5 7.37037 11.4402 8.09524 12.6 8.09524C13.7598 8.09524 14.7 7.37037 14.7 6.47619H27.3ZM37.8 13.7619H4.2V27.5238C4.2 29.3122 6.0804 30.7619 8.4 30.7619H33.6C35.9196 30.7619 37.8 29.3122 37.8 27.5238V13.7619Z" fill="#667185"/>
</svg>
