<svg width="56" height="53" viewBox="0 0 56 53" fill="none" xmlns="http://www.w3.org/2000/svg">
<path d="M3.02703 3.02703H12.1081L18.1924 32.9434C18.4 33.9721 18.9687 34.8961 19.7988 35.5537C20.6289 36.2113 21.6675 36.5606 22.733 36.5405H44.8C45.8655 36.5606 46.9041 36.2113 47.7342 35.5537C48.5643 34.8961 49.133 33.9721 49.3406 32.9434L52.973 14.1982H14.3784M23.4595 47.7117C23.4595 48.9456 22.443 49.9459 21.1892 49.9459C19.9354 49.9459 18.9189 48.9456 18.9189 47.7117C18.9189 46.4778 19.9354 45.4775 21.1892 45.4775C22.443 45.4775 23.4595 46.4778 23.4595 47.7117ZM48.4325 47.7117C48.4325 48.9456 47.416 49.9459 46.1622 49.9459C44.9083 49.9459 43.8919 48.9456 43.8919 47.7117C43.8919 46.4778 44.9083 45.4775 46.1622 45.4775C47.416 45.4775 48.4325 46.4778 48.4325 47.7117Z" stroke="#1B3764" stroke-width="6" stroke-linecap="round" stroke-linejoin="round"/>
</svg>
