<svg width="16" height="16" viewBox="0 0 16 16" fill="none" xmlns="http://www.w3.org/2000/svg">
<g clip-path="url(#clip0_0_385)">
<path fill-rule="evenodd" clip-rule="evenodd" d="M9.59938 2.03333C8.65123 1.32222 7.34752 1.32222 6.39938 2.03333L1.81766 5.46962C1.08345 6.02028 0.683993 6.9098 0.760209 7.8244L1.18219 12.8881C1.29736 14.2702 2.45274 15.3333 3.83964 15.3333H12.1591C13.546 15.3333 14.7014 14.2702 14.8166 12.8881L15.2385 7.8244C15.3148 6.9098 14.9153 6.02028 14.1811 5.46961L9.59938 2.03333ZM7.19938 3.1C7.67345 2.74444 8.3253 2.74444 8.79938 3.1L13.3811 6.53628C13.7482 6.81161 13.9479 7.25638 13.9098 7.71368L13.4878 12.7774C13.4303 13.4684 12.8526 14 12.1591 14H10.0572L10.192 12.3829C10.2989 11.1002 9.28659 10 7.99938 10C6.71216 10 5.69986 11.1002 5.80675 12.3829L5.94151 14H3.83964C3.14619 14 2.5685 13.4684 2.51091 12.7774L2.08894 7.71368C2.05083 7.25638 2.25056 6.81161 2.61766 6.53628L7.19938 3.1ZM8.86327 12.2722L8.71929 14H7.27946L7.13548 12.2722C7.09336 11.7668 7.49221 11.3333 7.99938 11.3333C8.50654 11.3333 8.90539 11.7668 8.86327 12.2722Z" fill="#98A2B3"/>
</g>
<defs>
<clipPath id="clip0_0_385">
<rect width="16" height="16" fill="white"/>
</clipPath>
</defs>
</svg>
