<svg width="57" height="57" viewBox="0 0 57 57" fill="none" xmlns="http://www.w3.org/2000/svg">
<path d="M24.0914 15.7405C25.9596 11.0831 26.8937 8.75439 28.5 8.75439C30.1063 8.75439 31.0404 11.0831 32.9086 15.7405L32.9955 15.9573C34.051 18.5885 34.5787 19.9041 35.6542 20.7037C36.7297 21.5034 38.1416 21.6298 40.9652 21.8827L41.4757 21.9284C46.097 22.3423 48.4077 22.5492 48.9021 24.0193C49.3965 25.4894 47.6805 27.0506 44.2486 30.173L43.1031 31.2151C41.3658 32.7957 40.4972 33.586 40.0923 34.6218C40.0168 34.815 39.954 35.013 39.9043 35.2144C39.6382 36.2942 39.8926 37.4407 40.4013 39.7337L40.5597 40.4474C41.4946 44.6615 41.9621 46.7685 41.1459 47.6773C40.8409 48.0169 40.4445 48.2614 40.0041 48.3816C38.8256 48.7032 37.1525 47.3398 33.8062 44.6131C31.609 42.8226 30.5103 41.9274 29.2489 41.726C28.7528 41.6468 28.2472 41.6468 27.7511 41.726C26.4897 41.9274 25.391 42.8226 23.1938 44.6131C19.8475 47.3398 18.1744 48.7032 16.9959 48.3816C16.5555 48.2614 16.1591 48.0169 15.8541 47.6773C15.0379 46.7685 15.5054 44.6615 16.4403 40.4474L16.5987 39.7337C17.1074 37.4407 17.3618 36.2942 17.0957 35.2144C17.046 35.013 16.9832 34.815 16.9077 34.6218C16.5028 33.586 15.6342 32.7957 13.8969 31.2151L12.7514 30.173C9.31946 27.0506 7.60347 25.4894 8.09789 24.0193C8.59232 22.5492 10.903 22.3423 15.5243 21.9284L16.0348 21.8827C18.8584 21.6298 20.2703 21.5034 21.3458 20.7037C22.4213 19.9041 22.949 18.5885 24.0045 15.9573L24.0914 15.7405Z" fill="#7E869E" fill-opacity="0.25" stroke="#222222"/>
</svg>
